<?xml version="1.0" encoding="UTF-8" standalone="no"?>
<!-- Generator: Adobe Illustrator 18.0.0, SVG Export Plug-In . SVG Version: 6.00 Build 0)  -->

<svg
   xmlns:dc="http://purl.org/dc/elements/1.1/"
   xmlns:cc="http://creativecommons.org/ns#"
   xmlns:rdf="http://www.w3.org/1999/02/22-rdf-syntax-ns#"
   xmlns:svg="http://www.w3.org/2000/svg"
   xmlns="http://www.w3.org/2000/svg"
   xmlns:sodipodi="http://sodipodi.sourceforge.net/DTD/sodipodi-0.dtd"
   xmlns:inkscape="http://www.inkscape.org/namespaces/inkscape"
   version="1.1"
   id="Layer_1"
   x="0px"
   y="0px"
   viewBox="0 0 1152 576"
   enable-background="new 0 0 576 576"
   xml:space="preserve"
   inkscape:version="0.91 r13725"
   sodipodi:docname="404_JA_wide.svg"

><metadata
     id="metadata3906"><rdf:RDF><cc:Work
         rdf:about=""><dc:format>image/svg+xml</dc:format><dc:type
           rdf:resource="http://purl.org/dc/dcmitype/StillImage" /><dc:title></dc:title></cc:Work></rdf:RDF></metadata><defs
     id="defs3904" /><sodipodi:namedview
     pagecolor="#ffffff"
     bordercolor="#666666"
     borderopacity="1"
     objecttolerance="10"
     gridtolerance="10"
     guidetolerance="10"
     inkscape:pageopacity="0"
     inkscape:pageshadow="2"
     inkscape:window-width="1216"
     inkscape:window-height="746"
     id="namedview3902"
     showgrid="false"
     inkscape:zoom="0.40972222"
     inkscape:cx="-14.644068"
     inkscape:cy="288"
     inkscape:window-x="0"
     inkscape:window-y="23"
     inkscape:window-maximized="0"
     inkscape:current-layer="Layer_1" /><g
     enable-background="new    "
     id="g3816"
     transform="translate(287.4,0)"><path
       d="m 194.5,265.6 -37.7,0 0,58.4 -27.6,0 0,-58.4 -123.7,0 0,-25.2 120.6,-172 30.6,0 0,170.9 37.7,0 0,26.3 z m -65.4,-26.3 0,-84.5 c 0,-16.6 0.6,-35.3 1.7,-56.2 l -1.4,0 c -5.6,11.1 -10.8,20.3 -15.6,27.6 l -79.4,113 94.7,0 z"
       id="path3818"
       inkscape:connector-curvature="0"
       style="fill:#3f403f" /><path
       d="m 372.5,196.6 c 0,43.9 -6.9,76.7 -20.8,98.4 -13.9,21.7 -35,32.5 -63.5,32.5 -27.4,0 -48.2,-11.1 -62.4,-33.3 -14.3,-22.2 -21.4,-54.7 -21.4,-97.6 0,-44.3 6.9,-77.1 20.7,-98.6 13.8,-21.4 34.8,-32.2 63.1,-32.2 27.6,0 48.5,11.2 62.8,33.6 14.3,22.4 21.5,54.8 21.5,97.2 z m -138.9,0 c 0,37 4.3,63.9 13,80.8 8.7,16.9 22.5,25.3 41.5,25.3 19.2,0 33.2,-8.5 41.8,-25.6 8.6,-17.1 13,-43.9 13,-80.4 0,-36.5 -4.3,-63.3 -13,-80.2 -8.6,-17 -22.6,-25.5 -41.8,-25.5 -19,0 -32.9,8.4 -41.5,25.1 -8.7,16.6 -13,43.5 -13,80.5 z"
       id="path3820"
       inkscape:connector-curvature="0"
       style="fill:#3f403f" /><path
       d="m 571.7,265.6 -37.7,0 0,58.4 -27.6,0 0,-58.4 -123.7,0 0,-25.2 120.7,-172 30.6,0 0,170.9 37.7,0 0,26.3 z m -65.4,-26.3 0,-84.5 c 0,-16.6 0.6,-35.3 1.7,-56.2 l -1.4,0 c -5.6,11.1 -10.8,20.3 -15.6,27.6 l -79.4,113 94.7,0 z"
       id="path3822"
       inkscape:connector-curvature="0"
       style="fill:#3f403f" /></g><g
     enable-background="new    "
     id="g3824"
     transform="translate(286.95,0)"><path
       d="m 3.7,378.7 c 4.1,-4.4 12.7,-14.1 15.8,-17.5 1.4,-1.4 2.8,-2.1 4.2,-2.1 1.5,0 2.9,0.8 4.4,2.1 7,6.5 18.3,19.2 26.5,30 l -3.3,3 c -7.7,-10.9 -19,-23.9 -25.1,-29.6 -0.9,-0.9 -1.6,-1.4 -2.3,-1.4 -0.7,0 -1.4,0.6 -2.2,1.4 -2.5,2.8 -10.5,12.1 -14.1,16 0.1,0.1 0.1,0.3 0.1,0.4 0,0.4 -0.2,0.9 -0.5,1.2 l -3.5,-3.5 z m 41,-27.9 c 3.3,0 6,2.8 6,6.2 0,3.4 -2.7,6.2 -6,6.2 -3.4,0 -6.1,-2.8 -6.1,-6.2 0,-3.5 2.8,-6.2 6.1,-6.2 z M 49,357 c 0,-2.4 -1.9,-4.4 -4.2,-4.4 -2.4,0 -4.3,2 -4.3,4.4 0,2.4 2,4.4 4.3,4.4 2.4,-0.1 4.2,-2.2 4.2,-4.4 z"
       id="path3826"
       inkscape:connector-curvature="0"
       style="fill:#3f403f" /><path
       d="m 59.8,372.6 45.2,0 0,3.9 -43.2,0 c -0.3,0.6 -1,0.9 -1.7,1 l -0.3,-4.9 z"
       id="path3828"
       inkscape:connector-curvature="0"
       style="fill:#3f403f" /><path
       d="m 113.4,367.6 c 4.9,1.1 11,3.2 14.6,5 l -1.6,3.5 c -3.6,-1.8 -9.8,-4 -14.6,-5.1 l 1.6,-3.4 z m 3.3,26.9 c 17.4,-5.9 29.7,-15.6 36.9,-32.1 0.8,0.7 2.4,1.9 3.3,2.5 -7.3,16.2 -20.1,26.6 -36.5,32.5 0.2,0.5 -0.2,1.2 -0.6,1.4 l -3.1,-4.3 z m 2.7,-40.6 c 4.9,1.3 10.8,3.5 14.5,5.4 l -1.8,3.4 c -3.8,-2 -9.5,-4.2 -14.4,-5.6 l 1.7,-3.2 z m 25.4,-1.8 c 2.2,1.9 5.3,5.3 7,8 l -2.1,1.6 c -1.5,-2.4 -4.7,-6.1 -6.9,-8 l 2,-1.6 z m 7.5,-3.4 c 2.2,1.9 5.3,5.4 7,7.9 l -2.1,1.6 c -1.6,-2.4 -4.7,-5.9 -6.9,-7.9 l 2,-1.6 z"
       id="path3830"
       inkscape:connector-curvature="0"
       style="fill:#3f403f" /><path
       d="m 183.7,352.6 c -0.1,0.7 -0.8,0.9 -1.8,1 -0.6,3.1 -1.6,8.4 -2.2,11.7 2.4,-0.3 4.7,-0.5 6,-0.5 8.2,-0.1 11.1,5.5 11.1,13.7 0,4.1 -0.8,9 -1.8,12.3 -1.7,5.6 -5.2,8.3 -9.7,8.3 -2.2,0 -5.2,-0.9 -9.8,-4.8 0.6,-1 1,-2.2 1.5,-3.4 4.3,3.4 6.6,4.2 8.3,4.2 3.1,0 4.9,-2 6,-5.5 1.1,-3.4 1.7,-8.5 1.7,-11.3 -0.1,-6.3 -2.1,-10 -7.5,-10 -1.6,0 -3.8,0.2 -6.6,0.6 -2.7,11.2 -5.9,20.9 -11.1,29.7 l -3.6,-1.8 c 5.3,-8.5 8.2,-17.1 10.8,-27.5 -2.8,0.3 -6.7,0.8 -9.6,1.3 l -0.3,-3.9 c 2.7,-0.3 7.1,-0.8 10.7,-1.3 0.8,-4 1.7,-9 2.3,-13.8 l 5.6,1 z m 12.6,-1.7 c 2.6,2 5.7,5.3 7.3,7.7 l -2.1,1.5 c -1.5,-2.4 -4.8,-5.8 -7.2,-7.7 l 2,-1.5 z m 12.1,32.1 c -1.8,-7.9 -6.1,-14.6 -11.1,-18.8 l 3.1,-2.1 c 5.4,4.6 10,11.5 11.8,19.4 l -3.8,1.5 z m -3.9,-34.2 c 2.7,2 5.7,5.3 7.3,7.7 l -2.1,1.6 c -1.5,-2.4 -4.8,-5.9 -7.2,-7.7 l 2,-1.6 z"
       id="path3832"
       inkscape:connector-curvature="0"
       style="fill:#3f403f" /><path
       d="m 237.5,384.7 c -0.1,0.4 -0.5,0.7 -1.1,0.7 -1.5,7.9 -4.6,13.2 -17.4,15.9 -0.3,-0.9 -1.2,-2.5 -2,-3.2 11.7,-2.1 14.6,-6.4 15.7,-13.8 l 4.8,0.4 z m 12,10.6 c 0,1.6 0.4,1.9 2.9,1.9 l 8.6,0 c 2.3,0 2.7,-1 2.9,-8 0.8,0.7 2.4,1.3 3.4,1.5 -0.4,8 -1.5,10 -6,10 l -9.2,0 c -5,0 -6.3,-1.2 -6.3,-5.5 l 0,-12.7 -20.9,0 0,-30.5 34.5,0 0,30.7 -9.9,0 0,12.6 z m -21.1,-40.1 0,6 27.3,0 0,-6 -27.3,0 z m 0,9 0,6.1 27.3,0 0,-6.1 -27.3,0 z m 0,9.1 0,6.2 27.3,0 0,-6.2 -27.3,0 z"
       id="path3834"
       inkscape:connector-curvature="0"
       style="fill:#3f403f" /><path
       d="m 272.7,365.4 c 1.2,-0.3 3,-0.8 5.6,-1.6 9.6,-3.1 18.2,-5.3 24.1,-5.3 9.1,0 16.9,4.6 16.9,16.1 0,13.7 -13.3,18.9 -31.6,20.8 -0.2,-0.8 -0.9,-2.8 -1.4,-3.7 16.8,-1.6 28.8,-6.2 28.8,-16.9 0,-8.6 -5.9,-12.4 -13,-12.4 -7.8,0 -21.7,4.6 -26.6,6.7 0,0.6 -0.5,1.1 -1,1.3 l -1.8,-5 z"
       id="path3836"
       inkscape:connector-curvature="0"
       style="fill:#3f403f" /><path
       d="m 346.3,352.6 c -0.1,0.7 -0.8,0.9 -1.8,1 -0.6,3.1 -1.6,8.4 -2.2,11.7 2.4,-0.3 4.7,-0.5 6,-0.5 8.2,-0.1 11.1,5.5 11.1,13.7 0,4.1 -0.8,9 -1.8,12.3 -1.7,5.6 -5.2,8.3 -9.7,8.3 -2.2,0 -5.2,-0.9 -9.8,-4.8 0.6,-1 1,-2.2 1.5,-3.4 4.3,3.4 6.6,4.2 8.3,4.2 3.1,0 4.9,-2 6,-5.5 1.1,-3.4 1.7,-8.5 1.7,-11.3 -0.1,-6.3 -2.1,-10 -7.5,-10 -1.6,0 -3.8,0.2 -6.6,0.6 -2.7,11.2 -5.9,20.9 -11.1,29.7 l -3.6,-1.8 c 5.3,-8.5 8.2,-17.1 10.8,-27.5 -2.8,0.3 -6.7,0.8 -9.7,1.3 l -0.3,-3.9 c 2.7,-0.3 7.1,-0.8 10.7,-1.3 0.8,-4 1.7,-9 2.3,-13.8 l 5.7,1 z m 25.1,26.5 c -1.7,-8 -6.9,-14.9 -12.2,-18.8 l 2.9,-2.3 c 5.7,4.1 11.4,11.7 13.2,19.6 l -3.9,1.5 z"
       id="path3838"
       inkscape:connector-curvature="0"
       style="fill:#3f403f" /><path
       d="m 385,382.5 c -1,-3 -1.5,-7.3 -1.6,-10.4 0,-5.2 0.5,-11.2 1.8,-18.2 l 5.4,0.9 c -0.2,0.7 -0.9,0.9 -1.6,0.9 -1.1,4.6 -1.8,11.6 -1.8,16 0,1.2 0.1,2.2 0.2,3 1.1,-2.7 3.1,-6.4 4.2,-8.5 0.5,0.7 1.6,1.9 2.1,2.4 -4,7.3 -5.2,9.4 -5.2,11.7 0,0.4 0.1,0.9 0.2,1.4 l -3.7,0.8 z m 29,-30 c -0.1,0.7 -0.5,0.9 -1.4,1.2 0.4,4.8 0.9,12.8 0.9,19.1 -0.1,10.6 -3.8,20.2 -20.2,27.1 -0.6,-0.9 -1.9,-2.4 -2.7,-3.2 14.8,-5.7 18.8,-14.8 18.8,-23.9 0,-6.8 -0.7,-14.8 -1.2,-20.7 l 5.8,0.4 z"
       id="path3840"
       inkscape:connector-curvature="0"
       style="fill:#3f403f" /><path
       d="m 424,358.5 c 3.4,0.2 7.9,0.2 11.5,0.2 2.4,0 5.2,-0.1 7.5,-0.1 -0.1,-2.6 -0.1,-5.7 -0.1,-7.7 l 5.5,0.3 c -0.1,0.7 -0.5,1 -1.5,1.2 -0.1,0.9 0,5.1 0,6.1 6.3,-0.3 12.6,-0.9 18,-2.1 l 0.5,3.6 c -5.3,1.2 -11.6,1.8 -18.5,2.1 0.1,3.3 0.1,6.7 0.2,10.1 5.3,-0.3 10.9,-1 15.3,-2.1 l 0.4,3.6 c -4.6,1 -10.2,1.7 -15.7,1.9 l 0.4,9.2 c 5,1.7 10.3,4.5 15.9,8.6 l -2.4,3.4 c -4.9,-3.9 -9.5,-6.6 -13.4,-8.1 0,0.9 0.1,1.9 0.1,2.6 -0.1,5.2 -3.1,8.3 -9.7,8.3 -6.9,0 -11.9,-2.9 -11.9,-8 0,-5.3 5.9,-8.2 12,-8.2 1.8,0 3.7,0.2 5.7,0.7 -0.1,-2.4 -0.2,-5.2 -0.2,-8.2 -1.7,0.1 -3.7,0.1 -5.3,0.1 -9.3,0 -11.9,-1.5 -11.9,-4.7 0,-2.1 1.6,-3.8 5,-6.1 l 2.6,1.7 c -2.4,1.4 -3.7,2.6 -3.7,3.7 0,1.7 2.5,2 9.4,2 1.2,0 2.4,0 3.6,-0.1 L 443,362.3 c -2.3,0.1 -5,0.1 -7.5,0.1 -3.5,0 -8.4,0 -11.7,-0.1 l 0,-3.8 z m 20.1,28.7 c -2.2,-0.6 -4.2,-0.9 -6.1,-0.9 -4.1,0 -8.3,1.7 -8.3,5 0,3.2 3.8,4.8 8.5,4.8 4.3,0 5.9,-1.9 5.9,-5.8 l 0,-3.1 z"
       id="path3842"
       inkscape:connector-curvature="0"
       style="fill:#3f403f" /><path
       d="m 509.4,352 c 0,0.6 -0.4,0.8 -1.2,1 0.2,3.9 0.4,8.4 0.5,12.5 4.3,-0.7 8.4,-1.4 11.6,-1.9 l 0.3,3.9 c -3.3,0.3 -7.5,0.9 -11.9,1.7 0.1,5.1 -0.1,9.5 -0.6,12.2 -0.7,3.2 -3,5.1 -6.1,5.1 -2.2,0 -5.4,-0.8 -8.3,-2.4 0.3,-0.8 0.5,-2.2 0.7,-3.2 3,1.7 5.8,2.1 7.1,2.1 3.3,0 3.7,-3.2 3.5,-13.3 -6.2,1 -12.7,2.1 -17.7,3 0.1,5.2 0.2,10.2 0.4,13.3 0.7,8.4 4.7,8.9 12.5,8.9 4.4,0 10.3,-0.3 14.2,-0.8 l 0.1,3.7 c -3.8,0.4 -9.3,0.6 -13.9,0.6 -8.4,0 -15.8,-0.2 -16.7,-12.1 -0.3,-3.1 -0.4,-7.9 -0.5,-13 -3.4,0.6 -7.8,1.5 -10.6,2 l -0.6,-3.7 c 2.9,-0.4 7.4,-1.3 11.1,-1.9 -0.1,-4.8 -0.1,-10 -0.1,-14.2 l 5.4,0.5 c -0.1,0.6 -0.5,0.9 -1.4,1 -0.1,3.4 -0.1,7.8 0,11.9 l 17.6,-3 c -0.2,-4.7 -0.4,-10 -0.7,-14.5 l 5.3,0.6 z"
       id="path3844"
       inkscape:connector-curvature="0"
       style="fill:#3f403f" /><path
       d="m 525,397.3 c 4,-11.7 10.7,-31.2 12.8,-37 1,-3 2.4,-7.2 2.8,-8.5 l 5.9,1.5 c -0.3,0.8 -1,1 -2.1,1 -3,7.5 -7.6,20.4 -9.6,25.9 l 0.1,0 c 3.2,-4 8.1,-6.8 11.9,-6.8 4.7,0 7,3.2 6.8,8.4 l -0.2,6.6 c -0.1,4.1 2.1,6.4 5.6,6.4 4.9,0 9.4,-5.7 11.9,-15.1 1.1,0.8 2.4,1.5 3.5,2 -3,10.5 -8.3,17.1 -15.6,17.1 -5.7,0 -9.5,-3.5 -9.5,-9.1 0,-1 0.2,-6.1 0.2,-7.3 0,-3.5 -1.4,-5.3 -3.8,-5.3 -6.2,0 -12.5,9.2 -13.9,12.8 -0.8,1.9 -2,5.5 -3,8.6 l -3.8,-1.2 z"
       id="path3846"
       inkscape:connector-curvature="0"
       style="fill:#3f403f" /></g><g
     id="g3848"
     transform="translate(288,0)"><path
       d="m 17.6,469.5 c 0,0.4 -0.2,0.6 -0.2,1 4.2,0.8 5.8,3.4 5.8,6.2 0,3.8 -3.2,6.2 -9.2,6.8 0,-0.4 -0.4,-1 -0.6,-1.4 5,-0.4 8.2,-2.2 8.2,-5.4 l 0,-0.2 c -0.2,-2.8 -2,-4.2 -4.6,-4.6 -1,2.8 -2.8,5.2 -4.8,7 0.2,0.6 0.4,1 0.6,1.2 l -1.4,0.8 c -0.2,-0.4 -0.4,-0.8 -0.6,-1.2 -2,1.4 -3.4,1.8 -4.6,1.8 -2,0 -3,-1.4 -3,-3.2 0,-3.4 2.8,-6 6.2,-7.4 0,-1.2 0,-2.6 0,-4 -4,0 -4.4,0 -5.2,0 l 0,-1.6 c 1.2,0 3.4,0 5.4,0 0,-1.2 0,-2.4 0.2,-3.6 l 2.4,0.2 c 0,0.2 -0.2,0.4 -0.6,0.4 0,0.8 -0.2,2 -0.2,2.8 2.6,0 7.2,-0.4 9.6,-1 l 0.2,1.6 c -2.6,0.6 -7.2,0.8 -10,1 0,1.2 0,2.4 0,3.6 1.6,-0.6 3.2,-0.6 3.6,-0.6 0.4,0 0.6,0 1,0 0,-0.4 0.2,-0.8 0.2,-1.2 l 1.6,1 z m -7.4,9 C 9.8,477.1 9.6,475.1 9.6,472.9 7,474.1 5,476.1 5,478.3 c 0,1.4 0.8,1.8 1.6,1.8 1.2,0 2.4,-0.6 3.6,-1.6 z m 5,-6.8 c -0.4,0 -2.2,0 -4,0.6 0,2 0.2,3.6 0.6,5 1.4,-1.4 2.6,-3.4 3.4,-5.6 z"
       id="path3850"
       inkscape:connector-curvature="0"
       style="fill:#3f403f" /><path
       d="m 35.2,462.3 c 0,0.2 -0.4,0.4 -0.8,0.4 -0.2,1 -0.4,2.4 -0.6,3.2 2.4,-0.2 5,-0.6 7,-1.2 l 0.2,1.6 c -2.2,0.6 -4.8,1 -7.6,1.2 -1.2,4.6 -2.8,8.4 -5,11.8 l -1.6,-0.6 c 2.2,-3.2 3.8,-6.8 4.8,-11.2 l -4.8,0 0,-1.4 3,0 c 0.8,0 1.6,0 2.2,0 0.2,-1.2 0.6,-2.6 0.6,-4 l 2.6,0.2 z m 6.4,10.4 c 0,2 0.2,3.2 0.4,5 1.6,0.6 3.6,1.6 5.2,2.8 l -0.8,1.6 c -1.4,-1 -3,-2 -4.2,-2.6 0,2.4 -1,4.2 -4.4,4.2 -2.6,0 -4.8,-1.2 -4.6,-3.4 0,-2.4 2.6,-3.6 4.8,-3.6 0.8,0 1.8,0.2 2.8,0.4 0,-1.6 -0.2,-3 -0.2,-4.2 l 1,-0.2 z m -1.4,6 c -1,-0.4 -2,-0.6 -2.8,-0.6 -1.4,0 -3.2,0.6 -3.2,2 0,1.4 1.4,2 3.2,2 1.8,0 2.8,-0.8 2.8,-2.4 0.2,-0.4 0.2,-0.8 0,-1 z m 6.6,-8.6 c -2.8,0 -6,0.4 -8.4,1.2 l -0.2,-1.6 c 2.8,-0.8 6,-1.2 8.6,-1.2 0,0 0,1.6 0,1.6 z"
       id="path3852"
       inkscape:connector-curvature="0"
       style="fill:#3f403f" /><path
       d="m 64.8,466.9 c -2,0.8 -4.8,1.2 -7.4,1.4 -1,5.4 -2.4,11 -4.4,15 l -1.8,-0.6 c 2,-3.8 3.4,-8.8 4.4,-14.2 -0.4,0 -3.6,0 -4.4,0 l 0,-1.6 c 0.4,0 0.8,0 1.4,0 0.2,0 2.6,0 3.2,0 0.2,-1.6 0.4,-3.2 0.6,-4.6 l 2.4,0.2 c 0,0.2 -0.4,0.4 -0.6,0.4 -0.2,1 -0.4,2.4 -0.6,3.8 2.4,-0.2 4.8,-0.6 6.8,-1.4 l 0.4,1.6 z m 6.4,16 c -0.8,0 -1.4,0 -2.2,0 -2.2,0 -4.4,-0.2 -5.6,-0.6 -1.8,-0.4 -2.6,-1.8 -2.6,-3.4 0,-1 0.4,-2.2 1.4,-3.4 l 1.4,0.6 c -0.8,1 -1.2,2 -1.2,2.6 0,1.8 1.8,2.4 6.2,2.4 0.8,0 1.8,0 2.6,0 0,0 0,1.8 0,1.8 z m -9.4,-11.6 c 2.4,-0.8 5.8,-1.2 8.8,-1.2 l 0,1.6 c -2.8,0 -5.8,0.4 -8.2,1 l -0.6,-1.4 z"
       id="path3854"
       inkscape:connector-curvature="0"
       style="fill:#3f403f" /><path
       d="m 86.5,466.1 c 0,0.2 -0.2,0.4 -0.6,0.4 -0.8,7.4 -3.4,14 -7.4,14 -2,0 -3.8,-2 -3.8,-5.8 0,-5.8 4.4,-10.6 10.8,-10.6 7,0 10,4.4 10,9 0,5.8 -3.4,8.4 -9.2,9.8 -0.2,-0.4 -0.6,-1 -1,-1.4 5.6,-1 8.4,-3.8 8.4,-8.2 0,-4 -2.6,-7.6 -8.2,-7.6 -0.2,0 -0.6,0 -0.8,0 l 1.8,0.4 z m -2.2,-0.4 c -4.8,0.6 -7.8,4.6 -7.8,8.8 0,2.6 1.2,4.2 2.2,4.2 2.8,0 5,-6.4 5.6,-13 z"
       id="path3856"
       inkscape:connector-curvature="0"
       style="fill:#3f403f" /><path
       d="m 118.3,464.5 c 0,0 -0.2,0.2 -0.4,0.2 -1.2,3 -3.4,5.8 -5.6,7.6 -0.4,-0.4 -1,-0.8 -1.4,-1 2.2,-1.6 4,-4 4.8,-6 l -17.2,0 0,-1.6 18,0 0.2,-0.2 1.6,1 z m -9.4,4.4 c 0,0.2 -0.2,0.4 -0.6,0.4 -0.6,5.6 -2.6,11 -7.6,14 -0.4,-0.2 -1,-0.8 -1.4,-1.2 4.8,-2.6 6.6,-7.6 7.2,-13.4 l 2.4,0.2 z"
       id="path3858"
       inkscape:connector-curvature="0"
       style="fill:#3f403f" /><path
       d="m 137.3,466.9 c 0,0.2 -0.2,0.2 -0.4,0.4 -2.6,7.8 -6.4,12.8 -13,16.2 -0.2,-0.4 -0.8,-1 -1.2,-1.4 6.2,-3 10.2,-7.8 12.2,-14.2 l -8.6,0 c -1.4,2.2 -3.2,4.2 -5.4,6 -0.4,-0.4 -0.8,-0.8 -1.4,-1.2 3.2,-2.6 6,-6.2 7.6,-10.4 l 2.2,0.6 c 0,0.2 -0.4,0.4 -0.6,0.4 -0.4,1 -1,2 -1.6,3 l 8.4,0 0.4,-0.2 1.4,0.8 z"
       id="path3860"
       inkscape:connector-curvature="0"
       style="fill:#3f403f" /><path
       d="m 160.5,467.9 c 0,0.2 -0.2,0.2 -0.4,0.2 -1,2.6 -3,5.8 -5,7.8 -0.4,-0.2 -1,-0.6 -1.4,-0.8 1.8,-1.6 3.4,-4 4.2,-6 l -9.2,2.4 0,6.2 c 0,2.4 1.4,3.2 3.4,3.2 l 4,0 c 1,0 2.6,-0.2 3.6,-0.2 0,0.6 0,1.2 0,1.6 -1,0.2 -2.6,0.2 -3.6,0.2 l -4,0 c -3,0 -5,-1.4 -5,-4.8 l 0,-5.8 -6,1.6 -0.4,-1.6 6.4,-1.6 0,-7.2 2.4,0 c 0,0.2 -0.2,0.4 -0.6,0.4 l 0,6.2 10.2,-2.6 0.2,-0.2 1.2,1 z"
       id="path3862"
       inkscape:connector-curvature="0"
       style="fill:#3f403f" /><path
       d="m 179.7,464.9 c 0,0.2 -0.2,0.2 -0.4,0.2 -1.2,3 -2.8,5.6 -4.8,8.2 2.6,2 6.6,5.6 8.8,8.2 l -1.4,1.2 c -2.2,-2.4 -6,-6 -8.4,-8 -2.2,2.6 -5.8,6 -9.2,8 -0.2,-0.4 -0.8,-1 -1.2,-1.2 6.6,-3.6 11.8,-10.4 14,-15.6 l -11.8,0 0,-1.8 12.8,0 0.4,-0.2 1.2,1 z"
       id="path3864"
       inkscape:connector-curvature="0"
       style="fill:#3f403f" /><path
       d="m 191.1,462.7 c 0,0.2 -0.2,0.4 -0.8,0.6 -0.2,2.8 -0.4,9.2 -0.4,12.6 0,3.6 1.8,5.4 4.8,5.4 3,0 6,-1.4 8.6,-4.6 0.2,0.4 0.8,1.2 1,1.4 -2.8,3.2 -6.2,4.8 -9.8,4.8 -4.4,0 -6.6,-2.6 -6.6,-7 0,-3 0.2,-10.4 0.4,-13.4 l 2.8,0.2 z"
       id="path3866"
       inkscape:connector-curvature="0"
       style="fill:#3f403f" /><path
       d="m 223.8,481.9 c -2,-1.6 -4.6,-3.2 -7.2,-4 0,1 -0.2,2.2 -0.4,2.8 -0.2,2 -2,2.8 -4.2,2.8 -3,0 -5.6,-1.6 -5.6,-4 0,-2.4 2.4,-4 5.6,-4 0.8,0 2,0 2.8,0.2 0,-0.6 -0.2,-1.2 -0.2,-1.8 -0.2,-3.2 -0.4,-8.2 -0.4,-11.6 l 2.4,0.2 c 0,0.2 -0.2,0.4 -0.6,0.6 0,0.6 0,3.8 0,4.6 1.6,0 5,-0.2 8,-0.8 l 0.2,1.8 c -2.8,0.4 -6.2,0.6 -8.2,0.6 0,1.4 0,2 0.4,6.8 3,1 6,2.6 8.4,4.2 l -1,1.6 z m -11.9,-5 c -2.4,0 -4,1 -4,2.4 0,1.8 1.8,2.6 3.8,2.6 1.6,0 3,-0.6 3,-2.4 0,-0.6 0,-1.6 0,-2.2 -0.8,-0.4 -1.8,-0.4 -2.8,-0.4 z"
       id="path3868"
       inkscape:connector-curvature="0"
       style="fill:#3f403f" /><path
       d="m 228.4,470.5 c 3.6,-1 8.2,-2 10,-2 3.6,0 5.8,2 5.8,5.4 l 0,0.2 c 0,4.4 -3.4,7.6 -10.4,9.4 -0.2,-0.4 -0.8,-1 -1,-1.4 6.2,-1.4 9.6,-4.4 9.6,-8 0,-2.4 -1.2,-4 -4,-4 -2,0 -5.8,0.8 -8.6,1.8 0,0.2 -0.2,0.4 -0.4,0.6 l -1,-2 z m 3.4,-8.2 c 3.2,0.2 7,1 9.6,1.8 l -0.6,1.6 c -2.6,-0.8 -6.4,-1.6 -9.6,-2 l 0.6,-1.4 z"
       id="path3870"
       inkscape:connector-curvature="0"
       style="fill:#3f403f" /><path
       d="m 264,470.3 c 0,0 -0.2,0 0,0 -0.4,0 -0.6,0 -0.6,-0.2 -7.2,2 -13.6,5.2 -13.6,8.4 0,2.4 2.6,3 6.4,3 3.8,0 6.8,-0.2 8.4,-0.6 l 0.2,1.8 c -2.2,0.2 -5.8,0.4 -8.6,0.4 -4.8,0 -8.2,-1.2 -8.2,-4.6 0,-2.6 2.6,-4.8 6.4,-6.8 -0.8,-1.4 -1.2,-4.2 -1.2,-9.6 l 2.6,0.2 c 0,0.4 -0.2,0.6 -0.8,0.6 0,4.2 0.2,6.8 0.8,8.2 2.2,-1 4.8,-2 7.4,-2.8 l 0.8,2 z"
       id="path3872"
       inkscape:connector-curvature="0"
       style="fill:#3f403f" /><path
       d="m 272.8,462.7 c 0,0.2 -0.2,0.4 -0.8,0.6 -0.2,2.8 -0.4,9.2 -0.4,12.6 0,3.6 1.8,5.4 4.8,5.4 3,0 6,-1.4 8.6,-4.6 0.2,0.4 0.8,1.2 1,1.4 -2.8,3.2 -6.2,4.8 -9.8,4.8 -4.4,0 -6.6,-2.6 -6.6,-7 0,-3 0.2,-10.4 0.4,-13.4 l 2.8,0.2 z"
       id="path3874"
       inkscape:connector-curvature="0"
       style="fill:#3f403f" /><path
       d="m 302.6,466.9 c -2,0.8 -4.8,1.2 -7.4,1.4 -1,5.4 -2.4,11 -4.4,15 l -1.8,-0.6 c 2,-3.8 3.4,-8.8 4.4,-14.2 -0.4,0 -3.6,0 -4.4,0 l 0,-1.6 c 0.4,0 0.8,0 1.4,0 0.2,0 2.6,0 3.2,0 0.2,-1.6 0.4,-3.2 0.6,-4.6 l 2.4,0.2 c 0,0.2 -0.4,0.4 -0.6,0.4 -0.2,1 -0.4,2.4 -0.6,3.8 2.4,-0.2 4.8,-0.6 6.8,-1.4 l 0.4,1.6 z m 6.4,16 c -0.8,0 -1.4,0 -2.2,0 -2.2,0 -4.4,-0.2 -5.6,-0.6 -1.8,-0.4 -2.6,-1.8 -2.6,-3.4 0,-1 0.4,-2.2 1.4,-3.4 l 1.4,0.6 c -0.8,1 -1.2,2 -1.2,2.6 0,1.8 1.8,2.4 6.2,2.4 0.8,0 1.8,0 2.6,0 l 0,1.8 0,0 z m -9.4,-11.6 c 2.4,-0.8 5.8,-1.2 8.8,-1.2 l 0,1.6 c -2.8,0 -5.8,0.4 -8.2,1 l -0.6,-1.4 z"
       id="path3876"
       inkscape:connector-curvature="0"
       style="fill:#3f403f" /><path
       d="m 311.6,474.3 c 1.8,-2 5.6,-6.2 7,-7.6 0.6,-0.6 1.2,-1 1.8,-1 0.6,0 1.2,0.4 2,1 3,2.8 8,8.4 11.8,13 l -1.4,1.4 c -3.4,-4.8 -8.4,-10.4 -11.2,-13 -0.4,-0.4 -0.8,-0.6 -1,-0.6 -0.4,0 -0.6,0.2 -1,0.6 -1.2,1.2 -4.6,5.2 -6.2,7 l 0,0.2 c 0,0.2 0,0.4 -0.2,0.6 l -1.6,-1.6 z m 18.2,-12.2 c 1.4,0 2.6,1.2 2.6,2.6 0,1.4 -1.2,2.6 -2.6,2.6 -1.6,0 -2.8,-1.2 -2.8,-2.6 0.2,-1.4 1.4,-2.6 2.8,-2.6 z m 2,2.6 c 0,-1 -0.8,-2 -1.8,-2 -1,0 -2,0.8 -2,2 0,1 0.8,1.8 2,1.8 1,0.2 1.8,-0.8 1.8,-1.8 z"
       id="path3878"
       inkscape:connector-curvature="0"
       style="fill:#3f403f" /><path
       d="m 336.4,471.5 20,0 0,1.8 -19.2,0 c -0.2,0.2 -0.4,0.4 -0.8,0.4 l 0,-2.2 z"
       id="path3880"
       inkscape:connector-curvature="0"
       style="fill:#3f403f" /><path
       d="m 360.3,469.3 c 2.2,0.4 4.8,1.4 6.4,2.2 l -0.8,1.6 c -1.6,-0.8 -4.4,-1.8 -6.4,-2.2 l 0.8,-1.6 z m 1.4,11.8 c 7.6,-2.6 13.2,-6.8 16.4,-14 0.4,0.4 1,0.8 1.4,1 -3.2,7 -8.8,11.6 -16.2,14.2 0,0.2 0,0.6 -0.2,0.6 l -1.4,-1.8 z m 1.2,-17.6 c 2.2,0.6 4.8,1.6 6.4,2.4 l -0.8,1.4 c -1.8,-0.8 -4.2,-1.8 -6.4,-2.4 l 0.8,-1.4 z m 11.4,-0.8 c 1,0.8 2.4,2.4 3,3.4 l -1,0.6 c -0.6,-1 -2,-2.6 -3,-3.6 l 1,-0.4 z m 3.2,-1.6 c 1,0.8 2.4,2.4 3.2,3.4 l -1,0.6 c -0.8,-1 -2,-2.6 -3,-3.4 l 0.8,-0.6 z"
       id="path3882"
       inkscape:connector-curvature="0"
       style="fill:#3f403f" /><path
       d="m 391.5,462.9 c 0,0.2 -0.4,0.4 -0.8,0.4 -0.2,1.4 -0.6,3.6 -1,5.2 1,-0.2 2,-0.2 2.6,-0.2 3.6,0 4.8,2.4 4.8,6 0,1.8 -0.4,4 -0.8,5.4 -0.8,2.4 -2.2,3.6 -4.2,3.6 -1,0 -2.2,-0.4 -4.4,-2 0.2,-0.4 0.4,-1 0.6,-1.4 2,1.4 3,1.8 3.6,1.8 1.4,0 2.2,-0.8 2.6,-2.4 0.6,-1.4 0.8,-3.6 0.8,-5 0,-2.8 -1,-4.4 -3.4,-4.4 -0.8,0 -1.8,0 -3,0.2 -1.2,4.8 -2.6,9 -5,13 l -1.6,-0.8 c 2.4,-3.8 3.6,-7.4 4.8,-12 -1.2,0.2 -3,0.4 -4.2,0.6 l -0.2,-1.6 c 1.2,-0.2 3.2,-0.4 4.8,-0.6 0.4,-1.8 0.8,-4 1,-6 l 3,0.2 z m 5.6,-0.8 c 1.2,0.8 2.6,2.4 3.2,3.4 l -1,0.6 c -0.6,-1 -2.2,-2.6 -3.2,-3.4 l 1,-0.6 z m 5.2,14 c -0.8,-3.4 -2.6,-6.4 -4.8,-8.2 l 1.4,-1 c 2.4,2 4.4,5 5.2,8.4 l -1.8,0.8 z m -1.6,-15 c 1.2,0.8 2.6,2.4 3.2,3.4 l -1,0.6 c -0.6,-1 -2.2,-2.6 -3.2,-3.4 l 1,-0.6 z"
       id="path3884"
       inkscape:connector-curvature="0"
       style="fill:#3f403f" /><path
       d="m 415.3,476.9 c 0,0.2 -0.2,0.2 -0.6,0.4 -0.6,3.4 -2,5.8 -7.6,7 -0.2,-0.4 -0.6,-1 -0.8,-1.4 5.2,-1 6.4,-2.8 7,-6 l 2,0 z m 5.2,4.6 c 0,0.6 0.2,0.8 1.2,0.8 l 3.8,0 c 1,0 1.2,-0.4 1.2,-3.4 0.4,0.2 1,0.6 1.4,0.6 -0.2,3.4 -0.6,4.4 -2.6,4.4 l -4,0 c -2.2,0 -2.8,-0.6 -2.8,-2.4 l 0,-5.6 -9.2,0 0,-13.4 15.2,0 0,13.4 -4.4,0 0,5.6 0.2,0 z m -9.2,-17.6 0,2.6 12,0 0,-2.6 -12,0 z m 0,4 0,2.6 12,0 0,-2.6 -12,0 z m 0,4 0,2.6 12,0 0,-2.6 -12,0 z"
       id="path3886"
       inkscape:connector-curvature="0"
       style="fill:#3f403f" /><path
       d="m 430.9,468.5 c 0.6,-0.2 1.4,-0.4 2.4,-0.6 4.2,-1.4 8,-2.4 10.6,-2.4 4,0 7.4,2 7.4,7 0,6 -5.8,8.2 -14,9 0,-0.4 -0.4,-1.2 -0.6,-1.6 7.4,-0.6 12.8,-2.8 12.8,-7.4 0,-3.8 -2.6,-5.4 -5.8,-5.4 -3.4,0 -9.6,2 -11.8,3 0,0.2 -0.2,0.4 -0.4,0.6 l -0.6,-2.2 z"
       id="path3888"
       inkscape:connector-curvature="0"
       style="fill:#3f403f" /><path
       d="m 463.5,462.9 c 0,0.2 -0.4,0.4 -0.8,0.4 -0.2,1.4 -0.6,3.6 -1,5.2 1,-0.2 2,-0.2 2.6,-0.2 3.6,0 4.8,2.4 4.8,6 0,1.8 -0.4,4 -0.8,5.4 -0.8,2.4 -2.2,3.6 -4.2,3.6 -1,0 -2.2,-0.4 -4.4,-2 0.2,-0.4 0.4,-1 0.6,-1.4 2,1.4 3,1.8 3.6,1.8 1.4,0 2.2,-0.8 2.6,-2.4 0.6,-1.4 0.8,-3.6 0.8,-5 0,-2.8 -1,-4.4 -3.4,-4.4 -0.8,0 -1.8,0 -3,0.2 -1.2,4.8 -2.6,9 -5,13 l -1.6,-0.8 c 2.4,-3.8 3.6,-7.4 4.8,-12 -1.2,0.2 -3,0.4 -4.2,0.6 l -0.2,-1.6 c 1.2,-0.2 3.2,-0.4 4.8,-0.6 0.4,-1.8 0.8,-4 1,-6 l 3,0.2 z m 11,11.4 c -0.8,-3.6 -3,-6.4 -5.4,-8.2 l 1.2,-1 c 2.6,1.8 5,5.2 5.8,8.6 l -1.6,0.6 z"
       id="path3890"
       inkscape:connector-curvature="0"
       style="fill:#3f403f" /><path
       d="m 480.5,475.9 c -0.4,-1.2 -0.6,-3.2 -0.6,-4.6 0,-2.2 0.2,-4.8 0.8,-8 l 2.4,0.4 c 0,0.4 -0.4,0.4 -0.6,0.4 -0.4,2 -0.8,5 -0.8,7 0,0.6 0,1 0,1.2 0.4,-1.2 1.4,-2.8 1.8,-3.8 0.2,0.4 0.6,0.8 1,1 -1.8,3.2 -2.4,4.2 -2.4,5.2 0,0.2 0,0.4 0,0.6 l -1.6,0.6 z m 13,-13 c 0,0.2 -0.2,0.4 -0.6,0.6 0.2,2 0.4,5.6 0.4,8.4 0,4.6 -1.8,8.8 -9,11.8 -0.2,-0.4 -0.8,-1 -1.2,-1.4 6.6,-2.4 8.2,-6.4 8.2,-10.4 0,-3 -0.2,-6.4 -0.6,-9 l 2.8,0 z"
       id="path3892"
       inkscape:connector-curvature="0"
       style="fill:#3f403f" /><path
       d="m 497.9,465.5 c 1.4,0 3.4,0 5.2,0 1,0 2.4,0 3.4,0 0,-1.2 0,-2.4 0,-3.4 l 2.4,0.2 c 0,0.2 -0.2,0.4 -0.6,0.6 0,0.4 0,2.2 0,2.6 2.8,-0.2 5.6,-0.4 8,-1 l 0.2,1.6 c -2.4,0.6 -5.2,0.8 -8.2,1 0,1.4 0,3 0,4.4 2.4,-0.2 4.8,-0.4 6.8,-1 l 0.2,1.6 c -2,0.4 -4.6,0.8 -7,0.8 l 0.2,4 c 2.2,0.8 4.6,2 7,3.8 l -1,1.4 c -2.2,-1.8 -4.2,-2.8 -6,-3.6 0,0.4 0,0.8 0,1.2 0,2.2 -1.4,3.6 -4.2,3.6 -3,0 -5.2,-1.2 -5.2,-3.6 0,-2.4 2.6,-3.6 5.4,-3.6 0.8,0 1.6,0 2.6,0.2 0,-1 0,-2.2 0,-3.6 -0.8,0 -1.6,0 -2.4,0 -4.2,0 -5.2,-0.6 -5.2,-2 0,-1 0.6,-1.6 2.2,-2.6 l 1.2,0.8 c -1,0.6 -1.6,1.2 -1.6,1.6 0,0.8 1.2,0.8 4.2,0.8 0.6,0 1,0 1.6,0 l -0.2,-4.4 c -1,0 -2.2,0 -3.4,0 -1.6,0 -3.8,0 -5.2,0 l 0,-1.4 -0.4,0 z m 8.9,12.4 c -1,-0.2 -1.8,-0.4 -2.6,-0.4 -1.8,0 -3.6,0.8 -3.6,2.2 0,1.4 1.6,2.2 3.8,2.2 1.8,0 2.6,-0.8 2.6,-2.6 l -0.2,-1.4 z"
       id="path3894"
       inkscape:connector-curvature="0"
       style="fill:#3f403f" /><path
       d="m 535.8,462.5 c 0,0.2 -0.2,0.4 -0.6,0.4 0,1.6 0.2,3.6 0.2,5.4 1.8,-0.4 3.8,-0.6 5.2,-0.8 l 0.2,1.6 c -1.4,0.2 -3.4,0.4 -5.2,0.8 0,2.2 0,4.2 -0.2,5.4 -0.2,1.4 -1.4,2.2 -2.6,2.2 -1,0 -2.4,-0.4 -3.6,-1 0.2,-0.4 0.2,-1 0.2,-1.4 1.4,0.8 2.6,1 3.2,1 1.4,0 1.6,-1.4 1.6,-5.8 -2.8,0.4 -5.6,1 -7.8,1.4 0,2.2 0,4.4 0.2,5.8 0.2,3.6 2,3.8 5.6,3.8 2,0 4.6,-0.2 6.2,-0.4 l 0,1.6 c -1.8,0.2 -4.2,0.2 -6.2,0.2 -3.8,0 -7,0 -7.4,-5.2 -0.2,-1.4 -0.2,-3.4 -0.2,-5.6 -1.4,0.2 -3.4,0.6 -4.6,0.8 l -0.2,-1.6 c 1.2,-0.2 3.2,-0.6 5,-0.8 0,-2 0,-4.4 0,-6.2 l 2.4,0.2 c 0,0.2 -0.2,0.4 -0.6,0.4 0,1.4 0,3.4 0,5.2 l 7.8,-1.2 c 0,-2 -0.2,-4.4 -0.4,-6.4 l 1.8,0.2 z"
       id="path3896"
       inkscape:connector-curvature="0"
       style="fill:#3f403f" /><path
       d="m 542.6,482.3 c 1.8,-5 4.8,-13.6 5.6,-16.2 0.4,-1.2 1,-3.2 1.2,-3.8 l 2.6,0.6 c -0.2,0.4 -0.4,0.4 -1,0.4 -1.4,3.2 -3.4,8.8 -4.2,11.2 l 0,0 c 1.4,-1.8 3.6,-3 5.2,-3 2,0 3,1.4 3,3.6 l 0,2.8 c 0,1.8 1,2.8 2.4,2.8 2.2,0 4.2,-2.4 5.2,-6.6 0.4,0.4 1,0.6 1.6,0.8 -1.4,4.6 -3.6,7.4 -6.8,7.4 -2.6,0 -4.2,-1.6 -4.2,-4 0,-0.4 0,-2.6 0,-3.2 0,-1.6 -0.6,-2.4 -1.6,-2.4 -2.8,0 -5.6,4 -6.2,5.6 -0.4,0.8 -0.8,2.4 -1.4,3.8 l -1.4,0.2 z"
       id="path3898"
       inkscape:connector-curvature="0"
       style="fill:#3f403f" /><path
       d="m 572.8,480.7 c 0,1.8 -1.6,3.4 -3.4,3.4 -1.8,0 -3.4,-1.6 -3.4,-3.4 0,-1.8 1.6,-3.4 3.4,-3.4 2,0 3.4,1.6 3.4,3.4 z m -0.8,0 c 0,-1.4 -1.2,-2.4 -2.4,-2.4 -1.4,0 -2.4,1.2 -2.4,2.4 0,1.4 1.2,2.4 2.4,2.4 1.2,0 2.4,-1.2 2.4,-2.4 z"
       id="path3900"
       inkscape:connector-curvature="0"
       style="fill:#3f403f" /></g></svg>