<svg version="1" xmlns="http://www.w3.org/2000/svg" width="28" height="28" viewBox="0 0 28 28"><path fill="#d1e8ff" d="M7 10h14.001c.552 0 .998-.448.998-1s-.446-1-.998-1h-14.001c-.552 0-1 .448-1 1s.448 1 1 1zM21.001 18h-14.001c-.552.008-.994.462-.985 1.014.003.257.105.503.285.686.18.195.435.303.7.3h14.001c.271.002.529-.107.72-.3.386-.395.379-1.028-.015-1.414-.189-.184-.443-.288-.705-.286zM21.001 13h-14.001c-.552 0-1 .448-1 1 0 .553.448 1 1 1h14.001c.552 0 .998-.447.998-1 0-.552-.446-1-.998-1z"/></svg>