<svg version="1" xmlns="http://www.w3.org/2000/svg" width="28" height="28" viewBox="0 0 28 28"><path fill="#d1e8ff" d="M18.987 8.034c.269-.014.53.088.718.28.188.192.286.451.279.718v11.971c.002.259-.098.509-.279.698-.183.2-.445.311-.718.298h-9.974c-.551 0-.998-.445-.998-.996v-11.971c-.001-.271.107-.53.3-.718.188-.181.438-.281.698-.28h2.095c.17-.533.633-.92 1.188-.997.165-.311.409-.573.707-.758.299-.187.645-.283.997-.279.351.003.695.1.997.279.295.174.538.422.709.718.266.039.515.153.719.33.211.173.364.406.438.668l2.124.039zm0 .998h-2.104l-.12.299-.189.29c-.188.257-.489.41-.809.409h-3.561c-.309-.009-.596-.16-.778-.409-.089-.083-.164-.181-.219-.29l-.12-.299h-2.074v11.971h9.975v-11.971zm-7.481 2.992c.24-.036.463.13.499.369v.13c.001.126-.049.249-.14.339-.087.106-.221.166-.359.159-.135.005-.265-.054-.349-.159-.094-.089-.147-.211-.149-.339-.034-.24.133-.463.372-.497l.106-.002h.02zm0 1.996c.24-.036.463.129.499.369v.13c.001.127-.049.25-.14.339-.087.106-.221.167-.359.16-.135.004-.265-.056-.349-.16-.094-.088-.147-.21-.149-.339-.034-.24.133-.463.372-.497l.106-.002h.02zm0 1.996c.24-.036.463.129.499.368v.129c.001.129-.049.251-.14.341-.087.104-.221.165-.359.158-.135.005-.265-.054-.349-.158-.094-.09-.147-.212-.149-.341-.034-.238.133-.461.372-.496l.106-.001h.02zm.998-7.982c-.24-.036-.464.13-.5.37v.129c.002.129.057.251.15.34.085.105.214.165.35.16h2.992c.138.006.271-.053.358-.16.091-.09.142-.212.142-.34.034-.239-.132-.462-.37-.499h-.629c.013-.284-.095-.56-.299-.758-.188-.192-.45-.294-.718-.28-.261-.001-.511.099-.698.28-.193.188-.302.448-.3.718l-.478.04zm3.99 3.99c.239-.036.463.13.497.369v.13c.003.126-.049.249-.138.339-.088.106-.221.166-.359.159h-2.993c-.131 0-.255-.059-.339-.159-.096-.088-.154-.209-.16-.339-.001-.138.057-.269.16-.359.092-.087.212-.137.339-.14h2.993zm0 1.996c.239-.036.463.129.497.369v.13c.003.127-.049.25-.138.339-.088.106-.221.167-.359.16h-2.993c-.131-.002-.255-.06-.339-.16-.096-.087-.154-.209-.16-.339-.001-.138.057-.269.16-.359.092-.087.212-.137.339-.14h2.993zm0 1.996c.239-.036.463.129.497.368v.129c.003.129-.049.251-.138.341-.088.104-.221.165-.359.158h-2.993c-.131 0-.255-.059-.339-.158-.096-.088-.154-.211-.16-.341-.001-.136.057-.268.16-.358.092-.086.212-.136.339-.139h2.993z"/></svg>