<svg version="1" xmlns="http://www.w3.org/2000/svg" width="28" height="28" viewBox="0 0 28 28"><path fill="#d1e8ff" d="M20.409 11.8c-.598-.601-1.269-1.122-1.999-1.55-.68-.412-1.413-.728-2.181-.94-.725-.201-1.476-.305-2.229-.31-.76 0-1.518.104-2.25.31-.768.216-1.504.532-2.189.94-.732.43-1.405.954-2 1.56-.612.661-1.136 1.397-1.561 2.19.798 1.556 2.018 2.854 3.521 3.75 1.35.819 2.899 1.251 4.479 1.25.768-.001 1.53-.106 2.27-.31.771-.229 1.506-.565 2.181-1 .731-.436 1.403-.965 2.001-1.57.601-.64 1.121-1.353 1.548-2.12-.428-.802-.963-1.542-1.591-2.2zm-2.57 5.12c-2.378 1.426-5.35 1.426-7.729 0-1.208-.716-2.221-1.72-2.95-2.92.741-1.214 1.772-2.224 3-2.94 1.161-.691 2.488-1.058 3.84-1.06 1.364-.004 2.704.358 3.88 1.05 1.229.706 2.262 1.71 3.001 2.92-.762 1.213-1.806 2.226-3.042 2.95zM14 11c-1.657.001-2.999 1.345-2.998 3.003.001.794.316 1.556.878 2.117 1.129 1.211 3.027 1.278 4.24.149 1.211-1.128 1.278-3.028.149-4.24l-.149-.149c-.552-.577-1.322-.896-2.12-.88zm1.78 2.31c-.146.15-.351.23-.561.22-.413 0-.75-.335-.75-.75-.011-.21.07-.414.219-.56.137-.146.33-.227.53-.22.414-.017.764.305.781.719v.061c.007.2-.072.393-.219.53z"/></svg>