<?xml version="1.0" encoding="utf-8"?>
<!-- Generator: Adobe Illustrator 16.0.4, SVG Export Plug-In . SVG Version: 6.00 Build 0)  -->
<!DOCTYPE svg PUBLIC "-//W3C//DTD SVG 1.0//EN" "http://www.w3.org/TR/2001/REC-SVG-20010904/DTD/svg10.dtd">
<svg version="1.0" id="Ebene_1" xmlns="http://www.w3.org/2000/svg" xmlns:xlink="http://www.w3.org/1999/xlink" x="0px" y="0px"
	 width="30px" height="20px" viewBox="0 0 30 20" enable-background="new 0 0 30 20" xml:space="preserve">
<path fill="#555555" d="M21.043,14.566l-2.465-2.465c0.59-0.878,0.934-1.934,0.934-3.069c0-3.042-2.465-5.506-5.505-5.506
	c-3.042,0-5.506,2.465-5.506,5.506c0,3.04,2.465,5.505,5.506,5.505c1.168,0,2.251-0.365,3.143-0.986l2.455,2.454
	c0.525,0.525,1.193,0.627,1.644,0.207C21.646,15.816,21.569,15.092,21.043,14.566z M10.502,9.033c0-1.936,1.569-3.504,3.504-3.504
	c1.934,0,3.502,1.568,3.502,3.504c0,1.934-1.568,3.502-3.502,3.502C12.071,12.535,10.502,10.967,10.502,9.033z"/>
</svg>
