<?xml version="1.0" encoding="utf-8"?>
<!-- Generator: Adobe Illustrator 16.0.4, SVG Export Plug-In . SVG Version: 6.00 Build 0)  -->
<!DOCTYPE svg PUBLIC "-//W3C//DTD SVG 1.1//EN" "http://www.w3.org/Graphics/SVG/1.1/DTD/svg11.dtd">
<svg version="1.1" id="Layer_1" xmlns="http://www.w3.org/2000/svg" xmlns:xlink="http://www.w3.org/1999/xlink" x="0px" y="0px"
	 width="56.45px" height="56.451px" viewBox="0 0 56.45 56.451" enable-background="new 0 0 56.45 56.451" xml:space="preserve">
<g>
	<path fill="#FFFFFF" d="M5.283,28.225c0-12.67,10.271-22.941,22.941-22.941c6.335,0,12.07,2.567,16.223,6.719l3.736-3.736
		c-11.021-11.021-28.895-11.021-39.916,0c-11.022,11.022-11.022,28.894,0,39.917l3.736-3.735C7.851,40.295,5.283,34.56,5.283,28.225
		z"/>
	<path fill="#E0E4E4" d="M48.183,8.266l-3.736,3.736c4.152,4.152,6.721,9.887,6.721,16.223c0,12.67-10.273,22.942-22.944,22.942
		c-6.335,0-12.07-2.568-16.222-6.72l-3.736,3.735c11.022,11.022,28.896,11.023,39.918,0.001
		C59.206,37.163,59.206,19.289,48.183,8.266z"/>
</g>
<path fill="#79797A" d="M30.131,28.463c0.141-1.026-0.576-1.966-1.6-2.107c-1.021-0.141-1.964,0.572-2.105,1.598
	c-0.141,1.023,0.574,1.967,1.596,2.107C29.046,30.202,29.99,29.486,30.131,28.463z"/>
<path opacity="0.05" fill="#010202" d="M28.022,30.061c1.024,0.141,1.968-0.575,2.109-1.598c0.141-1.026-0.576-1.966-1.6-2.107"/>
<g>
	<polyline fill="#09537C" points="43.103,14.137 33.746,35.012 13.453,44.559 	"/>
</g>
<g>
	<polygon fill="#FDD200" points="43.103,12.972 33.359,33.373 13.453,43.445 23.197,23.043 	"/>
</g>
<g opacity="0.7">
	<polyline fill="#D79503" points="43.103,12.972 33.359,33.373 13.453,43.445 	"/>
</g>
<path fill="#459BD6" d="M30.227,28.476c-0.148,1.076-1.139,1.827-2.216,1.68l0,0c-1.077-0.147-1.829-1.139-1.681-2.215l0,0
	c0.148-1.076,1.139-1.828,2.216-1.681l0,0C29.623,26.409,30.375,27.4,30.227,28.476L30.227,28.476z"/>
</svg>
