<svg version="1" xmlns="http://www.w3.org/2000/svg" width="28" height="28" viewBox="0 0 28 28"><path fill="#d1e3ff" d="M19 6h2.001c.552 0 .998.448.998 1v2c0 .552-.446 1-.998 1h-2.001c-.553 0-1-.448-1-1v-2c0-.552.447-1 1-1zM19 12h2.001c.552 0 .998.448.998 1v2c0 .552-.446 1.001-.998 1.001h-2.001c-.553 0-1-.449-1-1.001v-2c0-.552.447-1 1-1zM19 18h2.001c.552 0 .998.447.998 1v2.001c0 .552-.446.998-.998.998h-2.001c-.553 0-1-.446-1-.998v-2.001c0-.553.447-1 1-1zM13 18h2c.552 0 1.001.447 1.001 1v2.001c0 .552-.449.998-1.001.998h-2c-.552 0-1-.446-1-.998v-2.001c0-.553.448-1 1-1zM7 18h2c.552 0 1 .447 1 1v2.001c0 .552-.448.998-1 .998h-2c-.552 0-1-.446-1-.998v-2.001c0-.553.448-1 1-1zM7 12h2c.552 0 1 .448 1 1v2c0 .552-.448 1.001-1 1.001h-2c-.552 0-1-.449-1-1.001v-2c0-.552.448-1 1-1zM7 6h2c.552 0 1 .448 1 1v2c0 .552-.448 1-1 1h-2c-.552 0-1-.448-1-1v-2c0-.552.448-1 1-1zM13 6h2c.552 0 1.001.448 1.001 1v2c0 .552-.449 1-1.001 1h-2c-.552 0-1-.448-1-1v-2c0-.552.448-1 1-1zM13 12h2c.552 0 1.001.448 1.001 1v2c0 .552-.449 1.001-1.001 1.001h-2c-.552 0-1-.449-1-1.001v-2c0-.552.448-1 1-1z"/></svg>