<svg xmlns="http://www.w3.org/2000/svg" width="55.159" height="47.322" viewBox="0 0 55.159 47.322"><g><path stroke="#ffbd00" stroke-width="1.3" stroke-linecap="round" stroke-linejoin="round" stroke-miterlimit="10" d="M38.64 45.862v-4.17c0-1.186-.659-2.147-1.475-2.147h-1.721s-3.318-3.511-7.863-3.511c-4.547 0-6.76 3.511-7.865 3.511h-1.721c-.813 0-1.475.961-1.475 2.147v4.98" fill="none"/><g fill="#ffbd00"><circle cx="25.569" cy="6.397" r=".665"/><circle cx="25.569" cy="8.502" r=".665"/><circle cx="31.668" cy="6.397" r=".665"/><circle cx="31.668" cy="8.502" r=".665"/><circle cx="23.491" cy="6.397" r=".666"/><circle cx="23.491" cy="8.502" r=".666"/><circle cx="29.592" cy="6.397" r=".665"/><circle cx="29.592" cy="8.502" r=".665"/></g><path stroke="#ffbd00" stroke-width="1.3" stroke-linecap="round" stroke-linejoin="round" stroke-miterlimit="10" d="M12.771 22.556c.038-.045 3.89-4.541 14.808-4.573 10.92.032 14.771 4.528 14.809 4.573" fill="none"/><g stroke="#ffbd00" stroke-width="1.3" stroke-linecap="round" stroke-linejoin="round" stroke-miterlimit="10" fill="none"><path d="M36.731 9.461h2.141s4.773-2.222 9.562.783c4.062 2.549 4.819 4.782 4.819 4.782s-3.365 4.517-10.865 7.53c0 0 .242 8.335-7.176 12.451v4.495M19.946 39.501v-4.495c-7.416-4.116-7.175-12.451-7.175-12.451-7.499-3.013-10.863-7.53-10.863-7.53s.755-2.233 4.819-4.782c4.787-3.005 9.561-.783 9.561-.783h2.194"/></g><g stroke="#ffbd00" stroke-width="1.3" stroke-linecap="round" stroke-linejoin="round" stroke-miterlimit="10" fill="none"><path d="M42.314 24.054c.834.421 1.776.658 2.774.658 3.406 0 6.17-2.762 6.17-6.171 0-.413-.041-.817-.117-1.207l-.018-.083"/><path d="M49.614 22.725c-1.125 1.219-2.734 1.987-4.525 1.987-.198 0-.393-.016-.586-.035-.335 1.423-1.424 6.821-.496 13.816l6.205-.482s.497 2.695 4.297 2.213c0 .001-.003-10.224-4.895-17.499zM12.847 24.054c-.836.421-1.777.658-2.775.658-3.408 0-6.17-2.762-6.17-6.171 0-.413.041-.817.119-1.207l.016-.083"/><path d="M5.544 22.725c1.127 1.219 2.735 1.987 4.527 1.987.198 0 .393-.016.586-.035.336 1.423 1.423 6.821.495 13.816l-6.206-.482s-.496 2.695-4.296 2.213c0 .001.004-10.224 4.894-17.499zM45.52 38.376l-.279.099-1.149 3.598c-.219.686.158 1.417.846 1.636.684.219 1.417-.159 1.635-.844l.729-2.28 1.812-.645 1.104 1.575-.727 2.281c-.221.685.157 1.418.844 1.637.686.218 1.416-.159 1.636-.845l1.149-3.598-.578-.826M9.679 38.376l.281.099 1.149 3.598c.218.686-.159 1.417-.845 1.636s-1.418-.159-1.637-.844l-.729-2.28-1.811-.645-1.103 1.575.728 2.281c.219.685-.16 1.418-.845 1.637-.685.218-1.418-.159-1.636-.845l-1.148-3.598.576-.826"/></g><path stroke="#ffbd00" stroke-width="1.3" stroke-linecap="round" stroke-linejoin="round" stroke-miterlimit="10" d="M36.259 10.917c-.201.211-.584.425-1.121.624-1.514.562-4.247 1.013-7.494 1.013-3.274 0-6.126-.511-7.646-1.069-.52-.19-.883-.386-1.055-.568-.676-.716-.943-5.675 0-6.676.289-.308.834-.588 1.564-.827 1.643-.538 4.225-.872 6.957-.872 2.911 0 5.895.482 7.566 1.06.596.206 1.027.425 1.229.638.762.811.762 5.865 0 6.677zM27.382 2.544l.082-.002c2.732 0 5.513.427 7.229.956-1.271-2.243-4.192-2.848-7.107-2.848h-.019c-2.852 0-5.706.584-7.018 2.709 1.648-.505 4.135-.817 6.769-.817l.064.002zM27.644 12.553l-.068-.001-.076.001c-3.164 0-5.922-.479-7.476-1.013.114 1.113.269 1.599.444 1.812.343.415 3.301 1.227 7.109 1.227 3.807 0 6.766-.812 7.108-1.227.177-.214.326-.703.444-1.811-1.513.563-4.244 1.012-7.485 1.012zM27.632 20.72v10.784M29.733 23.018s-.693-.793-2.104-.793-2.244.774-2.244 2.005 1.152 1.688 2.244 1.847c1.092.158 2.422.376 2.422 1.926 0 1.55-1.469 2.026-2.422 2.026-.955 0-1.789-.337-2.521-1.053" fill="none"/></g></svg>