<svg xmlns="http://www.w3.org/2000/svg" width="46.396" height="41.735" viewBox="0 0 46.396 41.735"><g stroke="#ffbd00" stroke-linecap="round" stroke-linejoin="round" stroke-miterlimit="10" fill="none"><path d="M7.993 32.923l1.375 2.712 3.014.405-2.154 2.146.545 2.991-2.706-1.386-2.676 1.444.481-3.003-2.2-2.098 3.005-.47zM23.235 32.923l1.375 2.712 3.014.405-2.154 2.146.546 2.991-2.706-1.386-2.677 1.444.481-3.003-2.2-2.098 3.005-.47zM38.477 32.923l1.376 2.712 3.013.405-2.154 2.146.546 2.991-2.706-1.386-2.677 1.444.481-3.003-2.2-2.098 3.005-.47z"/><path stroke-width="1.3" d="M23.259.65l10.145 13.587 12.342-7.238-2.936 19.867s-7.63 1.235-19.56 1.235c-11.927 0-19.554-1.235-19.554-1.235l-3.046-19.867 12.564 7.238 10.045-13.587z"/></g></svg>