<svg xmlns="http://www.w3.org/2000/svg" width="52.016" height="40.279" viewBox="0 0 52.016 40.279"><g stroke="#ffbd00" stroke-width="1.3" stroke-linecap="round" stroke-linejoin="round" stroke-miterlimit="10" fill="none"><path d="M51.365 7.79l-13.881 8.14-11.408-15.28-11.296 15.28-14.131-8.14 3.425 22.344s4.612.743 12.34 1.142c-.062-.44-.104-.886-.104-1.343 0-5.354 4.344-9.696 9.696-9.696 5.356 0 9.696 4.342 9.696 9.696 0 .459-.043.907-.104 1.349 7.803-.397 12.464-1.148 12.464-1.148l3.303-22.344zM16.414 31.275c.655 4.719 4.696 8.354 9.593 8.354s8.934-3.632 9.592-8.348M28.172 26.845s-.654-.786-2.134-.786-2.289.833-2.289 1.961c0 1.131.622 1.644 2.289 1.913 1.665.271 2.462.554 2.462 2.017s-1.328 1.888-2.462 1.888-1.909-.401-2.522-1.042M26.038 24.239v11.389"/></g></svg>