<?xml version="1.0" encoding="UTF-8" standalone="no"?>
<svg width="16px" height="16px" viewBox="0 0 16 16" version="1.1" xmlns="http://www.w3.org/2000/svg" xmlns:xlink="http://www.w3.org/1999/xlink">
    <!-- Generator: Sketch 42 (36781) - http://www.bohemiancoding.com/sketch -->
    <title>Icon/Grid</title>
    <desc>Created with Sketch.</desc>
    <defs></defs>
    <g id="Symbols" stroke="none" stroke-width="1" fill="none" fill-rule="evenodd">
        <g id="Icon/Grid" fill="#8592A2">
            <path d="M10,12.0002 L12,12.0002 L12,10.0002 L10,10.0002 L10,12.0002 Z M10,9.0002 L12,9.0002 L12,7.0002 L10,7.0002 L10,9.0002 Z M14,13.0002 C14,13.5522 13.552,14.0002 13,14.0002 L3,14.0002 C2.448,14.0002 2,13.5522 2,13.0002 L2,3.0002 C2,2.4482 2.448,2.0002 3,2.0002 L13,2.0002 C13.552,2.0002 14,2.4482 14,3.0002 L14,13.0002 Z M13,0.0002 L3,0.0002 C1.343,0.0002 0,1.3432 0,3.0002 L0,13.0002 C0,14.6572 1.343,16.0002 3,16.0002 L13,16.0002 C14.657,16.0002 16,14.6572 16,13.0002 L16,3.0002 C16,1.3432 14.657,0.0002 13,0.0002 L13,0.0002 Z M7,6.0002 L9,6.0002 L9,4.0002 L7,4.0002 L7,6.0002 Z M10,6.0002 L12,6.0002 L12,4.0002 L10,4.0002 L10,6.0002 Z M4,9.0002 L6,9.0002 L6,7.0002 L4,7.0002 L4,9.0002 Z M7,9.0002 L9,9.0002 L9,7.0002 L7,7.0002 L7,9.0002 Z M7,12.0002 L9,12.0002 L9,10.0002 L7,10.0002 L7,12.0002 Z M4,6.0002 L6,6.0002 L6,4.0002 L4,4.0002 L4,6.0002 Z M4,12.0002 L6,12.0002 L6,10.0002 L4,10.0002 L4,12.0002 Z" id="Page-1"></path>
        </g>
    </g>
</svg>