<?xml version="1.0" encoding="UTF-8" standalone="no"?>
<svg width="16px" height="16px" viewBox="0 0 16 16" version="1.1" xmlns="http://www.w3.org/2000/svg" xmlns:xlink="http://www.w3.org/1999/xlink">
    <!-- Generator: Sketch 42 (36781) - http://www.bohemiancoding.com/sketch -->
    <title>Icon/Crate</title>
    <desc>Created with Sketch.</desc>
    <defs></defs>
    <g id="Symbols" stroke="none" stroke-width="1" fill="none" fill-rule="evenodd">
        <g id="Icon/Crate" fill="#8592A2">
            <g id="Page-1">
                <path d="M12.6172,14.0001 L14.3062,15.6891 C13.9102,15.8821 13.4702,16.0001 13.0002,16.0001 L3.0002,16.0001 C2.5292,16.0001 2.0902,15.8821 1.6942,15.6891 L3.3832,14.0001 L12.6172,14.0001 Z M4.0002,9.0001 L12.0002,9.0001 L12.0002,7.0001 L4.0002,7.0001 L4.0002,9.0001 Z M4.0002,6.0001 L12.0002,6.0001 L12.0002,4.0001 L4.0002,4.0001 L4.0002,6.0001 Z M4.0002,12.0001 L12.0002,12.0001 L12.0002,10.0001 L4.0002,10.0001 L4.0002,12.0001 Z M2.0002,12.5551 L0.2892,14.2661 C0.1082,13.8801 0.0002,13.4541 0.0002,13.0001 L0.0002,3.0001 C0.0002,2.5541 0.1032,2.1351 0.2782,1.7551 L2.0002,3.4771 L2.0002,12.5551 Z M3.3522,2.0001 L1.6732,0.3221 C2.0752,0.1221 2.5212,0.0001 3.0002,0.0001 L13.0002,0.0001 C13.4792,0.0001 13.9252,0.1221 14.3262,0.3221 L12.6482,2.0001 L3.3522,2.0001 Z M15.7112,14.2661 L14.0002,12.5551 L14.0002,3.4771 L15.7222,1.7551 C15.8962,2.1351 16.0002,2.5541 16.0002,3.0001 L16.0002,13.0001 C16.0002,13.4541 15.8912,13.8801 15.7112,14.2661 L15.7112,14.2661 Z" id="Fill-1"></path>
            </g>
        </g>
    </g>
</svg>