<?xml version="1.0" encoding="utf-8"?>
<!-- Generator: Adobe Illustrator 16.0.0, SVG Export Plug-In . SVG Version: 6.00 Build 0)  -->
<!DOCTYPE svg PUBLIC "-//W3C//DTD SVG 1.1//EN" "http://www.w3.org/Graphics/SVG/1.1/DTD/svg11.dtd">
<svg version="1.1" id="Ebene_1" xmlns="http://www.w3.org/2000/svg" xmlns:xlink="http://www.w3.org/1999/xlink" x="0px" y="0px"
	 width="24px" height="24px" viewBox="0 0 24 24" enable-background="new 0 0 24 24" xml:space="preserve">
<path id="Rectangle-6" fill="#0486E0" d="M5,5h14c0.553,0,1,0.448,1,1l0,0c0,0.552-0.447,1-1,1H5C4.447,7,4,6.552,4,6l0,0
	C4,5.448,4.447,5,5,5z"/>
<path id="Rectangle-6-Copy" fill="#0486E0" d="M5,11h14c0.553,0,1,0.448,1,1l0,0c0,0.553-0.447,1-1,1H5c-0.553,0-1-0.447-1-1l0,0
	C4,11.448,4.447,11,5,11z"/>
<path id="Rectangle-6-Copy-2" fill="#0486E0" d="M5,17h14c0.553,0,1,0.447,1,1l0,0c0,0.553-0.447,1-1,1H5c-0.553,0-1-0.447-1-1l0,0
	C4,17.447,4.447,17,5,17z"/>
</svg>
