<svg xmlns="http://www.w3.org/2000/svg" viewBox="0 0 28 28"><defs><style>.cls-1{fill:none;}.cls-2{fill:#0286e0;}</style></defs><title>Compare_default_5</title><g id="Ebene_1-2"><path id="Bounding_Box" class="cls-1" d="M0 0h28v28h-28z"/><path class="cls-2" d="M9 10l-3 5a3 3 0 1 0 6 0zm-2 5l2-4 2 4zM19 10l-3 5a3 3 0 0 0 6 0zm-2 5l2-4 2 4zM15.73 9h4.27v-1h-4a2 2 0 0 0-4 0h-4v1h4.28a2 2 0 0 0 .72.72v10.4c-1.16.28-2 1-2 1.88h6c0-.87-.84-1.6-2-1.88v-10.39a2 2 0 0 0 .73-.73zm-1.73-2a1 1 0 1 1-1 1 1 1 0 0 1 1-1z"/></g></svg>