<svg xmlns="http://www.w3.org/2000/svg" width="16" height="16" viewBox="0 0 16 16"><path fill="#7F90A4" d="M11.264 9.755l1.813-1.613c.514-.028 1.513-.211 2.431-1.131l.492-.497-3.232-3.231-3.232-3.234-.497.492c-.919.92-1.103 1.917-1.13 2.433l-1.613 1.811c-3.798-.767-5.382.877-5.447.947l-.452.496 3.796 3.795-4.093 4.798.564.564.563.564 4.799-4.094 3.795 3.796.493-.45c.075-.064 1.719-1.648.95-5.446zm2.699-3.301c-.575.331-1.055.297-1.074.295l-.301-.048-2.083 1.871-.26-.261-2.506-2.505-.261-.261 1.871-2.083-.048-.301c-.002-.017-.036-.498.295-1.073l4.367 4.366zm-11.501-.135c.626-.273 1.797-.535 3.708-.111l.585.581 2.506 2.506.582.585c.423 1.911.161 3.082-.112 3.708l-7.269-7.269z"/></svg>