<?xml version="1.0" encoding="utf-8"?>
<!-- Generator: Adobe Illustrator 16.0.4, SVG Export Plug-In . SVG Version: 6.00 Build 0)  -->
<!DOCTYPE svg PUBLIC "-//W3C//DTD SVG 1.1//EN" "http://www.w3.org/Graphics/SVG/1.1/DTD/svg11.dtd">
<svg version="1.1" id="Ebene_1" xmlns="http://www.w3.org/2000/svg" xmlns:xlink="http://www.w3.org/1999/xlink" x="0px" y="0px"
	 width="8px" height="8px" viewBox="4.5 4.5 8 8" enable-background="new 4.5 4.5 8 8" xml:space="preserve">
<g>
	<path fill="#8192a6" d="M6.49,6.49C7.02,5.96,7.735,5.657,8.5,5.657c0.764,0,1.479,0.303,2.01,0.833
		c0.53,0.53,0.833,1.245,0.833,2.01s-0.303,1.479-0.833,2.009c-0.53,0.531-1.245,0.833-2.01,0.833c-0.765,0-1.48-0.302-2.01-0.832
		c-0.226-0.227-0.593-0.227-0.819-0.001c-0.227,0.227-0.227,0.593,0,0.819C6.416,12.073,7.425,12.5,8.5,12.5
		s2.084-0.427,2.828-1.173C12.073,10.584,12.5,9.574,12.5,8.5s-0.427-2.084-1.172-2.829C10.583,4.927,9.574,4.5,8.5,4.5
		c-1.075,0-2.083,0.427-2.829,1.171c-0.227,0.226-0.227,0.592,0,0.819C5.897,6.717,6.264,6.717,6.49,6.49z"/>
</g>
</svg>
