<svg xmlns="http://www.w3.org/2000/svg" width="288" height="341" viewBox="0 0 288 341">
  <g fill="none" fill-rule="evenodd" transform="translate(-.77 -1.08)">
    <g transform="translate(.208 .325)">
      <polygon fill="#13253C" points="258 229.12 101.52 293.605 164.172 306.909"/>
      <polygon fill="#162139" points="258.96 229.12 101.52 293.44 191.526 244.824"/>
      <polygon fill="#13253C" points="258.96 229.12 212.41 273.606 164.88 305.44"/>
      <polygon fill="#101E2D" points="128.652 341.469 147.852 326.589 127.212 293.949 93.84 251.2"/>
      <polygon fill="#182945" points="96.886 302.496 128.652 341.469 102.854 293.377 92.172 279.549"/>
      <polygon fill="#182945" points="23.052 249.789 68.172 242.109 92.172 279.549"/>
      <polygon fill="#101E2D" points="23.052 249.789 71.052 277.149 92.172 279.549"/>
      <polygon fill="#13253C" points="64.08 236.8 93.612 250.749 92.172 279.549"/>
      <polygon fill="#13253C" points="71.052 277.169 71.337 277.169 92.172 279.549 96.972 302.589"/>
      <polygon fill="#1C3359" points="26.401 239.68 .972 212.829 65.04 236.883"/>
      <polygon fill="#0F1A2A" points="26.401 239.68 .972 212.829 30.252 223.389"/>
      <polygon fill="#13385B" points="92.172 279.549 93.612 250.749 103.212 293.949"/>
      <polygon fill="#162139" points="147.852 326.589 127.212 293.949 138.701 274.24"/>
      <polygon fill="#182945" points="147.852 326.589 175.44 272.32 127.212 293.949"/>
      <polygon fill="#13385B" points="127.212 293.949 129.468 265.624 192.72 244.96"/>
      <polygon fill="#162139" points="102.92 293.581 128.652 341.469 127.28 293.185 93.612 250.749"/>
      <polygon fill="#182945" points="129.84 265.6 93.612 250.749 127.212 293.949"/>
      <polygon points=".72 212.446 9.78 197.556 44.131 169.999 45.432 161.83 115.852 147.52 127.951 153.083 161.801 148.498 179.554 154.786 210.514 168.652 227.15 170.671 267.6 196.493 263.719 213.557 259.086 228.785 253.467 231.184 213.265 250.77 193.038 244.394 129.993 264.64 93.666 250.586 32.876 241.361 30.163 223.325"/>
      <polygon fill="#187EC2" points="129.84 265.6 207.697 206.496 227.223 210.291 236.047 212.007 241.061 201.28 258.96 229.12 236.047 212.007 253.318 231.828 211.92 251.2 192.72 244.96"/>
      <polygon fill="#0174B2" points="253.364 232 235.92 212.456 258.96 229.12 240.984 201.88 246.425 196.48 263.28 214.24 258.96 229.12 258.25 229.485"/>
      <polygon fill="#0174B2" points="32.02 242.56 44.88 215.537 30.252 223.389 31.016 206.08 23.052 220.509 30.252 223.389"/>
      <polygon fill="#187EC2" points="93.612 250.749 45.089 214.72 32.4 241.807"/>
      <polygon fill="#187EC2" points="31.264 206.08 30.252 223.389 44.88 215.08"/>
      <polygon fill="#187EC2" points="30.252 223.389 .972 212.829 31.44 206.08"/>
      <polygon points="129.36 265.6 207.12 206.74 135.154 201.28"/>
      <polygon fill="#1886C6" points="240.72 201.376 209.933 169.6 135.12 201.117 207.439 206.465 235.719 211.84"/>
      <polygon fill="#187EC2" points="210.96 169.6 227.583 171.583 241.68 201.28"/>
      <polyline fill="#187EC2" points="245.52 196.48 266.64 197.433 262.732 213.76"/>
      <polygon fill="#0174B2" points="179.593 210.516 135.12 201.28 192.709 244.48 237.84 239"/>
      <polygon fill="#1886C6" points="45.612 161.949 115.692 147.549 135.12 200.32"/>
      <polyline fill="#0174B2" points="43.899 170.56 9.36 198.364 136.08 201.493 45.208 215.72 32.584 242.56"/>
      <polygon fill="#0174B2" points="164.88 150.4 174.373 172.48 179.28 155.09"/>
      <g transform="translate(32.4 153.28)">
        <polygon fill="#0174B2" points="178.075 15.41 142.08 18.006 146.652 1.469"/>
        <polygon fill="#0174B2" points="103.199 46.886 95.772 .029 138.699 16.313"/>
        <polygon fill="#1886C6" points="42.301 45.394 .183 87.686 61.022 96.932 97.381 111.02"/>
        <polyline fill="#1886C6" points="205.366 85.165 142.058 17.976 133.896 49.832"/>
      </g>
      <polygon fill="#1886C6" points="129.84 265.6 93.612 250.749 32.4 242.198 44.93 215.455 135.12 201.28"/>
      <g transform="translate(32.4 232)">
        <polygon fill="#187EC2" points="61.692 18.749 59.914 .14 97.44 33.6"/>
        <polygon fill="#0174B2" points="61.212 18.749 59.914 .14 .181 10.605"/>
      </g>
      <polygon points="92.88 231.825 135.12 201.28 129.373 265.6"/>
      <polygon fill="#0174B2" points="192.72 244.96 212.635 251.2 236.88 238.72"/>
      <polygon fill="#0F62AC" points="227.15 170.671 210.514 168.651 179.554 154.786 162.252 148.509 128.172 153.309 115.692 147.549 45.612 161.949 44.131 169.999 9.78 197.556 .972 212.829 23.875 221.009 30.252 223.389 32.652 241.149 93.612 250.749 129.84 265.6 192.72 244.96 211.92 251.2 237.889 238.847 253.68 231.52 258.96 229.12 263.719 213.556 267.6 196.493"/>
      <polygon fill="#13385B" points="30.252 223.389 23.052 249.789 32.652 241.149"/>
      <polygon fill="#13253C" points="93.612 250.749 23.052 249.789 32.652 241.149"/>
      <polygon fill="#162139" points="127.212 293.949 192.72 244.96 212.88 251.742 175.01 272.264"/>
      <polygon fill="#182945" points="258.96 229.12 212.64 272.32 176.074 271.543 213.267 250.304"/>
      <polygon fill="#0F1A2A" points="212.4 273.28 231.6 242.08 258.96 229.12"/>
      <polygon fill="#101E2D" points="157.932 306.429 176.074 271.543 164.172 306.909"/>
      <g transform="translate(.972 .16)">
        <path fill="#DBDADA" d="M8.18996716,114.244234 C8.18996716,114.244234 7.84446821,108.123303 13.1918198,107.047738 C13.1918198,107.047738 13.4919966,97.2572715 22.6753061,91.7841764 C25.0182619,90.3879787 26.7713735,90.3097916 28.0784893,90.9293749 C29.1268093,91.4221506 30.979104,93.1626342 31.5354493,94.2257156 C32.7933019,96.6278327 31.8999966,98.8689764 31.8999966,98.8689764 C31.8999966,98.8670053 34.0642914,97.3584548 35.7287293,98.399854 C36.1136387,98.6390144 36.607584,98.9714738 36.9905229,99.4425673 C36.9905229,99.4425673 39.0878198,98.0292867 40.6944556,98.8946008 C41.424864,99.2881643 43.2049061,100.662023 43.3553229,102.424189 C43.8302198,107.964958 37.244064,110.372332 37.244064,110.372332 C37.244064,110.372332 36.395424,115.64306 31.4257566,118.601028 C28.2788261,120.475547 25.263264,118.470935 25.263264,118.470935 C25.263264,118.470935 24.0080387,121.486065 21.7261693,122.806047 C19.4403587,124.126686 18.5779251,123.338245 18.5779251,123.338245 C18.5779251,123.338245 18.8715335,128.77586 15.5196682,129.894132 C11.8551461,131.116873 10.3877608,125.664803 10.3877608,125.664803 C10.3877608,125.664803 7.02275874,133.396782 2.94836716,131.093877 C2.06163032,130.595188 0.412299789,128.409235 0.208678737,127.250884 C-0.253081263,124.62866 0.861579789,120.830345 2.80189137,118.139133 C5.21512926,114.78563 8.18996716,114.244234 8.18996716,114.244234"/>
        <path fill="#FEFEFE" d="M9.69741979,115.754953 C9.69741979,115.754953 9.35520505,109.634679 14.7032135,108.558457 C14.7032135,108.558457 15.0033903,98.7666762 24.1853861,93.2942382 C32.6323756,88.260699 33.4113903,100.379695 33.4113903,100.379695 C33.4113903,100.379695 36.6870619,98.0951872 38.2805608,101.087321 C38.2805608,101.087321 43.1884851,97.8139766 43.6686366,103.453958 C44.1422198,108.996699 38.754144,111.885021 38.754144,111.885021 C38.754144,111.885021 37.9022198,117.153779 32.9371503,120.113718 C29.7908766,121.986266 26.7713735,119.982968 26.7713735,119.982968 C26.7713735,119.982968 25.5214029,122.997441 23.2382198,124.317423 C20.9524093,125.638719 20.0886619,124.849621 20.0886619,124.849621 C20.0886619,124.849621 18.8715335,128.7754 15.5196682,129.894329 C11.8551461,131.116413 11.8998114,127.177493 11.8998114,127.177493 C11.8998114,127.177493 7.39781558,133.652565 3.32079663,131.34966 C0.431348211,129.718901 1.51251032,123.534895 4.31328505,119.648538 C6.72520926,116.298977 9.69741979,115.754953 9.69741979,115.754953"/>
        <path fill="#DBDADA" d="M274.434937,37.440219 C274.434937,37.440219 274.972891,27.9605293 266.688798,26.2949475 C266.688798,26.2949475 266.223754,11.1292837 252.000495,2.6515711 C248.372099,0.488614449 245.654744,0.369034221 243.629699,1.32764715 C242.007956,2.09177795 239.136899,4.78561825 238.275779,6.43280304 C236.327586,10.1542449 237.712209,13.6260137 237.712209,13.6260137 C237.712209,13.6227285 234.360344,11.2869719 231.780925,12.8999909 C231.185169,13.2699011 230.417977,13.785016 229.82879,14.515638 C229.82879,14.515638 226.576765,12.3250859 224.088647,13.6641217 C222.958878,14.2751635 220.201455,16.4032973 219.966963,19.1326175 C219.231299,27.7161125 229.432714,31.4454388 229.432714,31.4454388 C229.432714,31.4454388 230.749026,39.6071179 238.447872,44.1892745 C243.31967,47.0920517 247.992445,43.987565 247.992445,43.987565 C247.992445,43.987565 249.932756,48.6584213 253.469194,50.7024548 C257.008916,52.7484593 258.348217,51.5290038 258.348217,51.5290038 C258.348217,51.5290038 257.891712,59.9502114 263.084049,61.6821536 C268.759821,63.5757262 271.030525,55.1321795 271.030525,55.1321795 C271.030525,55.1321795 276.243224,67.1079422 282.556133,63.5415605 C283.927619,62.7669171 286.485363,59.3818768 286.798676,57.5868593 C287.515948,53.5250738 285.788453,47.6446175 282.782087,43.4724502 C279.042685,38.2792517 274.434937,37.440219 274.434937,37.440219"/>
        <path fill="#FEFEFE" d="M272.098747,39.7811662 C272.098747,39.7811662 272.631446,30.3014765 264.34801,28.6345807 C264.34801,28.6345807 263.882309,13.4682598 249.661021,4.99251833 C236.576069,-2.80647787 235.371421,15.9663039 235.371421,15.9663039 C235.371421,15.9663039 230.296659,12.4275176 227.828903,17.062894 C227.828903,17.062894 220.227926,11.9912468 219.481753,20.7284879 C218.747404,29.31264 227.096524,33.787043 227.096524,33.787043 C227.096524,33.787043 228.413492,41.9480651 236.10577,46.5308788 C240.977568,49.4329989 245.654284,46.3285122 245.654284,46.3285122 C245.654284,46.3285122 247.591968,50.9993685 251.129063,53.043402 C254.667471,55.0894065 256.004802,53.868637 256.004802,53.868637 C256.004802,53.868637 257.891909,59.9501457 263.083589,61.6820879 C268.760019,63.5756605 268.689736,57.4724697 268.689736,57.4724697 C268.689736,57.4724697 275.666056,67.50144 281.977652,63.9376864 C286.453374,61.4100757 284.779084,51.8318309 280.443269,45.8114263 C276.705181,40.62217 272.098747,39.7811662 272.098747,39.7811662"/>
        <path fill="#B3B7B9" d="M166.019404 121.265302L166.019404 80.6697856M175.198509 77.3196995L175.198509 117.913902"/>
      </g>
      <polygon points="166.8 176.901 173.914 176.879 184.475 184.96 192.107 184.734 193.68 179.835 186.245 171.663 172.196 171.52"/>
      <polygon points="193.442 187.401 191.989 194.56 204.497 192.381 208.08 188.996 203.633 183.279 194.16 185.006 187.92 182.08"/>
      <path d="M188.061258,191.385907 C188.225336,192.111077 191.675906,194.56 191.675906,194.56 L191.675906,194.56 L193.68,185.00625 L187.921237,182.08 C187.921237,182.08 187.89718,190.660082 188.061258,191.385907"/>
    </g>
    <g transform="translate(86.104 124.705)">
      <g transform="translate(47.442 32.757)">
        <polygon fill="#5ABFED" points="3.104 27.493 22.122 23.983 22.122 2.114 12.613 4.387 12.756 16.035 3.104 18.668"/>
        <polygon fill="#2A96D3" points="12.756 16.035 6.471 12.284 .329 14.916 3.104 18.668"/>
        <polygon fill="#89D1F4" points="22.122 2.114 14.953 0 6.471 1.755 12.613 4.387"/>
        <polygon fill="#188FCF" points="6.471 1.755 6.471 12.284 12.756 16.035 12.613 4.387"/>
      </g>
      <g transform="translate(23.353 .944)">
        <polygon fill="#26A2DC" points=".142 3.443 9.794 7.538 9.794 90.893 .142 81.241"/>
        <polygon fill="#53B9EA" points="9.794 4.245 27.344 7.441 27.344 91.089 9.795 84.069" transform="matrix(-1 0 0 1 37.138 0)"/>
        <polygon fill="#89D1F4" points=".142 3.443 9.794 7.538 27.342 4.32 16.521 .518"/>
      </g>
      <g transform="translate(.347 15.325)">
        <polygon fill="#26A2DC" points=".433 28.078 7.453 33.887 7.529 6.394 .51 2.885"/>
        <polygon fill="#2A96D3" points="10.529 17.549 24.493 17.216 31.587 19.303 19.737 20.092"/>
        <polygon fill="#5ABFED" points="31.587 26.323 7.453 33.594 7.529 6.394 19.737 3.762 19.737 20.092 31.587 19.303"/>
        <polygon fill="#89D1F4" points=".51 2.885 7.529 6.394 19.813 3.762 12.794 .545"/>
      </g>
    </g>
    <g stroke="#188FCF" stroke-width=".5" transform="translate(94.77 132.08)">
      <path d="M25.8468321 3.01784333L28.3468321 4.01784333M25.8468321 59.0178433L28.3468321 60.0178433M25.8468321 31.0178433L28.3468321 32.0178433M25.8468321 10.0178433L28.3468321 11.0178433M25.8468321 66.0178433L28.3468321 67.0178433M25.8468321 38.0178433L28.3468321 39.0178433M25.8468321 24.0178433L28.3468321 25.0178433M25.8468321 80.0178433L28.3468321 81.0178433M25.8468321 52.0178433L28.3468321 53.0178433M12.3194814 31L14.8194814 32M25.8468321 17.0178433L28.3468321 18.0178433M44.4334836 46.0178433L46.9334836 47.0178433M25.8468321 73.0178433L28.3468321 74.0178433M25.8468321 45.0178433L28.3468321 46.0178433M29.0486334 6.01784333L31.5486334 7.01784333M29.0486334 62.0178433L31.5486334 63.0178433M.521282709 23.0178433L3.02128271 24.0178433M29.0486334 34.0178433L31.5486334 35.0178433M29.0486334 20.0178433L31.5486334 21.0178433M47.635285 49.0178433L50.135285 50.0178433M29.0486334 76.0178433L31.5486334 77.0178433M.521282709 37.0178433L3.02128271 38.0178433M29.0486334 48.0178433L31.5486334 49.0178433M29.0486334 13.0178433L31.5486334 14.0178433M29.0486334 69.0178433L31.5486334 70.0178433M.521282709 30.0178433L3.02128271 31.0178433M29.0486334 41.0178433L31.5486334 42.0178433M29.0486334 27.0178433L31.5486334 28.0178433M29.0486334 55.0178433L31.5486334 56.0178433M15.5212827 34L18.0212827 35M.521282709 16.0178433L3.02128271 17.0178433M35.8468321 1.01784333L38.3468321 2.01784333M54.4334836 30.0178433L56.9334836 31.0178433M35.8468321 57.0178433L38.3468321 58.0178433M7.31948137 18.0178433L9.81948137 19.0178433M35.8468321 29.0178433L38.3468321 30.0178433M35.8468321 8.01784333L38.3468321 9.01784333M54.4334836 37.0178433L56.9334836 38.0178433M35.8468321 64.0178433L38.3468321 65.0178433M7.31948137 25.0178433L9.81948137 26.0178433M35.8468321 36.0178433L38.3468321 37.0178433M35.8468321 22.0178433L38.3468321 23.0178433M35.8468321 78.0178433L38.3468321 79.0178433M35.8468321 50.0178433L38.3468321 51.0178433M35.8468321 15.0178433L38.3468321 16.0178433M54.4334836 44.0178433L56.9334836 45.0178433M35.8468321 71.0178433L38.3468321 72.0178433M7.31948137 32.0178433L9.81948137 33.0178433M35.8468321 43.0178433L38.3468321 44.0178433M39.0486334 4.01784333L41.5486334 5.01784333M57.635285 33.0178433L60.135285 34.0178433M39.0486334 60.0178433L41.5486334 61.0178433M10.5212827 21.0178433L13.0212827 22.0178433M39.0486334 32.0178433L41.5486334 33.0178433M39.0486334 18.0178433L41.5486334 19.0178433M57.635285 47.0178433L60.135285 48.0178433M39.0486334 74.0178433L41.5486334 75.0178433M10.5212827 35.0178433L13.0212827 36.0178433M39.0486334 46.0178433L41.5486334 47.0178433M39.0486334 11.0178433L41.5486334 12.0178433M57.635285 40.0178433L60.135285 41.0178433M39.0486334 67.0178433L41.5486334 68.0178433M10.5212827 28.0178433L13.0212827 29.0178433M39.0486334 39.0178433L41.5486334 40.0178433M39.0486334 25.0178433L41.5486334 26.0178433M39.0486334 53.0178433L41.5486334 54.0178433M10.5212827 14.0178433L13.0212827 15.0178433M30.8468321 2.01784333L33.3468321 3.01784333M30.8468321 58.0178433L33.3468321 59.0178433M2.31948137 19.0178433L4.81948137 20.0178433M30.8468321 30.0178433L33.3468321 31.0178433M30.8468321 9.01784333L33.3468321 10.0178433M30.8468321 65.0178433L33.3468321 66.0178433M2.31948137 26.0178433L4.81948137 27.0178433M30.8468321 37.0178433L33.3468321 38.0178433M30.8468321 23.0178433L33.3468321 24.0178433M30.8468321 79.0178433L33.3468321 80.0178433M30.8468321 51.0178433L33.3468321 52.0178433M17.3194814 30L19.8194814 31M30.8468321 16.0178433L33.3468321 17.0178433M49.4334836 45.0178433L51.9334836 46.0178433M30.8468321 72.0178433L33.3468321 73.0178433M2.31948137 33.0178433L4.81948137 34.0178433M30.8468321 44.0178433L33.3468321 45.0178433M34.0486334 5.01784333L36.5486334 6.01784333M52.635285 34.0178433L55.135285 35.0178433M34.0486334 61.0178433L36.5486334 62.0178433M5.52128271 22.0178433L8.02128271 23.0178433M34.0486334 33.0178433L36.5486334 34.0178433M34.0486334 19L36.5486334 20M52.635285 48L55.135285 49M34.0486334 75L36.5486334 76M5.52128271 36L8.02128271 37M34.0486334 47L36.5486334 48M34.0486334 12.0178433L36.5486334 13.0178433M52.635285 41.0178433L55.135285 42.0178433M34.0486334 68.0178433L36.5486334 69.0178433M5.52128271 29.0178433L8.02128271 30.0178433M34.0486334 40.0178433L36.5486334 41.0178433M34.0486334 26.0178433L36.5486334 27.0178433M34.0486334 54.0178433L36.5486334 55.0178433M20.5212827 33L23.0212827 34M5.52128271 15.0178433L8.02128271 16.0178433M40.8468321.0178433326L43.3468321 1.01784333M59.4334836 29.0178433L61.9334836 30.0178433M40.8468321 56.0178433L43.3468321 57.0178433M40.8468321 28.0178433L43.3468321 29.0178433M40.8468321 7.01784333L43.3468321 8.01784333M59.4334836 36.0178433L61.9334836 37.0178433M40.8468321 63.0178433L43.3468321 64.0178433M40.8468321 35.0178433L43.3468321 36.0178433M40.8468321 21.0178433L43.3468321 22.0178433M40.8468321 77.0178433L43.3468321 78.0178433M40.8468321 49.0178433L43.3468321 50.0178433M40.8468321 14.0178433L43.3468321 15.0178433M59.4334836 43.0178433L61.9334836 44.0178433M40.8468321 70.0178433L43.3468321 71.0178433M12.3194814 31.0178433L14.8194814 32.0178433M40.8468321 42.0178433L43.3468321 43.0178433"/>
    </g>
    <polygon fill="#101E2D" fill-opacity=".152" points="109.77 207.58 119.77 216.58 136.77 209.58 117.27 231.08"/>
  </g>
</svg>
