<?xml version="1.0" encoding="UTF-8" standalone="no"?>
<!-- Generator: Adobe Illustrator 18.0.0, SVG Export Plug-In . SVG Version: 6.00 Build 0)  -->

<svg
   xmlns:dc="http://purl.org/dc/elements/1.1/"
   xmlns:cc="http://creativecommons.org/ns#"
   xmlns:rdf="http://www.w3.org/1999/02/22-rdf-syntax-ns#"
   xmlns:svg="http://www.w3.org/2000/svg"
   xmlns="http://www.w3.org/2000/svg"
   xmlns:sodipodi="http://sodipodi.sourceforge.net/DTD/sodipodi-0.dtd"
   xmlns:inkscape="http://www.inkscape.org/namespaces/inkscape"
   version="1.1"
   id="Layer_1"
   x="0px"
   y="0px"
   viewBox="0 0 1152 576"
   enable-background="new 0 0 576 576"
   xml:space="preserve"
   inkscape:version="0.91 r13725"
   sodipodi:docname="404_DE_wide.svg"

><metadata
     id="metadata3813"><rdf:RDF><cc:Work
         rdf:about=""><dc:format>image/svg+xml</dc:format><dc:type
           rdf:resource="http://purl.org/dc/dcmitype/StillImage" /><dc:title /></cc:Work></rdf:RDF></metadata><defs
     id="defs3811" /><sodipodi:namedview
     pagecolor="#ffffff"
     bordercolor="#666666"
     borderopacity="1"
     objecttolerance="10"
     gridtolerance="10"
     guidetolerance="10"
     inkscape:pageopacity="0"
     inkscape:pageshadow="2"
     inkscape:window-width="1575"
     inkscape:window-height="814"
     id="namedview3809"
     showgrid="false"
     inkscape:zoom="0.40972222"
     inkscape:cx="-14.644069"
     inkscape:cy="288"
     inkscape:window-x="134"
     inkscape:window-y="92"
     inkscape:window-maximized="0"
     inkscape:current-layer="Layer_1" /><g
     enable-background="new    "
     id="g3693"
     transform="translate(288.25,0)"><path
       d="m 192.7,267.6 -37.9,0 0,58.7 -27.8,0 0,-58.7 -124.3,0 0,-25.3 121.3,-172.9 30.8,0 0,171.8 37.9,0 0,26.4 z m -65.7,-26.4 0,-85 c 0,-16.7 0.6,-35.5 1.7,-56.5 l -1.4,0 c -5.6,11.2 -10.8,20.5 -15.7,27.8 l -79.9,113.7 95.3,0 z"
       id="path3695"
       inkscape:connector-curvature="0"
       style="fill:#3f403f" /><path
       d="m 372.1,198.2 c 0,44.2 -7,77.2 -20.9,98.9 -13.9,21.8 -35.2,32.7 -63.9,32.7 -27.5,0 -48.4,-11.2 -62.8,-33.5 -14.3,-22.3 -21.5,-55 -21.5,-98.2 0,-44.5 6.9,-77.6 20.8,-99.1 13.9,-21.6 35,-32.3 63.5,-32.3 27.7,0 48.8,11.2 63.2,33.7 14.4,22.6 21.6,55.2 21.6,97.8 z m -139.7,0 c 0,37.2 4.4,64.2 13.1,81.2 8.7,17 22.7,25.4 41.8,25.4 19.3,0 33.4,-8.6 42,-25.8 8.7,-17.2 13,-44.1 13,-80.9 0,-36.7 -4.3,-63.6 -13,-80.7 -8.7,-17.1 -22.7,-25.6 -42,-25.6 -19.1,0 -33,8.4 -41.8,25.3 -8.7,16.9 -13.1,44 -13.1,81.1 z"
       id="path3697"
       inkscape:connector-curvature="0"
       style="fill:#3f403f" /><path
       d="m 572.8,267.6 -37.9,0 0,58.7 -27.9,0 0,-58.7 -124.3,0 0,-25.3 121.4,-172.9 30.8,0 0,171.8 37.9,0 0,26.4 z m -65.8,-26.4 0,-85 c 0,-16.7 0.6,-35.5 1.7,-56.5 l -1.4,0 c -5.6,11.2 -10.8,20.5 -15.7,27.8 l -79.9,113.6 95.3,0 z"
       id="path3699"
       inkscape:connector-curvature="0"
       style="fill:#3f403f" /></g><g
     enable-background="new    "
     id="g3701"
     transform="translate(288.4,0)"><path
       d="m 29.5,384.2 c 0,3.7 -1.3,6.7 -4,8.8 -2.7,2.1 -6.4,3.2 -11.2,3.2 -4.4,0 -8.3,-0.8 -11.7,-2.5 l 0,-8.1 c 2.8,1.2 5.1,2.1 7.1,2.6 1.9,0.5 3.7,0.8 5.3,0.8 1.9,0 3.4,-0.4 4.4,-1.1 1,-0.7 1.5,-1.8 1.5,-3.3 0,-0.8 -0.2,-1.5 -0.7,-2.2 -0.5,-0.6 -1.1,-1.2 -2,-1.8 -0.9,-0.6 -2.7,-1.5 -5.3,-2.8 -2.5,-1.2 -4.4,-2.3 -5.7,-3.4 -1.3,-1.1 -2.3,-2.4 -3,-3.8 -0.8,-1.4 -1.1,-3.1 -1.1,-5.1 0,-3.6 1.2,-6.5 3.7,-8.6 2.5,-2.1 5.9,-3.1 10.2,-3.1 2.1,0 4.2,0.3 6.1,0.8 1.9,0.5 4,1.2 6.1,2.1 l -2.8,6.8 c -2.2,-0.9 -4,-1.5 -5.5,-1.9 -1.4,-0.4 -2.9,-0.5 -4.2,-0.5 -1.7,0 -2.9,0.4 -3.8,1.2 -0.9,0.8 -1.3,1.8 -1.3,3 0,0.8 0.2,1.4 0.5,2 0.4,0.6 0.9,1.1 1.7,1.7 0.8,0.5 2.6,1.5 5.5,2.9 3.9,1.8 6.5,3.7 7.9,5.5 1.6,1.8 2.3,4.1 2.3,6.8 z"
       id="path3703"
       inkscape:connector-curvature="0"
       style="fill:#3f403f" /><path
       d="m 49.7,396.2 c -5.1,0 -9,-1.4 -11.9,-4.2 -2.9,-2.8 -4.3,-6.8 -4.3,-11.9 0,-5.3 1.3,-9.4 4,-12.2 2.6,-2.9 6.3,-4.3 11,-4.3 4.5,0 7.9,1.3 10.4,3.8 2.5,2.5 3.7,6 3.7,10.5 l 0,4.2 -20.4,0 c 0.1,2.4 0.8,4.4 2.2,5.7 1.4,1.4 3.3,2.1 5.7,2.1 1.9,0 3.7,-0.2 5.4,-0.6 1.7,-0.4 3.5,-1 5.3,-1.9 l 0,6.7 c -1.5,0.8 -3.1,1.3 -4.8,1.7 -1.8,0.2 -3.9,0.4 -6.3,0.4 z m -1.2,-26.6 c -1.8,0 -3.3,0.6 -4.3,1.7 -1,1.2 -1.6,2.8 -1.8,4.9 l 12.1,0 c 0,-2.1 -0.6,-3.8 -1.7,-4.9 -1.1,-1.1 -2.5,-1.7 -4.3,-1.7 z"
       id="path3705"
       inkscape:connector-curvature="0"
       style="fill:#3f403f" /><path
       d="m 68.2,356 c 0,-2.8 1.6,-4.2 4.7,-4.2 3.1,0 4.7,1.4 4.7,4.2 0,1.3 -0.4,2.4 -1.2,3.1 -0.8,0.7 -2,1.1 -3.5,1.1 -3.1,0 -4.7,-1.4 -4.7,-4.2 z m 9,39.6 -8.6,0 0,-31.5 8.6,0 0,31.5 z"
       id="path3707"
       inkscape:connector-curvature="0"
       style="fill:#3f403f" /><path
       d="m 98.6,389.3 c 1.5,0 3.3,-0.3 5.4,-1 l 0,6.4 c -2.1,1 -4.8,1.4 -7.9,1.4 -3.4,0 -5.9,-0.9 -7.5,-2.6 -1.6,-1.7 -2.4,-4.3 -2.4,-7.8 l 0,-15.2 -4.1,0 0,-3.6 4.7,-2.9 2.5,-6.7 5.5,0 0,6.7 8.8,0 0,6.5 -8.8,0 0,15.2 c 0,1.2 0.3,2.1 1,2.7 0.7,0.6 1.6,0.9 2.8,0.9 z"
       id="path3709"
       inkscape:connector-curvature="0"
       style="fill:#3f403f" /><path
       d="m 123.7,396.2 c -5.1,0 -9,-1.4 -11.9,-4.2 -2.9,-2.8 -4.3,-6.8 -4.3,-11.9 0,-5.3 1.3,-9.4 4,-12.2 2.6,-2.9 6.3,-4.3 11,-4.3 4.5,0 7.9,1.3 10.4,3.8 2.5,2.5 3.7,6 3.7,10.5 l 0,4.2 -20.3,0 c 0.1,2.4 0.8,4.4 2.2,5.7 1.4,1.4 3.3,2.1 5.7,2.1 1.9,0 3.7,-0.2 5.4,-0.6 1.7,-0.4 3.5,-1 5.3,-1.9 l 0,6.7 c -1.5,0.8 -3.1,1.3 -4.8,1.7 -1.9,0.2 -4,0.4 -6.4,0.4 z m -1.2,-26.6 c -1.8,0 -3.3,0.6 -4.3,1.7 -1,1.2 -1.6,2.8 -1.8,4.9 l 12.1,0 c 0,-2.1 -0.6,-3.8 -1.7,-4.9 -1.1,-1.1 -2.5,-1.7 -4.3,-1.7 z"
       id="path3711"
       inkscape:connector-curvature="0"
       style="fill:#3f403f" /><path
       d="m 185.8,395.6 -8.6,0 0,-18.4 c 0,-2.3 -0.4,-4 -1.2,-5.1 -0.8,-1.1 -2.1,-1.7 -3.9,-1.7 -2.4,0 -4.1,0.8 -5.2,2.4 -1.1,1.6 -1.6,4.3 -1.6,8 l 0,14.8 -8.6,0 0,-31.5 6.6,0 1.2,4 0.5,0 c 1,-1.5 2.3,-2.7 4,-3.5 1.7,-0.8 3.6,-1.2 5.7,-1.2 3.7,0 6.4,1 8.3,3 1.9,2 2.8,4.8 2.8,8.6 l 0,20.6 z"
       id="path3713"
       inkscape:connector-curvature="0"
       style="fill:#3f403f" /><path
       d="m 193.3,356 c 0,-2.8 1.6,-4.2 4.7,-4.2 3.1,0 4.7,1.4 4.7,4.2 0,1.3 -0.4,2.4 -1.2,3.1 -0.8,0.7 -2,1.1 -3.5,1.1 -3.1,0 -4.7,-1.4 -4.7,-4.2 z m 9,39.6 -8.6,0 0,-31.5 8.6,0 0,31.5 z"
       id="path3715"
       inkscape:connector-curvature="0"
       style="fill:#3f403f" /><path
       d="m 223.2,396.2 c -9.8,0 -14.7,-5.4 -14.7,-16.2 0,-5.4 1.3,-9.4 4,-12.3 2.7,-2.8 6.5,-4.2 11.5,-4.2 3.6,0 6.9,0.7 9.8,2.1 l -2.5,6.7 c -1.4,-0.5 -2.6,-1 -3.8,-1.3 -1.2,-0.3 -2.3,-0.5 -3.5,-0.5 -4.5,0 -6.7,3.2 -6.7,9.5 0,6.2 2.2,9.2 6.7,9.2 1.7,0 3.2,-0.2 4.6,-0.7 1.4,-0.4 2.8,-1.1 4.2,-2.1 l 0,7.4 c -1.4,0.9 -2.8,1.5 -4.2,1.8 -1.5,0.4 -3.3,0.6 -5.4,0.6 z"
       id="path3717"
       inkscape:connector-curvature="0"
       style="fill:#3f403f" /><path
       d="m 268.2,395.6 -8.6,0 0,-18.4 c 0,-4.5 -1.7,-6.8 -5.1,-6.8 -2.4,0 -4.1,0.8 -5.2,2.5 -1.1,1.6 -1.6,4.3 -1.6,7.9 l 0,14.8 -8.6,0 0,-43.9 8.6,0 0,8.9 c 0,0.7 -0.1,2.3 -0.2,4.9 l -0.2,2.5 0.5,0 c 1.9,-3.1 5,-4.6 9.1,-4.6 3.7,0 6.5,1 8.4,3 1.9,2 2.9,4.8 2.9,8.6 l 0,20.6 z"
       id="path3719"
       inkscape:connector-curvature="0"
       style="fill:#3f403f" /><path
       d="m 289.4,389.3 c 1.5,0 3.3,-0.3 5.4,-1 l 0,6.4 c -2.1,1 -4.8,1.4 -7.9,1.4 -3.4,0 -5.9,-0.9 -7.5,-2.6 -1.6,-1.7 -2.4,-4.3 -2.4,-7.8 l 0,-15.2 -4,0 0,-3.6 4.7,-2.9 2.5,-6.7 5.5,0 0,6.7 8.8,0 0,6.5 -8.8,0 0,15.2 c 0,1.2 0.3,2.1 1,2.7 0.7,0.6 1.6,0.9 2.7,0.9 z"
       id="path3721"
       inkscape:connector-curvature="0"
       style="fill:#3f403f" /><path
       d="m 341.8,364.1 0,4.4 -4.9,1.3 c 0.9,1.4 1.4,3 1.4,4.7 0,3.4 -1.2,6 -3.5,7.9 -2.4,1.9 -5.6,2.8 -9.8,2.8 l -1.5,-0.1 -1.5,-0.1 c -0.9,0.7 -1.3,1.4 -1.3,2.3 0,1.2 1.6,1.9 4.7,1.9 l 5.4,0 c 3.5,0 6.1,0.7 7.9,2.2 1.8,1.5 2.7,3.7 2.7,6.5 0,3.7 -1.5,6.5 -4.6,8.6 -3.1,2 -7.5,3 -13.2,3 -4.4,0 -7.8,-0.8 -10.1,-2.3 -2.3,-1.5 -3.5,-3.7 -3.5,-6.4 0,-1.9 0.6,-3.5 1.8,-4.8 1.2,-1.3 2.9,-2.2 5.2,-2.7 -0.9,-0.4 -1.7,-1 -2.3,-1.8 -0.7,-0.9 -1,-1.8 -1,-2.7 0,-1.2 0.3,-2.2 1,-3 0.7,-0.8 1.7,-1.6 3,-2.4 -1.7,-0.7 -3,-1.9 -3.9,-3.4 -1,-1.6 -1.5,-3.4 -1.5,-5.6 0,-3.4 1.1,-6.1 3.4,-8 2.3,-1.9 5.4,-2.8 9.6,-2.8 0.9,0 1.9,0.1 3.1,0.2 1.2,0.2 2,0.3 2.3,0.4 l 11.1,0 z m -24.3,36 c 0,1.2 0.6,2.1 1.7,2.8 1.1,0.7 2.7,1 4.8,1 3.1,0 5.5,-0.4 7.2,-1.3 1.7,-0.8 2.6,-2 2.6,-3.5 0,-1.2 -0.5,-2 -1.6,-2.5 -1.1,-0.5 -2.6,-0.7 -4.8,-0.7 l -4.4,0 c -1.6,0 -2.9,0.4 -4,1.1 -1.1,0.7 -1.5,1.8 -1.5,3.1 z m 3.1,-25.7 c 0,1.7 0.4,3.1 1.2,4.1 0.8,1 2,1.5 3.6,1.5 1.6,0 2.8,-0.5 3.6,-1.5 0.8,-1 1.1,-2.3 1.1,-4.1 0,-3.8 -1.6,-5.7 -4.7,-5.7 -3.2,0 -4.8,1.9 -4.8,5.7 z"
       id="path3723"
       inkscape:connector-curvature="0"
       style="fill:#3f403f" /><path
       d="m 360.3,396.2 c -5.1,0 -9,-1.4 -11.9,-4.2 -2.9,-2.8 -4.3,-6.8 -4.3,-11.9 0,-5.3 1.3,-9.4 4,-12.2 2.6,-2.9 6.3,-4.3 11,-4.3 4.5,0 7.9,1.3 10.4,3.8 2.5,2.5 3.7,6 3.7,10.5 l 0,4.2 -20.3,0 c 0.1,2.4 0.8,4.4 2.2,5.7 1.4,1.4 3.2,2.1 5.7,2.1 1.9,0 3.7,-0.2 5.4,-0.6 1.7,-0.4 3.5,-1 5.3,-1.9 l 0,6.7 c -1.5,0.8 -3.1,1.3 -4.8,1.7 -1.8,0.2 -3.9,0.4 -6.4,0.4 z m -1.2,-26.6 c -1.8,0 -3.3,0.6 -4.3,1.7 -1,1.2 -1.6,2.8 -1.8,4.9 l 12.1,0 c 0,-2.1 -0.6,-3.8 -1.7,-4.9 -1.1,-1.1 -2.5,-1.7 -4.3,-1.7 z"
       id="path3725"
       inkscape:connector-curvature="0"
       style="fill:#3f403f" /><path
       d="m 396.6,370.6 -7.4,0 0,25.1 -8.6,0 0,-25.1 -4.7,0 0,-4.1 4.7,-2.3 0,-2.3 c 0,-3.6 0.9,-6.2 2.7,-7.9 1.8,-1.7 4.6,-2.5 8.5,-2.5 3,0 5.6,0.4 7.9,1.3 l -2.2,6.3 c -1.7,-0.5 -3.3,-0.8 -4.8,-0.8 -1.2,0 -2.1,0.4 -2.6,1.1 -0.5,0.7 -0.8,1.6 -0.8,2.8 l 0,2 7.4,0 0,6.4 z"
       id="path3727"
       inkscape:connector-curvature="0"
       style="fill:#3f403f" /><path
       d="m 423,395.6 -1.2,-4 -0.5,0 c -0.9,1.5 -2.2,2.6 -3.9,3.4 -1.7,0.8 -3.6,1.2 -5.8,1.2 -3.7,0 -6.5,-1 -8.4,-3 -1.9,-2 -2.8,-4.8 -2.8,-8.6 l 0,-20.5 8.6,0 0,18.4 c 0,2.3 0.4,4 1.2,5.1 0.8,1.1 2.1,1.7 3.9,1.7 2.4,0 4.1,-0.8 5.2,-2.4 1.1,-1.6 1.6,-4.3 1.6,-8 l 0,-14.8 8.6,0 0,31.5 -6.5,0 z"
       id="path3729"
       inkscape:connector-curvature="0"
       style="fill:#3f403f" /><path
       d="m 466.8,395.6 -8.6,0 0,-18.4 c 0,-2.3 -0.4,-4 -1.2,-5.1 -0.8,-1.1 -2.1,-1.7 -3.9,-1.7 -2.4,0 -4.1,0.8 -5.2,2.4 -1.1,1.6 -1.6,4.3 -1.6,8 l 0,14.8 -8.6,0 0,-31.5 6.6,0 1.2,4 0.5,0 c 1,-1.5 2.3,-2.7 4,-3.5 1.7,-0.8 3.6,-1.2 5.7,-1.2 3.7,0 6.4,1 8.3,3 1.9,2 2.8,4.8 2.8,8.6 l 0,20.6 z"
       id="path3731"
       inkscape:connector-curvature="0"
       style="fill:#3f403f" /><path
       d="m 484.7,396.2 c -3.7,0 -6.6,-1.4 -8.7,-4.3 -2.1,-2.9 -3.2,-6.9 -3.2,-12 0,-5.2 1.1,-9.2 3.2,-12.1 2.2,-2.9 5.1,-4.3 8.9,-4.3 4,0 7,1.5 9.1,4.6 l 0.3,0 c -0.4,-2.3 -0.6,-4.4 -0.6,-6.3 l 0,-10.1 8.6,0 0,43.9 -6.6,0 -1.7,-4.1 -0.4,0 c -2,3.1 -4.9,4.7 -8.9,4.7 z m 3,-6.9 c 2.2,0 3.8,-0.6 4.8,-1.9 1,-1.3 1.6,-3.4 1.7,-6.5 l 0,-0.9 c 0,-3.4 -0.5,-5.8 -1.6,-7.3 -1.1,-1.5 -2.7,-2.2 -5.1,-2.2 -1.9,0 -3.4,0.8 -4.5,2.4 -1.1,1.6 -1.6,4 -1.6,7.1 0,3.1 0.5,5.4 1.6,7 1.2,1.6 2.7,2.3 4.7,2.3 z"
       id="path3733"
       inkscape:connector-curvature="0"
       style="fill:#3f403f" /><path
       d="m 524.6,396.2 c -5.1,0 -9,-1.4 -11.9,-4.2 -2.9,-2.8 -4.3,-6.8 -4.3,-11.9 0,-5.3 1.3,-9.4 4,-12.2 2.6,-2.9 6.3,-4.3 11,-4.3 4.5,0 7.9,1.3 10.4,3.8 2.5,2.5 3.7,6 3.7,10.5 l 0,4.2 -20.3,0 c 0.1,2.4 0.8,4.4 2.2,5.7 1.4,1.4 3.2,2.1 5.7,2.1 1.9,0 3.7,-0.2 5.4,-0.6 1.7,-0.4 3.5,-1 5.3,-1.9 l 0,6.7 c -1.5,0.8 -3.1,1.3 -4.8,1.7 -1.9,0.2 -4,0.4 -6.4,0.4 z m -1.3,-26.6 c -1.8,0 -3.3,0.6 -4.3,1.7 -1,1.2 -1.6,2.8 -1.8,4.9 l 12.1,0 c 0,-2.1 -0.6,-3.8 -1.7,-4.9 -1.1,-1.1 -2.4,-1.7 -4.3,-1.7 z"
       id="path3735"
       inkscape:connector-curvature="0"
       style="fill:#3f403f" /><path
       d="m 572.6,395.6 -8.6,0 0,-18.4 c 0,-2.3 -0.4,-4 -1.2,-5.1 -0.8,-1.1 -2.1,-1.7 -3.9,-1.7 -2.4,0 -4.1,0.8 -5.2,2.4 -1.1,1.6 -1.6,4.3 -1.6,8 l 0,14.8 -8.6,0 0,-31.5 6.6,0 1.2,4 0.5,0 c 1,-1.5 2.3,-2.7 4,-3.5 1.7,-0.8 3.6,-1.2 5.7,-1.2 3.7,0 6.4,1 8.3,3 1.9,2 2.8,4.8 2.8,8.6 l 0,20.6 z"
       id="path3737"
       inkscape:connector-curvature="0"
       style="fill:#3f403f" /></g><g
     id="g3739"
     transform="translate(287.95,0)"><path
       d="m 21.6,476.8 c 0,3.8 -1,6.5 -3.1,8.4 -2.1,1.9 -5.2,2.9 -9,2.9 l -6.4,0 0,-22.5 7.1,0 c 3.6,0 6.5,1.1 8.6,2.9 1.8,2 2.8,4.7 2.8,8.3 z m -4.8,0 c 0,-4.8 -2.1,-7.1 -6.3,-7.1 l -2.5,0 0,14.7 2.1,0 c 4.4,-0.1 6.7,-2.6 6.7,-7.6 z"
       id="path3741"
       inkscape:connector-curvature="0"
       style="fill:#3f403f" /><path
       d="m 24.1,466.5 c 0,-1.5 0.8,-2.3 2.5,-2.3 1.7,0 2.5,0.8 2.5,2.3 0,0.6 -0.2,1.3 -0.6,1.7 -0.4,0.4 -1,0.6 -1.9,0.6 -1.6,0 -2.5,-0.7 -2.5,-2.3 z m 4.9,21.6 -4.6,0 0,-17.2 4.6,0 0,17.2 z"
       id="path3743"
       inkscape:connector-curvature="0"
       style="fill:#3f403f" /><path
       d="m 40.1,488.5 c -2.7,0 -4.8,-0.8 -6.5,-2.3 -1.5,-1.5 -2.3,-3.8 -2.3,-6.5 0,-2.9 0.6,-5 2.1,-6.7 1.5,-1.7 3.4,-2.3 5.9,-2.3 2.5,0 4.4,0.6 5.7,2.1 1.3,1.5 2.1,3.4 2.1,5.7 l 0,2.3 -11.2,0 c 0,1.3 0.4,2.3 1.3,3.1 0.8,0.8 1.7,1.1 3.1,1.1 1,0 2.1,-0.2 2.9,-0.4 0.8,-0.2 1.9,-0.6 2.9,-1 l 0,3.6 c -0.8,0.4 -1.7,0.6 -2.7,0.8 -0.8,0.3 -1.8,0.5 -3.3,0.5 z M 39.5,474 c -1,0 -1.7,0.4 -2.3,0.8 -0.6,0.6 -0.8,1.5 -1,2.7 l 6.5,0 c 0,-1.3 -0.4,-2.1 -0.8,-2.7 -0.5,-0.6 -1.4,-0.8 -2.4,-0.8 z"
       id="path3745"
       inkscape:connector-curvature="0"
       style="fill:#3f403f" /><path
       d="m 61.2,483.1 c 0,1.7 -0.6,3.1 -1.9,4 -1.3,0.8 -3.1,1.5 -5.5,1.5 -1.3,0 -2.3,0 -3.1,-0.2 -0.8,-0.2 -1.7,-0.4 -2.5,-0.8 l 0,-3.8 c 0.8,0.4 1.9,0.8 2.9,1 1,0.2 2.1,0.4 2.9,0.4 1.7,0 2.5,-0.4 2.5,-1.5 0,-0.4 -0.2,-0.6 -0.4,-0.8 -0.2,-0.2 -0.6,-0.4 -1.3,-0.8 -0.6,-0.2 -1.3,-0.6 -2.3,-1 -1.3,-0.6 -2.3,-1 -2.9,-1.5 -0.6,-0.4 -1,-1 -1.3,-1.7 -0.2,-0.6 -0.4,-1.3 -0.4,-2.3 0,-1.5 0.6,-2.7 1.7,-3.6 1.3,-0.8 2.9,-1.3 5,-1.3 2.1,0 4,0.4 6.1,1.3 l -1.5,3.4 c -0.8,-0.4 -1.7,-0.6 -2.3,-0.8 -0.8,-0.2 -1.5,-0.4 -2.3,-0.4 -1.5,0 -2.1,0.4 -2.1,1 0,0.4 0.2,0.8 0.6,1.1 0.4,0.2 1.5,0.8 2.9,1.5 1.3,0.6 2.3,1.1 2.9,1.5 0.6,0.4 1,1 1.5,1.7 0.8,0.4 0.8,1.2 0.8,2.1 z"
       id="path3747"
       inkscape:connector-curvature="0"
       style="fill:#3f403f" /><path
       d="m 71.1,488.5 c -2.7,0 -4.8,-0.8 -6.5,-2.3 -1.5,-1.5 -2.3,-3.8 -2.3,-6.5 0,-2.9 0.6,-5 2.1,-6.7 1.5,-1.7 3.4,-2.3 5.9,-2.3 2.5,0 4.4,0.6 5.7,2.1 1.3,1.5 2.1,3.4 2.1,5.7 l 0,2.3 -11.2,0 c 0,1.3 0.4,2.3 1.3,3.1 0.8,0.8 1.7,1.1 3.1,1.1 1.1,0 2.1,-0.2 2.9,-0.4 0.8,-0.2 1.9,-0.6 2.9,-1 l 0,3.6 c -0.8,0.4 -1.7,0.6 -2.7,0.8 -0.8,0.3 -1.9,0.5 -3.3,0.5 z M 70.4,474 c -1.1,0 -1.7,0.4 -2.3,0.8 -0.6,0.6 -0.8,1.5 -1,2.7 l 6.5,0 c 0,-1.3 -0.4,-2.1 -0.8,-2.7 -0.5,-0.6 -1.3,-0.8 -2.4,-0.8 z"
       id="path3749"
       inkscape:connector-curvature="0"
       style="fill:#3f403f" /><path
       d="m 100.7,482 c 0,2.1 -0.6,3.6 -2.1,4.8 -1.5,1.2 -3.6,1.7 -6.1,1.7 -2.3,0 -4.6,-0.4 -6.3,-1.3 l 0,-4.4 c 1.5,0.6 2.7,1 3.8,1.5 1,0.2 2.1,0.4 2.9,0.4 1,0 1.9,-0.2 2.3,-0.6 0.6,-0.4 0.8,-1 0.8,-1.7 0,-0.4 -0.2,-0.8 -0.4,-1.3 -0.2,-0.4 -0.6,-0.6 -1.1,-1.1 -0.4,-0.4 -1.5,-0.8 -2.9,-1.5 -1.4,-0.7 -2.3,-1.3 -3.1,-1.9 -0.6,-0.6 -1.3,-1.3 -1.7,-2.1 -0.4,-0.8 -0.6,-1.7 -0.6,-2.7 0,-1.9 0.6,-3.6 2.1,-4.6 1.3,-1.1 3.1,-1.7 5.7,-1.7 1.3,0 2.3,0.2 3.4,0.4 1.1,0.2 2.1,0.6 3.4,1.3 l -1.5,3.8 c -1.3,-0.4 -2.1,-0.8 -2.9,-1.1 -0.8,-0.2 -1.5,-0.2 -2.3,-0.2 -0.8,0 -1.7,0.2 -2.1,0.6 -0.4,0.4 -0.6,1 -0.6,1.7 0,0.4 0,0.8 0.2,1 0.2,0.2 0.4,0.6 0.8,0.8 0.4,0.2 1.5,0.8 2.9,1.7 2.1,1.1 3.6,2.1 4.4,2.9 0.6,0.9 1,2.1 1,3.6 z"
       id="path3751"
       inkscape:connector-curvature="0"
       style="fill:#3f403f" /><path
       d="m 110.6,488.5 c -2.7,0 -4.8,-0.8 -6.5,-2.3 -1.5,-1.5 -2.3,-3.8 -2.3,-6.5 0,-2.9 0.6,-5 2.1,-6.7 1.5,-1.7 3.4,-2.3 5.9,-2.3 2.5,0 4.4,0.6 5.7,2.1 1.3,1.5 2.1,3.4 2.1,5.7 l 0,2.3 -11.1,0 c 0,1.3 0.4,2.3 1.3,3.1 0.8,0.8 1.7,1.1 3.1,1.1 1,0 2.1,-0.2 2.9,-0.4 0.8,-0.2 1.9,-0.6 2.9,-1 l 0,3.6 c -0.8,0.4 -1.7,0.6 -2.7,0.8 -0.9,0.3 -2.2,0.5 -3.4,0.5 z M 109.9,474 c -1,0 -1.7,0.4 -2.3,0.8 -0.6,0.6 -0.8,1.5 -1.1,2.7 l 6.5,0 c 0,-1.3 -0.4,-2.1 -0.8,-2.7 -0.6,-0.6 -1.4,-0.8 -2.3,-0.8 z"
       id="path3753"
       inkscape:connector-curvature="0"
       style="fill:#3f403f" /><path
       d="m 119.6,466.5 c 0,-1.5 0.8,-2.3 2.5,-2.3 1.7,0 2.5,0.8 2.5,2.3 0,0.6 -0.2,1.3 -0.6,1.7 -0.4,0.4 -1.1,0.6 -1.9,0.6 -1.7,0 -2.5,-0.7 -2.5,-2.3 z m 4.8,21.6 -4.6,0 0,-17.2 4.6,0 0,17.2 z"
       id="path3755"
       inkscape:connector-curvature="0"
       style="fill:#3f403f" /><path
       d="m 135.1,484.7 c 0.8,0 1.9,-0.2 2.9,-0.6 l 0,3.6 c -1.3,0.4 -2.5,0.8 -4.2,0.8 -1.9,0 -3.1,-0.4 -4.2,-1.5 -0.8,-1 -1.3,-2.3 -1.3,-4.2 l 0,-8.2 -2.3,0 0,-1.9 2.5,-1.5 1.3,-3.6 2.9,0 0,3.6 4.8,0 0,3.6 -4.8,0 0,8.2 c 0,0.6 0.2,1.3 0.6,1.5 0.6,0 1.2,0.2 1.8,0.2 z"
       id="path3757"
       inkscape:connector-curvature="0"
       style="fill:#3f403f" /><path
       d="m 147.7,488.5 c -2.7,0 -4.8,-0.8 -6.5,-2.3 -1.5,-1.5 -2.3,-3.8 -2.3,-6.5 0,-2.9 0.6,-5 2.1,-6.7 1.5,-1.7 3.4,-2.3 5.9,-2.3 2.5,0 4.4,0.6 5.7,2.1 1.3,1.5 2.1,3.4 2.1,5.7 l 0,2.3 -11.1,0 c 0,1.3 0.4,2.3 1.3,3.1 0.8,0.8 1.7,1.1 3.1,1.1 1.1,0 2.1,-0.2 2.9,-0.4 0.8,-0.2 1.9,-0.6 2.9,-1 l 0,3.6 c -0.8,0.4 -1.7,0.6 -2.7,0.8 -0.9,0.3 -2.1,0.5 -3.4,0.5 z M 147.1,474 c -1.1,0 -1.7,0.4 -2.3,0.8 -0.6,0.6 -0.8,1.5 -1.1,2.7 l 6.5,0 c 0,-1.3 -0.4,-2.1 -0.8,-2.7 -0.6,-0.6 -1.5,-0.8 -2.3,-0.8 z"
       id="path3759"
       inkscape:connector-curvature="0"
       style="fill:#3f403f" /><path
       d="m 168.1,478.9 2.1,-2.5 4.8,-5.2 5.2,0 -6.7,7.6 7.1,9.7 -5.5,0 -5,-6.9 -2.1,1.7 0,5.2 -4.6,0 0,-23.9 4.6,0 0,10.7 0.1,3.6 0,0 z"
       id="path3761"
       inkscape:connector-curvature="0"
       style="fill:#3f403f" /><path
       d="m 192.5,488.1 -0.8,-2.3 -0.2,0 c -0.8,1.1 -1.7,1.7 -2.5,2.1 -0.8,0.4 -1.9,0.6 -3.4,0.6 -1.7,0 -2.9,-0.4 -4,-1.5 -1,-0.8 -1.5,-2.3 -1.5,-4 0,-1.9 0.6,-3.1 1.9,-4 1.3,-0.8 3.1,-1.3 5.7,-1.5 l 2.9,0 0,-0.8 c 0,-1.7 -0.8,-2.5 -2.7,-2.5 -1.5,0 -2.9,0.4 -4.8,1.3 l -1.5,-3.1 c 1.9,-1 4.2,-1.5 6.5,-1.5 2.3,0 4,0.4 5.2,1.5 1.2,1.1 1.9,2.5 1.9,4.6 l 0,11.5 -2.7,0 0,-0.4 z m -1.5,-8 -1.9,0 c -1.3,0 -2.3,0.2 -2.9,0.8 -0.6,0.4 -1.1,1 -1.1,2.1 0,1.3 0.8,1.9 2.3,1.9 1,0 1.9,-0.2 2.5,-0.8 0.6,-0.6 1,-1.5 1,-2.5 l 0.1,-1.5 0,0 z"
       id="path3763"
       inkscape:connector-curvature="0"
       style="fill:#3f403f" /><path
       d="m 214.6,488.1 -4.6,0 0,-10.1 c 0,-1.3 -0.2,-2.1 -0.6,-2.7 -0.4,-0.6 -1.1,-0.8 -2.1,-0.8 -1.3,0 -2.3,0.4 -2.9,1.3 -0.6,0.9 -0.8,2.3 -0.8,4.4 l 0,8 -4.6,0 0,-17.2 3.6,0 0.6,2.1 0.2,0 c 0.4,-0.8 1.3,-1.5 2.1,-1.9 0.8,-0.4 1.9,-0.6 3.1,-0.6 2.1,0 3.6,0.6 4.6,1.7 1.1,1.1 1.5,2.7 1.5,4.6 l -0.1,11.2 0,0 z"
       id="path3765"
       inkscape:connector-curvature="0"
       style="fill:#3f403f" /><path
       d="m 233.7,488.1 -4.6,0 0,-10.1 c 0,-1.3 -0.2,-2.1 -0.6,-2.7 -0.4,-0.6 -1,-0.8 -2.1,-0.8 -1.3,0 -2.3,0.4 -2.9,1.3 -0.6,0.9 -0.8,2.3 -0.8,4.4 l 0,8 -4.7,0 0,-17.2 3.6,0 0.6,2.1 0.2,0 c 0.4,-0.8 1.3,-1.5 2.1,-1.9 0.8,-0.4 1.9,-0.6 3.1,-0.6 2.1,0 3.6,0.6 4.6,1.7 1.1,1.1 1.5,2.7 1.5,4.6 l 0,11.2 0,0 z"
       id="path3767"
       inkscape:connector-curvature="0"
       style="fill:#3f403f" /><path
       d="m 259.5,488.1 -4.6,0 0,-10.1 c 0,-1.3 -0.2,-2.1 -0.6,-2.7 -0.4,-0.6 -1,-0.8 -2.1,-0.8 -1.3,0 -2.3,0.4 -2.9,1.3 -0.6,0.9 -0.8,2.3 -0.8,4.4 l 0,8 -4.6,0 0,-17.2 3.6,0 0.6,2.1 0.2,0 c 0.4,-0.8 1.3,-1.5 2.1,-1.9 0.8,-0.4 1.9,-0.6 3.1,-0.6 2.1,0 3.6,0.6 4.6,1.7 1,1.1 1.5,2.7 1.5,4.6 l 0,11.2 z"
       id="path3769"
       inkscape:connector-curvature="0"
       style="fill:#3f403f" /><path
       d="m 262.5,466.5 c 0,-1.5 0.8,-2.3 2.5,-2.3 1.7,0 2.5,0.8 2.5,2.3 0,0.6 -0.2,1.3 -0.6,1.7 -0.4,0.4 -1.1,0.6 -1.9,0.6 -1.7,0 -2.5,-0.7 -2.5,-2.3 z m 5,21.6 -4.6,0 0,-17.2 4.6,0 0,17.2 z"
       id="path3771"
       inkscape:connector-curvature="0"
       style="fill:#3f403f" /><path
       d="m 277.8,488.5 c -5.2,0 -8,-2.9 -8,-8.8 0,-2.9 0.6,-5.2 2.1,-6.7 1.5,-1.5 3.6,-2.3 6.3,-2.3 1.9,0 3.8,0.4 5.2,1.3 l -1.5,3.6 c -0.8,-0.2 -1.5,-0.6 -2.1,-0.6 -0.6,-0.2 -1.3,-0.2 -1.9,-0.2 -2.5,0 -3.6,1.7 -3.6,5.2 0,3.4 1.3,5 3.6,5 0.8,0 1.7,-0.2 2.5,-0.4 0.8,-0.2 1.5,-0.6 2.3,-1 l 0,4 c -0.8,0.4 -1.5,0.8 -2.3,1 -0.5,-0.3 -1.5,-0.1 -2.6,-0.1 z"
       id="path3773"
       inkscape:connector-curvature="0"
       style="fill:#3f403f" /><path
       d="m 301.3,488.1 -4.6,0 0,-10.1 c 0,-2.5 -0.8,-3.8 -2.7,-3.8 -1.3,0 -2.3,0.4 -2.9,1.3 -0.6,0.8 -0.8,2.3 -0.8,4.4 l 0,8 -4.6,0 0,-23.9 4.6,0 0,4.8 c 0,0.4 0,1.3 -0.2,2.7 l -0.2,1.5 0.2,0 c 1,-1.7 2.7,-2.5 5,-2.5 2.1,0 3.6,0.6 4.6,1.7 1,1.1 1.5,2.7 1.5,4.6 l 0,11.3 0.1,0 0,0 z"
       id="path3775"
       inkscape:connector-curvature="0"
       style="fill:#3f403f" /><path
       d="m 311.8,484.7 c 0.8,0 1.9,-0.2 2.9,-0.6 l 0,3.6 c -1.3,0.4 -2.5,0.8 -4.2,0.8 -1.9,0 -3.1,-0.4 -4.2,-1.5 -1,-1 -1.3,-2.3 -1.3,-4.2 l 0,-8.2 -2.3,0 0,-1.9 2.5,-1.5 1.3,-3.6 2.9,0 0,3.6 4.8,0 0,3.6 -4.6,0 0,8.2 c 0,0.6 0.2,1.3 0.6,1.5 0.4,0 1,0.2 1.6,0.2 z"
       id="path3777"
       inkscape:connector-curvature="0"
       style="fill:#3f403f" /><path
       d="m 334.1,488.1 -0.8,-2.3 -0.3,0 c -0.8,1.1 -1.7,1.7 -2.5,2.1 -0.8,0.4 -1.9,0.6 -3.4,0.6 -1.7,0 -2.9,-0.4 -4,-1.5 -1,-1 -1.5,-2.3 -1.5,-4 0,-1.9 0.6,-3.1 1.9,-4 1.3,-0.8 3.1,-1.3 5.7,-1.5 l 2.9,0 0,-0.8 c 0,-1.7 -0.8,-2.5 -2.7,-2.5 -1.5,0 -2.9,0.4 -4.8,1.3 l -1.5,-3.1 c 1.9,-1 4.2,-1.5 6.5,-1.5 2.3,0 4,0.4 5.2,1.5 1.2,1.1 1.9,2.5 1.9,4.6 l 0,11.5 -2.7,0 0.1,-0.4 0,0 z m -1.5,-8 -1.9,0 c -1.3,0 -2.3,0.2 -2.9,0.8 -0.6,0.4 -1,1 -1,2.1 0,1.3 0.8,1.9 2.3,1.9 1,0 1.9,-0.2 2.5,-0.8 0.6,-0.6 1,-1.5 1,-2.5 l 0,-1.5 0,0 z"
       id="path3779"
       inkscape:connector-curvature="0"
       style="fill:#3f403f" /><path
       d="m 356.6,488.1 -4.8,0 0,-10.1 c 0,-1.3 -0.2,-2.1 -0.6,-2.7 -0.4,-0.6 -1,-0.8 -2.1,-0.8 -1.3,0 -2.3,0.4 -2.9,1.3 -0.6,0.8 -0.8,2.3 -0.8,4.4 l 0,8 -4.6,0 0,-17.2 3.6,0 0.6,2.1 0.2,0 c 0.4,-0.8 1.3,-1.5 2.1,-1.9 0.8,-0.4 1.9,-0.6 3.1,-0.6 2.1,0 3.6,0.6 4.6,1.7 1,1.1 1.5,2.7 1.5,4.6 l 0,11.3 0.1,-0.1 0,0 z"
       id="path3781"
       inkscape:connector-curvature="0"
       style="fill:#3f403f" /><path
       d="m 374.5,470.9 0,2.3 -2.7,0.6 c 0.4,0.8 0.8,1.7 0.8,2.5 0,1.9 -0.6,3.4 -1.9,4.4 -1.3,1.1 -3.1,1.5 -5.5,1.5 l -0.8,0 -0.6,0 c -0.4,0.4 -0.6,0.8 -0.6,1.3 0,0.6 0.8,1 2.5,1 l 2.9,0 c 1.9,0 3.4,0.4 4.4,1.3 1.1,0.8 1.5,2.1 1.5,3.6 0,2.1 -0.8,3.6 -2.5,4.6 -1.7,1.1 -4,1.7 -7.1,1.7 -2.3,0 -4.2,-0.4 -5.5,-1.3 -1.3,-0.8 -1.9,-2.1 -1.9,-3.6 0,-1 0.4,-1.9 1,-2.5 0.6,-0.6 1.7,-1.3 2.9,-1.5 -0.4,-0.2 -0.8,-0.6 -1.3,-1.1 -0.4,-0.4 -0.6,-1 -0.6,-1.5 0,-0.6 0.2,-1.3 0.6,-1.7 0.4,-0.4 0.8,-0.8 1.7,-1.3 -0.8,-0.4 -1.7,-1 -2.1,-1.9 -0.6,-0.8 -0.8,-1.9 -0.8,-2.9 0,-1.9 0.6,-3.4 1.9,-4.4 1.3,-1 2.9,-1.5 5.2,-1.5 0.4,0 1,0 1.7,0.2 0.6,0 1.1,0.2 1.3,0.2 l 5.5,0 0,0 z m -13.1,19.7 c 0,0.6 0.2,1 0.8,1.5 0.6,0.4 1.5,0.6 2.5,0.6 1.7,0 2.9,-0.2 4,-0.6 1,-0.4 1.5,-1 1.5,-1.9 0,-0.6 -0.2,-1 -0.8,-1.3 -0.6,-0.2 -1.5,-0.4 -2.5,-0.4 l -2.5,0 c -0.8,0 -1.7,0.2 -2.1,0.6 -0.5,0.3 -0.9,0.9 -0.9,1.5 z m 1.7,-14.1 c 0,0.8 0.2,1.7 0.6,2.3 0.4,0.6 1,0.8 1.9,0.8 0.9,0 1.5,-0.2 1.9,-0.8 0.4,-0.6 0.6,-1.3 0.6,-2.3 0,-2.1 -0.8,-3.1 -2.5,-3.1 -1.8,0 -2.5,1 -2.5,3.1 z"
       id="path3783"
       inkscape:connector-curvature="0"
       style="fill:#3f403f" /><path
       d="m 383.5,488.5 c -2.7,0 -4.8,-0.8 -6.5,-2.3 -1.5,-1.5 -2.3,-3.8 -2.3,-6.5 0,-2.9 0.6,-5 2.1,-6.7 1.5,-1.7 3.4,-2.3 5.9,-2.3 2.5,0 4.4,0.6 5.7,2.1 1.3,1.5 2.1,3.4 2.1,5.7 l 0,2.3 -11.1,0 c 0,1.3 0.4,2.3 1.3,3.1 0.8,0.8 1.7,1.1 3.1,1.1 1.1,0 2.1,-0.2 2.9,-0.4 0.8,-0.2 1.9,-0.6 2.9,-1 l 0,3.6 c -0.8,0.4 -1.7,0.6 -2.7,0.8 -0.8,0.3 -1.9,0.5 -3.4,0.5 z M 382.9,474 c -1.1,0 -1.7,0.4 -2.3,0.8 -0.6,0.6 -0.8,1.5 -1,2.7 l 6.5,0 c 0,-1.3 -0.4,-2.1 -0.8,-2.7 -0.5,-0.6 -1.3,-0.8 -2.4,-0.8 z"
       id="path3785"
       inkscape:connector-curvature="0"
       style="fill:#3f403f" /><path
       d="m 404.8,488.1 -13.6,0 0,-2.7 8,-10.9 -7.6,0 0,-3.6 12.8,0 0,2.9 -7.8,10.5 8,0 0,3.8 0.2,0 z"
       id="path3787"
       inkscape:connector-curvature="0"
       style="fill:#3f403f" /><path
       d="m 414.4,488.5 c -2.7,0 -4.8,-0.8 -6.5,-2.3 -1.5,-1.5 -2.3,-3.8 -2.3,-6.5 0,-2.9 0.6,-5 2.1,-6.7 1.5,-1.7 3.4,-2.3 5.9,-2.3 2.5,0 4.4,0.6 5.7,2.1 1.3,1.5 2.1,3.4 2.1,5.7 l 0,2.3 -10.9,0 c 0,1.3 0.4,2.3 1.3,3.1 0.8,0.8 1.7,1.1 3.1,1.1 1,0 2.1,-0.2 2.9,-0.4 0.8,-0.2 1.9,-0.6 2.9,-1 l 0,3.6 c -0.8,0.4 -1.7,0.6 -2.7,0.8 -1.1,0.3 -2.3,0.5 -3.6,0.5 z M 413.8,474 c -1.1,0 -1.7,0.4 -2.3,0.8 -0.6,0.6 -0.8,1.5 -1,2.7 l 6.5,0 c 0,-1.3 -0.4,-2.1 -0.8,-2.7 -0.7,-0.6 -1.4,-0.8 -2.4,-0.8 z"
       id="path3789"
       inkscape:connector-curvature="0"
       style="fill:#3f403f" /><path
       d="m 423.4,466.5 c 0,-1.5 0.8,-2.3 2.5,-2.3 1.7,0 2.5,0.8 2.5,2.3 0,0.6 -0.2,1.3 -0.6,1.7 -0.4,0.4 -1,0.6 -1.9,0.6 -1.6,0 -2.5,-0.7 -2.5,-2.3 z m 4.9,21.6 -4.6,0 0,-17.2 4.6,0 0,17.2 z"
       id="path3791"
       inkscape:connector-curvature="0"
       style="fill:#3f403f" /><path
       d="m 446.5,470.9 0,2.3 -2.7,0.6 c 0.4,0.8 0.8,1.7 0.8,2.5 0,1.9 -0.6,3.4 -1.9,4.4 -1.3,1.1 -3.1,1.5 -5.5,1.5 l -0.8,0 -0.6,0 c -0.4,0.4 -0.6,0.8 -0.6,1.3 0,0.6 0.8,1 2.5,1 l 2.9,0 c 1.9,0 3.4,0.4 4.4,1.3 1,0.9 1.5,2.1 1.5,3.6 0,2.1 -0.8,3.6 -2.5,4.6 -1.7,1.1 -4,1.7 -7.1,1.7 -2.3,0 -4.2,-0.4 -5.5,-1.3 -1.3,-0.8 -1.9,-2.1 -1.9,-3.6 0,-1 0.4,-1.9 1,-2.5 0.6,-0.6 1.7,-1.3 2.9,-1.5 -0.4,-0.2 -0.8,-0.6 -1.3,-1.1 -0.4,-0.4 -0.6,-1 -0.6,-1.5 0,-0.6 0.2,-1.3 0.6,-1.7 0.4,-0.4 0.8,-0.8 1.7,-1.3 -0.8,-0.4 -1.7,-1 -2.1,-1.9 -0.6,-0.8 -0.8,-1.9 -0.8,-2.9 0,-1.9 0.6,-3.4 1.9,-4.4 1.3,-1 2.9,-1.5 5.2,-1.5 0.4,0 1,0 1.7,0.2 0.6,0 1.1,0.2 1.3,0.2 l 5.5,0 0,0 z m -13.2,19.7 c 0,0.6 0.2,1 0.8,1.5 0.6,0.4 1.5,0.6 2.5,0.6 1.7,0 2.9,-0.2 4,-0.6 1,-0.4 1.5,-1 1.5,-1.9 0,-0.6 -0.2,-1 -0.8,-1.3 -0.6,-0.2 -1.5,-0.4 -2.5,-0.4 l -2.5,0 c -0.8,0 -1.7,0.2 -2.1,0.6 -0.5,0.3 -0.9,0.9 -0.9,1.5 z m 1.7,-14.1 c 0,0.8 0.2,1.7 0.6,2.3 0.4,0.6 1,0.8 1.9,0.8 0.9,0 1.5,-0.2 1.9,-0.8 0.4,-0.6 0.6,-1.3 0.6,-2.3 0,-2.1 -0.8,-3.1 -2.5,-3.1 -1.5,0 -2.5,1 -2.5,3.1 z"
       id="path3793"
       inkscape:connector-curvature="0"
       style="fill:#3f403f" /><path
       d="m 455.2,484.7 c 0.8,0 1.9,-0.2 2.9,-0.6 l 0,3.6 c -1.3,0.4 -2.5,0.8 -4.2,0.8 -1.9,0 -3.1,-0.4 -4.2,-1.5 -1.1,-1 -1.3,-2.3 -1.3,-4.2 l 0,-8.2 -2.3,0 0,-1.9 2.5,-1.5 1.3,-3.6 2.9,0 0,3.6 4.8,0 0,3.6 -4.8,0 0,8.2 c 0,0.6 0.2,1.3 0.6,1.5 0.7,0 1.1,0.2 1.8,0.2 z"
       id="path3795"
       inkscape:connector-curvature="0"
       style="fill:#3f403f" /><path
       d="m 480.8,488.1 -1.3,-6.1 -1.7,-7.6 -0.2,0 -3.1,13.6 -5,0 -4.8,-17.2 4.6,0 1.9,7.6 c 0.4,1.5 0.6,3.1 1,5.7 l 0,0 c 0,-0.8 0.2,-2.1 0.6,-3.8 l 0.2,-1.3 2.1,-8.2 5.2,0 2.1,8.2 c 0,0.2 0,0.6 0.2,1 0,0.4 0.2,0.8 0.2,1.5 0,0.4 0.2,1 0.2,1.5 0,0.4 0,0.8 0.2,1 l 0,0 c 0,-0.6 0.2,-1.7 0.4,-2.9 0.2,-1.3 0.4,-2.1 0.4,-2.5 l 2.1,-7.6 4.6,0 -5,17.2 -5,0 0.1,-0.1 0,0 z"
       id="path3797"
       inkscape:connector-curvature="0"
       style="fill:#3f403f" /><path
       d="m 499.7,488.5 c -2.7,0 -4.8,-0.8 -6.5,-2.3 -1.5,-1.5 -2.3,-3.8 -2.3,-6.5 0,-2.9 0.6,-5 2.1,-6.7 1.5,-1.7 3.4,-2.3 5.9,-2.3 2.5,0 4.4,0.6 5.7,2.1 1.3,1.5 2.1,3.4 2.1,5.7 l 0,2.3 -11.1,0 c 0,1.3 0.4,2.3 1.3,3.1 0.8,0.8 1.7,1.1 3.1,1.1 1,0 2.1,-0.2 2.9,-0.4 0.8,-0.2 1.9,-0.6 2.9,-1 l 0,3.6 c -0.8,0.4 -1.7,0.6 -2.7,0.8 -0.9,0.3 -2,0.5 -3.4,0.5 z M 499,474 c -1,0 -1.7,0.4 -2.3,0.8 -0.6,0.6 -0.8,1.5 -1,2.7 l 6.5,0 c 0,-1.3 -0.4,-2.1 -0.8,-2.7 -0.5,-0.6 -1.3,-0.8 -2.4,-0.8 z"
       id="path3799"
       inkscape:connector-curvature="0"
       style="fill:#3f403f" /><path
       d="m 518.5,470.7 c 0.6,0 1.3,0 1.7,0.2 l -0.4,4.4 c -0.4,0 -0.8,-0.2 -1.5,-0.2 -1.5,0 -2.7,0.4 -3.6,1.1 -0.8,0.8 -1.3,1.9 -1.3,3.1 l 0,8.8 -4.6,0 0,-17.2 3.6,0 0.6,2.9 0.2,0 c 0.6,-1 1.3,-1.7 2.1,-2.3 1.1,-0.6 2.1,-0.8 3.2,-0.8 z"
       id="path3801"
       inkscape:connector-curvature="0"
       style="fill:#3f403f" /><path
       d="m 527.1,488.5 c -2.1,0 -3.6,-0.8 -4.8,-2.3 -1,-1.5 -1.7,-3.8 -1.7,-6.5 0,-2.7 0.6,-5 1.7,-6.5 1.3,-1.7 2.7,-2.3 4.8,-2.3 2.1,0 3.8,0.8 5,2.5 l 0.2,0 c -0.2,-1.3 -0.4,-2.5 -0.4,-3.4 l 0,-5.5 4.6,0 0,23.9 -3.5,0 -0.8,-2.3 -0.2,0 c -1.1,1.6 -2.8,2.4 -4.9,2.4 z m 1.7,-3.8 c 1.3,0 2.1,-0.4 2.7,-1 0.6,-0.6 0.8,-1.9 0.8,-3.6 l 0,-0.4 c 0,-1.9 -0.2,-3.1 -0.8,-4 -0.6,-0.8 -1.5,-1.3 -2.7,-1.3 -1.1,0 -1.9,0.4 -2.5,1.3 -0.6,0.9 -0.8,2.1 -0.8,3.8 0,1.7 0.2,2.9 0.8,3.8 0.6,1 1.2,1.4 2.5,1.4 z"
       id="path3803"
       inkscape:connector-curvature="0"
       style="fill:#3f403f" /><path
       d="m 547.7,488.5 c -2.7,0 -4.8,-0.8 -6.5,-2.3 -1.5,-1.5 -2.3,-3.8 -2.3,-6.5 0,-2.9 0.6,-5 2.1,-6.7 1.5,-1.7 3.4,-2.3 5.9,-2.3 2.5,0 4.4,0.6 5.7,2.1 1.3,1.5 2.1,3.4 2.1,5.7 l 0,2.3 -11.1,0 c 0,1.3 0.4,2.3 1.3,3.1 0.8,0.8 1.7,1.1 3.1,1.1 1.1,0 2.1,-0.2 2.9,-0.4 0.8,-0.2 1.9,-0.6 2.9,-1 l 0,3.6 c -0.8,0.4 -1.7,0.6 -2.7,0.8 -0.9,0.3 -2,0.5 -3.4,0.5 z M 547,474 c -1,0 -1.7,0.4 -2.3,0.8 -0.6,0.6 -0.8,1.5 -1,2.7 l 6.5,0 c 0,-1.3 -0.4,-2.1 -0.8,-2.7 -0.5,-0.6 -1.3,-0.8 -2.4,-0.8 z"
       id="path3805"
       inkscape:connector-curvature="0"
       style="fill:#3f403f" /><path
       d="m 572.9,488.1 -4.6,0 0,-10.1 c 0,-1.3 -0.2,-2.1 -0.6,-2.7 -0.4,-0.6 -1,-0.8 -2.1,-0.8 -1.3,0 -2.3,0.4 -2.9,1.3 -0.6,0.8 -0.8,2.3 -0.8,4.4 l 0,8 -4.6,0 0,-17.2 3.6,0 0.6,2.1 0.2,0 c 0.4,-0.8 1.3,-1.5 2.1,-1.9 0.8,-0.4 1.9,-0.6 3.1,-0.6 2.1,0 3.6,0.6 4.6,1.7 1,1.1 1.5,2.7 1.5,4.6 l -0.1,11.2 0,0 z"
       id="path3807"
       inkscape:connector-curvature="0"
       style="fill:#3f403f" /></g></svg>