<svg version="1" xmlns="http://www.w3.org/2000/svg" width="28" height="28" viewBox="0 0 28 28"><path fill="#d1e3ff" d="M16.999 8.44c1.187.565 2.187 1.453 2.891 2.56 1.253 1.947 1.464 4.388.562 6.52-.342.816-.835 1.559-1.451 2.19-.642.637-1.397 1.146-2.229 1.5-.862.359-1.787.544-2.72.54-.938.008-1.867-.175-2.73-.54-.828-.354-1.581-.865-2.22-1.5-.638-.638-1.147-1.391-1.5-2.22-.91-2.116-.719-4.542.508-6.49.704-1.107 1.705-1.995 2.89-2.56v1.13c-.896.515-1.643 1.252-2.17 2.14-.548.904-.835 1.943-.83 3-.014 1.605.616 3.151 1.75 4.29.545.55 1.195.985 1.91 1.28 1.498.625 3.183.625 4.681 0 .715-.295 1.364-.73 1.908-1.28 1.125-1.127 1.756-2.656 1.751-4.249.005-1.059-.281-2.097-.83-3.001-.521-.902-1.27-1.654-2.171-2.18v-1.13zm-2.999 6.311c-.268.005-.527-.096-.72-.281-.187-.193-.287-.452-.281-.72v-7c-.001-.261.099-.512.281-.699.383-.398 1.016-.41 1.414-.026.196.189.308.451.306.725v7.001c.009.272-.101.534-.3.72-.188.179-.439.28-.7.28z"/></svg>