<?xml version="1.0" encoding="utf-8"?>
<!-- Generator: Adobe Illustrator 16.0.4, SVG Export Plug-In . SVG Version: 6.00 Build 0)  -->
<!DOCTYPE svg PUBLIC "-//W3C//DTD SVG 1.1//EN" "http://www.w3.org/Graphics/SVG/1.1/DTD/svg11.dtd">
<svg version="1.1" id="Layer_1" xmlns="http://www.w3.org/2000/svg" xmlns:xlink="http://www.w3.org/1999/xlink" x="0px" y="0px"
	 width="233.737px" height="44.395px" viewBox="0 0 233.737 44.395" enable-background="new 0 0 233.737 44.395"
	 xml:space="preserve">
<g>
	<path fill="#FFFFFF" d="M5.268,22.316c0-7.793,1.628-13.973,2.503-16.725l6.58-0.317V0L4.057,0.494l-0.632,1.56
		C3.283,2.4,0,10.635,0,22.316C0,33.992,3.283,42.232,3.425,42.58l0.652,1.61l10.273,0.204v-5.273l-6.601-0.13
		C6.873,36.227,5.268,30.104,5.268,22.316z"/>
	<path fill="#FFFFFF" d="M22.585,26.332c0.328-0.694,0.663-1.394,0.98-2.104c2.118-4.748,3.817-9.911,4.098-10.783l-5.53-0.18
		c-0.541,1.57-1.435,4.076-2.49,6.645c-1.039-2.6-1.887-5.137-2.375-6.673l-5.467,0.266c0.338,1.138,1.881,6.19,3.94,10.806
		c1.363,3.053,3.065,6.314,4.243,8.489l5.982-0.12C25.92,32.598,24.297,29.723,22.585,26.332z"/>
	<path fill="#FFFFFF" d="M36.454,2.054l-0.631-1.56L25.506,0v5.274l6.604,0.317c0.874,2.754,2.502,8.932,2.502,16.725
		c0,7.742-1.61,13.896-2.487,16.675l-6.618,0.13v5.273l10.297-0.204l0.654-1.61c0.139-0.348,3.421-8.588,3.421-20.264
		C39.878,10.635,36.596,2.4,36.454,2.054z"/>
</g>
<g>
	<path fill="#FFFFFF" d="M78.13,15.283c-1.342-0.997-2.76-1.495-4.255-1.495c-1.802,0-3.564,0.881-4.523,2.3
		c-1.035,1.533-1.495,3.756-1.495,6.861c0,3.641,0.307,5.673,1.111,7.129c1.073,1.955,2.836,2.99,5.136,2.99
		c1.572,0,2.99-0.46,4.561-1.725l2.453,3.373c-2.108,1.725-4.369,2.492-7.397,2.492c-3.68,0-6.516-1.188-8.701-3.68
		c-2.146-2.415-3.22-5.634-3.22-9.544c0-3.334,0.575-5.979,1.802-8.279c2.07-3.871,5.903-6.171,10.196-6.171
		c2.645,0,5.29,0.843,6.746,2.108L78.13,15.283z"/>
	<path fill="#FFFFFF" d="M98.103,19.69c1.572,1.84,2.262,3.986,2.262,7.168c0,3.373-0.767,5.673-2.453,7.589
		c-1.495,1.687-3.449,2.721-6.478,2.721c-5.328,0-8.816-3.986-8.816-10.157s3.526-10.272,8.816-10.272
		C94.231,16.739,96.416,17.697,98.103,19.69z M88.865,22.527c-0.345,1.035-0.536,2.415-0.536,4.369c0,2.262,0.229,3.948,0.651,4.945
		c0.46,1.073,1.609,1.61,2.606,1.61c2.223,0,3.182-1.993,3.182-6.631c0-2.645-0.346-4.37-1.035-5.251
		c-0.498-0.652-1.304-1.035-2.224-1.035C90.283,20.534,89.287,21.301,88.865,22.527z"/>
	<path fill="#FFFFFF" d="M108.226,16.777c0.345,0.537,0.498,0.997,0.689,1.993c1.342-1.303,2.99-1.993,4.791-1.993
		c1.61,0,2.952,0.537,3.986,1.61c0.269,0.268,0.537,0.613,0.767,0.958c1.802-1.84,3.412-2.568,5.559-2.568
		c1.533,0,2.989,0.46,3.871,1.227c1.111,0.958,1.456,2.108,1.456,4.792v13.952h-4.982V23.792c0-2.338-0.269-2.798-1.61-2.798
		c-0.958,0-2.3,0.651-3.411,1.648v14.105h-4.868V23.983c0-2.453-0.345-3.028-1.763-3.028c-0.958,0-2.262,0.499-3.373,1.495v14.297
		h-5.021V23.063c0-2.836-0.191-4.062-0.729-5.021L108.226,16.777z"/>
	<path fill="#FFFFFF" d="M138.588,16.777c0.345,0.537,0.498,0.997,0.689,1.993c1.342-1.303,2.99-1.993,4.791-1.993
		c1.61,0,2.952,0.537,3.986,1.61c0.269,0.268,0.537,0.613,0.767,0.958c1.802-1.84,3.412-2.568,5.559-2.568
		c1.533,0,2.989,0.46,3.871,1.227c1.111,0.958,1.456,2.108,1.456,4.792v13.952h-4.982V23.792c0-2.338-0.269-2.798-1.61-2.798
		c-0.958,0-2.3,0.651-3.411,1.648v14.105h-4.868V23.983c0-2.453-0.345-3.028-1.763-3.028c-0.958,0-2.262,0.499-3.373,1.495v14.297
		h-5.021V23.063c0-2.836-0.191-4.062-0.729-5.021L138.588,16.777z"/>
	<path fill="#FFFFFF" d="M180.334,34.562c-2.261,1.84-4.638,2.722-7.397,2.722c-5.635,0-9.275-3.986-9.275-10.157
		c0-3.526,0.728-5.865,2.453-7.781c1.609-1.802,3.564-2.645,6.171-2.645c2.262,0,4.408,0.767,5.673,2.069
		c1.802,1.84,2.606,4.485,2.606,8.586c0,0.422,0,0.844,0,1.188h-11.346v0.153c0,3.028,1.495,4.753,4.14,4.753
		c1.763,0,3.411-0.651,4.982-1.955L180.334,34.562z M175.236,24.789v-0.23c0-1.457-0.153-2.223-0.613-2.951
		c-0.498-0.767-1.227-1.15-2.262-1.15c-1.954,0-3.066,1.533-3.066,4.255v0.077H175.236z"/>
	<path fill="#FFFFFF" d="M188.387,16.663c0.46,0.805,0.729,1.687,0.805,2.798c0.729-0.997,1.955-2.07,2.913-2.492
		c0.422-0.192,1.111-0.307,1.687-0.307c0.767,0,1.111,0.077,1.917,0.421l-1.419,4.523c-0.498-0.269-0.92-0.384-1.494-0.384
		c-1.15,0-2.186,0.537-3.144,1.648v13.875h-5.136V23.639c0-2.645-0.307-4.638-0.729-5.75L188.387,16.663z"/>
	<path fill="#FFFFFF" d="M208.856,22.182c-1.034-0.958-2.146-1.533-3.104-1.533c-2.3,0-3.335,1.993-3.335,6.593
		c0,2.568,0.346,4.101,0.997,4.945c0.536,0.689,1.418,1.111,2.3,1.111c1.188,0,2.262-0.498,3.526-1.61l0.307-0.268l2.338,3.104
		c-0.767,0.767-1.111,1.035-1.802,1.457c-1.38,0.805-2.913,1.227-4.791,1.227c-5.404,0-8.548-3.756-8.548-10.119
		c0-4.523,1.726-7.513,4.025-9.084c1.303-0.881,3.22-1.456,4.867-1.456c1.304,0,2.722,0.307,3.795,0.881
		c0.729,0.383,1.073,0.652,1.917,1.38L208.856,22.182z"/>
	<path fill="#FFFFFF" d="M230.247,34.562c-2.261,1.84-4.638,2.722-7.397,2.722c-5.635,0-9.275-3.986-9.275-10.157
		c0-3.526,0.728-5.865,2.453-7.781c1.609-1.802,3.564-2.645,6.171-2.645c2.262,0,4.408,0.767,5.673,2.069
		c1.802,1.84,2.606,4.485,2.606,8.586c0,0.422,0,0.844,0,1.188h-11.346v0.153c0,3.028,1.495,4.753,4.14,4.753
		c1.763,0,3.411-0.651,4.982-1.955L230.247,34.562z M225.149,24.789v-0.23c0-1.457-0.153-2.223-0.613-2.951
		c-0.498-0.767-1.227-1.15-2.262-1.15c-1.954,0-3.066,1.533-3.066,4.255v0.077H225.149z"/>
</g>
</svg>
