<svg xmlns="http://www.w3.org/2000/svg" width="28" height="28" viewBox="0 0 28 28"><path fill="#d1e8ff" d="M12 15.749c.537-.002 1.068.106 1.56.321.476.199.907.491 1.27.859.365.368.657.804.86 1.28.207.486.312 1.011.311 1.541v1.999h-10.001v-1.999c-.003-.53.102-1.055.31-1.541.203-.477.494-.912.859-1.28.365-.37.8-.661 1.281-.859.489-.212 1.017-.321 1.55-.321h2zm3 4.002c.015-.797-.301-1.564-.87-2.121-.56-.572-1.33-.889-2.13-.88h-2c-.798-.01-1.565.308-2.121.88-.575.553-.895 1.321-.879 2.121v.998h8v-.998zm-1-7.001c.016.799-.298 1.57-.87 2.13-.562.568-1.331.884-2.13.869-1.657 0-3-1.342-3-2.999-.015-.799.304-1.567.88-2.12.555-.573 1.323-.891 2.12-.88.8-.008 1.569.309 2.13.88.57.557.885 1.324.87 2.12zm-3 2.001c.526.002 1.034-.203 1.41-.571.784-.779.787-2.045.008-2.829-.779-.784-2.045-.787-2.828-.008-.784.779-.788 2.045-.009 2.828l.009.009c.377.368.883.573 1.41.571zm10.001-5.001c.176.02.344.075.499.16.138.068.255.172.341.3.115.155.173.347.158.54v3c-.057.526-.473.942-.998 1h-5c-.176.002-.348-.038-.501-.121-.136-.072-.251-.175-.339-.3-.12-.169-.176-.374-.161-.58v-3c-.01-.199.046-.396.161-.56.086-.128.203-.234.339-.31.151-.086.325-.132.501-.13v-2c.012-.174.05-.346.108-.51.084-.244.218-.469.391-.66.221-.241.485-.438.78-.58.392-.176.82-.262 1.25-.25.414-.011.828.053 1.221.19.277.106.532.267.749.47.183.176.316.397.391.64.069.227.107.463.11.7v.19h-1.001v-.439c-.018-.12-.071-.23-.149-.32-.124-.136-.273-.245-.44-.32-.273-.105-.566-.153-.859-.14-.299-.012-.597.042-.87.161-.179.079-.34.194-.471.339-.107.146-.173.32-.189.5v2l3.979.03zm-1.341 4l-.66-1.15c.147-.084.272-.205.36-.35.093-.15.142-.323.139-.5.003-.261-.098-.512-.278-.699-.384-.398-1.018-.41-1.415-.026l-.025.026c-.181.188-.281.438-.28.699-.003.177.046.351.14.5.088.146.212.266.36.35l-.591 1.15h2.25z"/></svg>