<svg version="1" xmlns="http://www.w3.org/2000/svg" width="28" height="28" viewBox="0 0 28 28"><path fill="#d1e8ff" d="M15.169 6.2c.897-.008 1.786.169 2.611.52.799.34 1.523.829 2.141 1.44.619.61 1.113 1.337 1.449 2.14.693 1.678.693 3.562 0 5.24-.693 1.613-1.979 2.896-3.59 3.59-.825.35-1.714.527-2.611.521-.902.007-1.797-.171-2.629-.521-.803-.336-1.53-.829-2.14-1.449-.597-.62-1.072-1.346-1.4-2.141-.693-1.678-.693-3.562 0-5.24.681-1.615 1.966-2.899 3.58-3.581.82-.344 1.7-.521 2.589-.519zm0 12.611c.784.005 1.56-.152 2.281-.461 1.419-.591 2.547-1.722 3.141-3.139.612-1.463.612-3.109 0-4.571-.594-1.42-1.722-2.548-3.141-3.14-1.465-.614-3.115-.614-4.58 0-.698.298-1.331.726-1.87 1.26-.535.541-.963 1.179-1.26 1.88-.613 1.462-.613 3.108 0 4.571.297.7.725 1.338 1.26 1.879.539.534 1.172.962 1.87 1.26.726.312 1.509.468 2.299.461zm.231-5.441l.5.42v.949l-1.23 1.262-.061.148-.079.37-.101.4v.421l-.109.1h-.13l-.19-.549-.29-.65c-.056-.228-.096-.457-.12-.69 0-.261-.07-.55-.12-.86l-.77-.691.65-.82-.291-.36c-.426.003-.835-.171-1.13-.48l-.18-.13-.179-.21.28.53-.18.08-.39-.79.08-.69-.16-.52-.48-.29-.101-.29c.026-.163.104-.314.221-.43.158-.197.336-.378.53-.54.184-.166.381-.317.589-.45.132-.098.288-.16.451-.18.182.012.357.07.51.17.142.097.308.156.479.17v.08c0 .07 0 .11.08.13l-.479 1.02.521.1.42-.42h.74l.16.399-.42.44v.29h.23l.13-.21.479-.32v.21l.211.351-.24.23.159.13h-.341l.132.26-.691.34.11.45h-.21l-.11-.45h-.55l-.08.16-.23-.1-.339.36.28.32v.37l.31.21 1.729.25zm.371-4.6c.183-.186.384-.353.6-.5.207-.14.437-.281.69-.421.173.182.377.334.601.45l-.262.14c-.109.097-.207.208-.29.33l-.259.42-.211.351-.24.15c-.101 0-.189-.08-.25-.23l-.09-.21c-.104-.009-.205.02-.289.081-.071-.063-.166-.092-.261-.081h-.159c.125-.171.266-.332.42-.48zm4.278 2.95c.227.096.371.317.371.56.017.24.017.48 0 .72.006.623-.128 1.237-.391 1.801-.259.56-.519 1.09-.759 1.589-.062 0-.081-.06-.081-.18.005-.229.031-.456.081-.681.051-.296.078-.598.08-.899v-.21l-.061-.23-.289-.61-1-.23-.27-.561.189-.86.461-.1c.222-.043.438-.117.639-.22l.131.049h.65l.249.062zm-1.519-2.47l-.291.05.101-.42h.319l.051.21-.18.16zm1.231 1c0 .09.069.18.109.25l.101.281-.231.21-.398-.081-.132.42-.499-.21.289-.44h.631v-.32l.13-.11zm-.761-.16l-.081-.21.111-.19.129.21-.159.19zm.37-.29l-.161-.24.081-.23.5.55-.24.229h-.26l.24-.26-.16-.049zm.47 1.52h.24v.21l-.24-.21zM15.28 21.999c-5.125-.001-9.278-4.157-9.276-9.283.001-2.459.978-4.817 2.716-6.556.212-.212.558-.212.77 0 .213.212.213.558 0 .77-3.263 3.133-3.369 8.317-.236 11.581 3.132 3.263 8.317 3.369 11.579.235l.237-.235c.212-.214.558-.214.771 0 .212.212.212.557 0 .769-1.737 1.745-4.1 2.725-6.561 2.719z"/></svg>