<?xml version="1.0" encoding="utf-8"?>
<!-- Generator: Adobe Illustrator 16.0.4, SVG Export Plug-In . SVG Version: 6.00 Build 0)  -->
<!DOCTYPE svg PUBLIC "-//W3C//DTD SVG 1.0//EN" "http://www.w3.org/TR/2001/REC-SVG-20010904/DTD/svg10.dtd">
<svg version="1.0" id="Ebene_1" xmlns="http://www.w3.org/2000/svg" xmlns:xlink="http://www.w3.org/1999/xlink" x="0px" y="0px"
	 width="24px" height="24px" viewBox="0 0 24 24" enable-background="new 0 0 24 24" xml:space="preserve">
<g>
	<g>
		<path fill="#0486E0" d="M12,6.634c1.018,0,1.855-0.787,1.981-1.803C13.992,4.745,14,4.655,14,4.567C14,3.425,13.104,2.5,12,2.5
			s-2,0.925-2,2.067c0,0.088,0.008,0.178,0.019,0.264C10.144,5.847,10.982,6.634,12,6.634z M12,9.935c-1.104,0-2,0.924-2,2.066
			c0,0.087,0.008,0.177,0.019,0.264c0.125,1.014,0.964,1.801,1.981,1.801s1.855-0.787,1.981-1.801
			C13.992,12.178,14,12.088,14,12.001C14,10.859,13.104,9.935,12,9.935z M12,17.367c-1.104,0-2,0.928-2,2.066
			c0,0.09,0.008,0.178,0.019,0.264C10.144,20.715,10.982,21.5,12,21.5s1.855-0.785,1.981-1.803C13.992,19.611,14,19.523,14,19.434
			C14,18.295,13.104,17.367,12,17.367z"/>
	</g>
</g>
</svg>
