<?xml version="1.0" encoding="UTF-8" standalone="no"?>
<!-- Generator: Adobe Illustrator 18.0.0, SVG Export Plug-In . SVG Version: 6.00 Build 0)  -->

<svg
   xmlns:dc="http://purl.org/dc/elements/1.1/"
   xmlns:cc="http://creativecommons.org/ns#"
   xmlns:rdf="http://www.w3.org/1999/02/22-rdf-syntax-ns#"
   xmlns:svg="http://www.w3.org/2000/svg"
   xmlns="http://www.w3.org/2000/svg"
   xmlns:sodipodi="http://sodipodi.sourceforge.net/DTD/sodipodi-0.dtd"
   xmlns:inkscape="http://www.inkscape.org/namespaces/inkscape"
   version="1.1"
   id="Layer_1"
   x="0px"
   y="0px"
   viewBox="0 0 1152 576"
   enable-background="new 0 0 576 576"
   xml:space="preserve"
   inkscape:version="0.91 r13725"
   sodipodi:docname="404_ZH_wide.svg"

><metadata
     id="metadata3387"><rdf:RDF><cc:Work
         rdf:about=""><dc:format>image/svg+xml</dc:format><dc:type
           rdf:resource="http://purl.org/dc/dcmitype/StillImage" /><dc:title></dc:title></cc:Work></rdf:RDF></metadata><defs
     id="defs3385" /><sodipodi:namedview
     pagecolor="#ffffff"
     bordercolor="#666666"
     borderopacity="1"
     objecttolerance="10"
     gridtolerance="10"
     guidetolerance="10"
     inkscape:pageopacity="0"
     inkscape:pageshadow="2"
     inkscape:window-width="1920"
     inkscape:window-height="1113"
     id="namedview3383"
     showgrid="false"
     inkscape:zoom="0.78993056"
     inkscape:cx="50.854696"
     inkscape:cy="252.73666"
     inkscape:window-x="0"
     inkscape:window-y="23"
     inkscape:window-maximized="0"
     inkscape:current-layer="Layer_1" /><g
     enable-background="new    "
     id="g3337"
     transform="translate(287.9,0)"><path
       d="m 194.1,265.6 -38,0 0,58.8 -27.8,0 0,-58.8 -124.4,0 0,-25.4 121.4,-173 30.8,0 0,172 38,0 0,26.4 z m -65.8,-26.5 0,-85 c 0,-16.7 0.6,-35.5 1.7,-56.5 l -1.4,0 c -5.6,11.2 -10.8,20.5 -15.7,27.8 L 33,239.1 l 95.3,0 z"
       id="path3339"
       inkscape:connector-curvature="0"
       style="fill:#3f403f" /><path
       d="m 372.5,196.1 c 0,44.2 -7,77.2 -20.9,99 -13.9,21.8 -35.2,32.7 -63.9,32.7 -27.5,0 -48.5,-11.2 -62.8,-33.5 -14.3,-22.3 -21.5,-55.1 -21.5,-98.2 0,-44.5 6.9,-77.6 20.8,-99.2 13.9,-21.6 35,-32.4 63.5,-32.4 27.8,0 48.8,11.3 63.2,33.8 14.4,22.5 21.6,55.1 21.6,97.8 z m -139.8,0 c 0,37.2 4.4,64.3 13.1,81.3 8.7,17 22.7,25.5 41.8,25.5 19.4,0 33.4,-8.6 42.1,-25.8 8.7,-17.2 13,-44.2 13,-80.9 0,-36.7 -4.3,-63.6 -13,-80.7 C 321,98.3 307,89.8 287.6,89.8 c -19.1,0 -33.1,8.4 -41.8,25.3 -8.7,16.8 -13.1,43.8 -13.1,81 z"
       id="path3341"
       inkscape:connector-curvature="0"
       style="fill:#3f403f" /><path
       d="m 572.2,265.6 -38,0 0,58.8 -27.8,0 0,-58.8 -124.3,0 0,-25.4 121.4,-173 30.8,0 0,172 38,0 0,26.4 z m -65.7,-26.5 0,-85 c 0,-16.7 0.6,-35.5 1.8,-56.5 l -1.4,0 c -5.6,11.2 -10.8,20.5 -15.7,27.8 l -79.9,113.7 95.2,0 z"
       id="path3343"
       inkscape:connector-curvature="0"
       style="fill:#3f403f" /></g><g
     enable-background="new    "
     id="g3345"
     transform="translate(288.73109,0)"><path
       d="m 147.4,353.9 c -1,2.3 -2.1,5.9 -2.7,8.1 4.9,-0.4 11.9,-0.4 17.2,0.4 2.7,0.4 4.4,1.5 5.6,3.3 0.9,1.4 1.5,3.3 1.7,5.4 0.8,7.7 0.7,16.4 0.4,21.8 l -5.1,0.5 c 0.4,-7 0.5,-14.1 -0.1,-21 -0.1,-1.3 -0.4,-2.5 -0.9,-3.5 -0.7,-1.2 -1.7,-2 -3.3,-2.2 -9.4,-1.5 -26,0.2 -34.9,2 -1.1,7.7 -1.5,17.6 -1.4,26 l -5.1,0.2 c 0,-8.4 0.4,-17 1.2,-25 -0.5,0.1 -1.1,0.1 -1.7,0.3 -0.1,-1.5 -0.1,-2.8 0.3,-3.6 0.4,-0.9 1.3,-1.6 3,-1.9 5.7,-1.2 11.2,-2 17.5,-2.5 0.5,-1.8 1.7,-5.8 2.5,-8 -9.5,0.3 -18.9,1.3 -28.3,2.6 0,-1.7 0,-2.9 0.4,-3.8 0.4,-0.7 1.1,-1.2 2.4,-1.4 19,-2.2 39.2,-3.2 59.3,-3 l 0,4.6 c -9.2,0.1 -18.6,0.3 -28,0.7 z m 26.5,56.7 c -9.9,-5.7 -19.8,-10.7 -30.2,-15.4 -9.5,4.8 -18.8,10.2 -27.9,15.7 -0.8,-1.2 -1.2,-2.4 -1.3,-3.4 -0.1,-1.1 0.4,-2 1.5,-2.7 7.8,-4.8 18.6,-10.6 25.5,-13.9 0.2,-7.2 0.4,-13.8 0.1,-20.9 l 4.9,-0.4 c 0.4,6.8 0.4,14.4 0,21.3 8.8,4.1 17.5,8.3 26.2,12.8 1.2,0.7 1.8,1.8 2,3 0,1.5 -0.4,2.9 -0.8,3.9 z"
       id="path3347"
       inkscape:connector-curvature="0"
       style="fill:#3f403f" /><path
       d="m 218.4,354.4 c -0.9,2.5 -1.7,5.1 -2.4,7.6 3.9,-0.1 11.3,-0.3 15.9,-0.4 2.8,-0.1 5.4,0.7 7.3,2 2.3,1.7 3.7,4.2 4,7.7 0.9,9.6 1.8,23.6 1.8,37.1 -17.9,-0.1 -38.9,0.4 -56.1,2.2 -0.3,-13.5 0.8,-29.1 1.9,-40.6 -1.1,0.1 -2,0.4 -3.2,0.5 0.1,-1.1 0.1,-2.6 0.7,-3.8 0.4,-0.9 1.2,-1.5 2.3,-1.7 6,-1.1 13.8,-1.8 20.4,-2.4 0.9,-2.5 1.7,-5 2.5,-7.8 -9.5,0.6 -19.1,1.2 -28.3,2.9 0.1,-0.9 0.2,-2.1 0.6,-3.1 0.3,-1 0.9,-1.9 2,-2.1 11.2,-1.7 41.2,-3.6 59,-3.5 0.1,1.3 0.1,3.8 0,4.9 -10.6,0 -18.8,0 -28.4,0.5 z m -22.5,14.5 c -1.2,12.3 -2,23.9 -2,36.5 2.5,-0.2 7.6,-0.6 10.4,-0.8 0,-12.5 0.1,-24.2 0.9,-36.9 -2.7,0.2 -6.4,0.7 -9.3,1.2 z m 27.2,24 c -4.6,0.2 -9.4,0.5 -13.8,1.1 -0.1,2.6 -0.1,7.8 0,10.4 3.5,-0.1 10.4,-0.5 13.8,-0.6 0.3,-3.6 0.2,-7.1 0,-10.9 z M 222.6,378 c -4.4,0.1 -8.8,0.6 -13,1 -0.3,3.3 -0.4,7.4 -0.3,10.2 4.5,-0.6 9.1,-0.7 13.7,-1 0.1,-2.4 -0.2,-7.6 -0.4,-10.2 z m -0.9,-11.7 c -3.8,0.2 -7.6,0.5 -11.4,0.9 -0.1,2 -0.4,5.7 -0.5,7.4 4.1,-0.4 8.3,-0.9 12.5,-0.9 -0.1,-1.9 -0.4,-5.4 -0.6,-7.4 z m 15.9,3.5 c -0.4,-2.2 -2.4,-3.3 -4.4,-3.5 -2.3,-0.2 -4.6,-0.1 -6.7,-0.1 1.1,12.3 1.7,25.3 1.8,37.3 2.8,-0.1 8.1,-0.1 11.2,-0.2 0.2,-10.5 0.1,-24.1 -1.9,-33.5 z"
       id="path3349"
       inkscape:connector-curvature="0"
       style="fill:#3f403f" /><path
       d="m 294.4,378.4 c 7.9,6.3 16.3,12.9 23.4,20.8 1,1.1 0.6,2.8 -0.1,4.1 -0.4,1 -1.1,2 -1.6,2.5 -7.5,-9.2 -16.7,-17.5 -25.8,-24.9 0,8.8 0,19.7 -0.7,29.6 -1.2,-0.1 -3.5,-0.1 -5.1,-0.1 0.5,-8 0.9,-20.9 0.7,-30.1 -9.4,8.3 -18.6,17.8 -26.4,27.3 -0.4,-0.7 -1.1,-1.6 -1.5,-2.5 -0.7,-1.4 -1.1,-2.8 -0.1,-4 3.7,-4.9 17,-17.5 22.4,-22 -6,0.4 -16.5,1.7 -22,3.3 -0.1,-1 -0.1,-2.1 0.1,-3 0.2,-1.2 0.8,-2.2 2.2,-2.6 8.3,-1.8 16.4,-2.4 25.2,-2.8 0.1,-3.9 -0.1,-8 -0.4,-12 -7.1,0.3 -16.7,1.2 -23.7,3 -0.1,-0.9 -0.1,-1.7 0.1,-2.5 0.2,-1.4 0.9,-2.5 2.2,-2.8 5.4,-1.2 15.6,-2 21.1,-2.3 0,-2.8 -0.1,-5.9 -0.4,-8.7 1.1,0.1 3.5,0.1 5,0.1 0.3,2.5 0.4,6.1 0.5,8.3 5.6,-0.1 17.3,-0.2 23.1,-0.1 0,1 0.1,3.5 0,4.9 -6.7,-0.1 -16.8,-0.1 -22.9,0.1 0.2,3 0.4,8.2 0.5,11.8 8.5,-0.2 20.4,-0.3 27.7,-0.2 0,1.4 0.1,3.6 0.1,5 -8,-0.2 -15.9,-0.3 -23.6,-0.2 z"
       id="path3351"
       inkscape:connector-curvature="0"
       style="fill:#3f403f" /><path
       d="m 343.5,380.5 c 0.1,7.8 -0.4,15.2 -0.7,22.5 -0.1,1.7 -0.4,3.2 -1.2,4.5 -0.6,1 -1.5,1.9 -2.8,2.4 -2,0.7 -4.4,0.8 -6.5,0.6 -0.9,-0.1 -1.7,-0.7 -2.2,-1.7 -0.5,-0.9 -0.9,-2.2 -1.1,-3.2 1.9,0.1 4.1,0.1 6.5,0.1 1.2,0 2.1,-0.8 2.2,-2 0.5,-4.1 1,-15.3 0.8,-19.6 -3.2,2.6 -6.5,5.4 -9.4,8.6 -0.4,-0.8 -0.9,-1.7 -1.2,-2.7 -0.5,-1.3 -0.6,-2.6 0.4,-3.5 3.3,-3.1 6.6,-5.8 10.2,-8.4 0.4,-5.4 0.1,-10.1 -0.2,-15.3 -3.7,0.4 -7.5,1.4 -11,2.4 -0.1,-1.1 -0.1,-2.3 0.3,-3.3 0.2,-0.8 0.8,-1.5 1.7,-1.9 2.9,-0.7 5.6,-1.2 8.7,-1.5 0,-3.4 -0.2,-7.5 -0.6,-10.9 1.5,0.1 3.6,0.2 5,0.3 0.1,2.7 0.4,7.8 0.5,10.2 3.2,-0.4 6.9,-0.7 9.4,-0.8 0,1.2 0,3.3 0,4.4 -2.9,0.1 -6.2,0.4 -9.1,0.7 0.1,4.1 0.3,8.3 0.4,12.2 2.2,-1.5 5.2,-3.6 6.7,-4.6 0.9,1.1 2.2,2.6 3,3.6 -3.2,2.2 -6.7,4.5 -9.8,6.9 z m 44.3,27.6 c -0.7,1.3 -2,1.9 -3.3,1.9 -1.3,0.1 -2.7,-0.4 -3.5,-1.2 -5.8,-5.1 -9.1,-11.8 -11.9,-18.5 -5.4,5.9 -10.7,11.9 -15.1,18.1 -0.7,-0.7 -1.4,-1.7 -1.9,-2.7 -0.5,-1.2 -0.7,-2.4 0.1,-3.5 4.9,-5.9 9.5,-11.1 15.1,-16.9 -1.5,-6.2 -2.4,-10.5 -3.3,-17.3 -3.4,0.7 -7.1,1.6 -10.5,2.7 -0.2,-0.9 -0.4,-1.9 -0.1,-2.8 0.1,-1 0.7,-1.9 1.9,-2.4 2.4,-0.8 5.4,-1.3 8,-1.7 -0.5,-5.1 -1.1,-10.9 -1.4,-16.1 1.5,0.1 3.6,0.1 5.1,0 0.2,4.9 0.4,9.1 1.1,15 4.4,-0.6 9.4,-1.2 13.6,-1.7 -2.9,-3.4 -6.3,-6.6 -10.1,-8.6 1.3,-1.2 2.3,-2.2 3.5,-3.2 3.1,1.7 6.2,3.8 8.6,6.7 1.1,1.9 -0.1,3.3 -1.5,5 2.8,-0.2 4.9,-0.4 7.3,-0.5 0.1,1.5 0.2,2.8 0.3,4.4 -7.1,0.4 -14.3,1.3 -21.2,2.3 0.4,4.6 1.3,9.4 2.6,13.8 2.5,-2.5 7.8,-7.7 10.5,-10.3 1.3,0.8 2.8,1.7 4,2.6 -4.4,4.3 -9.9,9.8 -13,12.8 1.9,6.7 5.1,12.5 10.2,17.8 0.9,0.9 1.7,-0.1 2,-1.2 0.8,-2.4 1,-4.7 1.2,-7.4 1.2,0.7 2.5,1.3 3.3,2.2 0.7,0.7 1,1.5 0.9,2.4 -0.3,3.9 -0.7,5.3 -2.5,8.3 z"
       id="path3353"
       inkscape:connector-curvature="0"
       style="fill:#3f403f" /><path
       d="m 400,409.8 c -0.1,-0.9 -0.4,-2 -0.3,-3 0.1,-1.2 0.5,-2.2 1.9,-2.7 4.5,-1.4 10.6,-2.8 14.9,-3.5 -0.1,-3.8 -0.1,-7.3 -0.1,-10.6 -5.1,0.4 -10.3,1.2 -14.7,2.1 0,-0.9 0,-2.1 0.2,-3 0.3,-0.8 0.9,-1.7 1.7,-1.9 4.3,-1 8.4,-1.3 12.9,-1.8 0.1,-3.7 0.4,-7.2 0.7,-10.9 1.5,-0.1 3.4,-0.3 4.9,-0.4 -0.4,3.5 -0.6,7.1 -0.7,10.8 4.4,-0.4 9.6,-0.7 14.1,-0.9 0,1.3 0,3.6 0,4.4 -3.1,0.1 -9.4,0.5 -14.1,1 -0.1,3.4 0.1,7 0.1,10.2 5.6,-0.8 11,-1.7 16.4,-2.1 0,1.5 0,3.1 0,4.5 -11.3,1.2 -27.9,4 -37.9,7.8 z m 37.7,-56.1 c -6,0.1 -12.1,0.2 -18,0.8 -3.5,4.9 -6.8,10.6 -9.6,15.7 5.8,-1.2 11.8,-2.5 17.6,-3.3 -1.5,-2 -3.5,-4.2 -5.4,-6.1 0.9,-0.9 2.8,-2.3 3.6,-2.9 4.6,4.6 8.1,8.8 11.2,13.4 0.9,1.4 0.6,2.5 -0.1,3.6 -0.6,0.8 -1.5,1.5 -2.2,2.2 -1.1,-2.1 -2.6,-4.4 -3.8,-6 -8.9,0.7 -19.3,3.3 -27.3,5.7 -0.1,-1.1 -0.1,-2 -0.1,-2.9 0.1,-1 0.3,-1.9 0.7,-2.7 2.3,-4.6 6.2,-10.8 9.8,-16.1 -4.6,0.4 -9.2,1.1 -13.6,2.1 0,-1.3 0.1,-2.8 0.7,-3.9 0.4,-0.7 0.9,-1.2 1.8,-1.5 10.9,-1.9 23.2,-2.7 34.8,-2.8 -0.1,1.6 -0.1,3.2 -0.1,4.7 z m 5.1,46.3 c -1.2,-15.6 -1.8,-31.7 -0.3,-47.1 1.5,-0.1 3.3,-0.2 4.9,-0.3 -1.4,15 -1.3,31.9 0.3,47 -1.7,0.2 -3.4,0.4 -4.9,0.4 z m 17.3,5.2 c -0.2,1.3 -0.8,2.5 -1.7,3.3 -0.9,0.8 -2,1.5 -3.3,1.7 -1.7,0.4 -4.5,0.2 -5.7,0 -1.2,-0.4 -1.7,-0.9 -2.2,-2 -0.4,-1 -0.6,-2.2 -0.7,-3.3 2.2,0.5 4.6,0.8 6.7,0.6 1.1,-0.1 1.9,-0.7 2.1,-2.4 1.7,-15.8 1.8,-38.8 0,-54.2 1.5,0.1 3.3,0 4.9,0 1.3,13.4 1.5,44.5 -0.1,56.3 z"
       id="path3355"
       inkscape:connector-curvature="0"
       style="fill:#3f403f" /></g><g
     id="g3357"
     transform="translate(287.95,0)"><path
       d="m 12.4,491.9 c 0,1.4 0,2.6 0.2,3.4 l -3.4,0 c 0.2,-1 0.2,-2 0.2,-3.6 l 0,-9.3 c 0,-1.4 0,-2.4 0,-3 -1,1.4 -2.2,2.4 -4,4 -1.2,-1.4 -1.2,-1.4 -2,-1.8 4.8,-3.8 7.3,-6.6 9.3,-10.7 0.4,-1 0.6,-1.4 0.8,-2 l 3.2,0.8 c -0.4,0.6 -0.4,0.8 -0.8,1.6 -1.2,2.4 -1.8,3.4 -3.4,5.6 -0.1,0.1 -0.1,15 -0.1,15 z M 4.1,508 c 2.8,-3.6 3.8,-5.8 5,-10.5 l 2.6,1.2 c -1.4,5 -2.6,7.5 -5,11.1 L 4.1,508 Z m 17.8,-31.8 c -1.8,2.4 -3,3.8 -5.4,5.8 -0.6,-0.6 -1,-1.2 -2.2,-1.6 2.4,-2 3.8,-3.4 5.6,-6.2 1.4,-2.2 2.2,-3.8 2.4,-5.6 l 3,0.6 c 0,0.2 -0.2,0.2 -0.2,0.6 -0.4,1.2 -1.2,2.6 -2,4 l 16.9,0 c 2,0 3,0 3.8,-0.2 l 1.6,1.4 c -0.2,0.2 -0.4,0.4 -1,1.4 -1.2,1.8 -2.2,3 -3.8,4.6 -1,-1 -1.2,-1.2 -2.2,-1.6 1.8,-1.8 2,-2 2.8,-3.2 l -9.5,0 0,15.1 c 0,2.8 -1.2,3.6 -4.8,3.6 -1.2,0 -2.8,0 -4.6,-0.2 0,-1.2 -0.2,-1.8 -0.6,-3 2,0.4 3.8,0.6 5.2,0.6 1.6,0 1.8,-0.2 1.8,-1.2 l 0,-14.7 -6.8,0 c 0,0 0,-0.2 0,-0.2 z m 2.8,5 c -1.6,4.8 -3.4,7.9 -6.6,10.9 -0.6,-0.8 -1.2,-1.2 -2.4,-1.6 3.2,-3 5.2,-6 6.2,-10.3 l 2.8,1 z m -5.9,24.6 c 0,1.8 0.6,2 7.3,2 4.8,0 6.2,-0.2 6.8,-1.2 0.4,-0.8 0.6,-2.6 0.6,-5 1.2,0.6 1.8,0.8 3,1.2 -0.8,7.7 -1.2,7.9 -11.3,7.9 -4.8,0 -7,-0.2 -8.1,-1 -0.8,-0.6 -1.2,-1.4 -1.2,-3.2 l 0,-4.8 c 0,-2 0,-2.8 -0.2,-4.2 l 3.4,0 c -0.2,1.4 -0.2,2 -0.2,4.2 l 0,4.2 -0.1,0 0,-0.1 z m 9.7,-1.6 c -2.2,-2.8 -4,-4.6 -6.8,-6.6 l 2,-1.8 c 2.6,2 4.6,3.8 6.8,6.4 l -2,2 z m 8.9,-24 c 3.6,4.6 5,6.8 7,10.5 l -2.2,1.8 c -2.8,-5.2 -4.4,-7.9 -7,-10.7 l 2.2,-1.6 z m 5.6,29.2 c -2,-5 -3.2,-7.3 -6.2,-11.3 l 2.4,-1.2 c 2.8,3.8 4.2,6.2 6.4,10.7 l -2.6,1.8 z"
       id="path3359"
       inkscape:connector-curvature="0"
       style="fill:#3f403f" /><path
       d="m 58.5,486.7 -3.2,0 c -1.6,0 -2.2,0 -3.4,0.2 l 0,-3.2 c 1.2,0.2 1.8,0.2 3.6,0.2 l 2.8,0 c 1.4,0 2.4,0 3.6,-0.2 -0.2,1.4 -0.2,2.6 -0.2,5 l 0,15.5 c 2,-1.4 3.2,-2.2 5.4,-4 l 0.6,3.2 c -1.4,1 -1.4,1 -7,5.2 -1,0.6 -1.2,0.8 -1.4,1.2 l -1.6,-3 c 1,-0.8 1.2,-1 1.2,-1.6 l 0,-18.5 -0.4,0 0,0 z M 57.1,470 c 3.4,2.4 5.2,4 7.3,6.4 l -2,2.4 C 60,476 58.2,474.4 54.9,472 l 2.2,-2 z m 13.5,10.8 c -1.8,0 -3.2,0 -4.6,0.2 l 0,-3.2 c 1.2,0.2 2.6,0.2 4.6,0.2 l 11.7,0 c 0,-2.8 0,-2.8 0,-3.8 0,-3 0,-3.4 -0.2,-4.8 l 3.2,0 c -0.2,1 -0.2,1.8 -0.2,3.8 0,1.6 0,2.8 0,4.8 l 4.4,0 c 2,0 3.2,0 4.4,-0.2 l 0,3.2 c -1.4,-0.2 -2.8,-0.2 -4.6,-0.2 l -4,0 c 0.4,9.1 1.2,15.3 2.6,19.7 1,3.2 2.6,6.4 3.2,6.4 0.6,0 0.8,-2 1,-6.6 1,1 1.6,1.4 2.6,1.8 -0.6,6.2 -1.4,8.7 -3.2,8.7 -1.4,0 -3.2,-1.8 -4.6,-4.8 -2.6,-5.4 -3.8,-13.3 -4.4,-25.2 l -11.9,0 z m 0.4,9.5 c -1.4,0 -2.6,0 -3.6,0.2 l 0,-3 c 1.2,0.2 2.2,0.2 3.6,0.2 l 5.6,0 c 1.6,0 2.6,0 3.6,-0.2 l 0,3 c -1.2,-0.2 -2.4,-0.2 -3.4,-0.2 l -1.4,0 0,12.1 c 2.4,-0.6 3.4,-1 6.4,-2.2 l 0,3 c -3.2,1.2 -5,1.8 -8.1,2.6 -0.6,0.2 -0.6,0.2 -3.6,1 -0.4,0 -1,0.2 -1.6,0.4 -0.6,0.2 -0.6,0.2 -1.2,0.4 l -0.6,-3.4 c 1.2,0 2.4,-0.2 5.6,-1.2 l 0,-12.9 -1.3,0 0,0.2 z m 17.9,-20.9 c 1.8,1.8 3.2,3.6 4.6,6 l -2.2,1.8 c -1.6,-2.8 -2.6,-4.2 -4.8,-6.4 l 2.4,-1.4 z"
       id="path3361"
       inkscape:connector-curvature="0"
       style="fill:#3f403f" /><path
       d="m 101.4,511.3 c 0.2,-1.4 0.2,-2.4 0.2,-5.6 l 0,-29.2 c 0,-2.2 0,-3.6 -0.2,-5.6 1.8,0.2 3,0.2 5.6,0.2 l 28,0 c 2.6,0 3.8,0 5.6,-0.2 -0.2,2 -0.2,3.4 -0.2,5.6 l 0,29.2 c 0,2.6 0,4 0.2,5.6 l -3.2,0 0,-2.4 -32.8,0 0,2.4 -3.2,0 z m 3.2,-4.9 32.6,0 0,-32.8 -32.6,0 0,32.8 z m 26.6,-27.2 c 0,0.2 0,0.2 0,0 -0.6,0.6 -0.6,0.6 -1,1.2 -2,2.6 -3.8,4.2 -6.8,6.6 3.8,2.2 6.8,3.4 13.3,4.8 -0.6,0.8 -1,1.4 -1.6,2.4 -7,-2 -10.1,-3.2 -13.9,-5.8 -4.2,2.6 -7.3,4 -14.1,6.2 -0.4,-0.8 -0.6,-1.2 -1.6,-2.4 6,-1.6 9.9,-3 13.7,-5.4 -2,-1.6 -2.8,-2.4 -5.2,-4.8 -2,1.8 -2.8,2.4 -5.4,4 -0.6,-1 -1,-1.2 -1.8,-1.8 3.8,-2 6.6,-4.4 8.5,-7.3 0.6,-0.8 0.8,-1.4 1.2,-2.4 l 2.8,1 c -0.2,0.2 -0.2,0.2 -0.4,0.6 0,0 0,0.2 -0.2,0.2 -0.2,0.2 -0.4,0.6 -0.8,1.2 l 8.9,0 c 1.6,0 2.2,0 3.2,-0.2 l 1.2,1.9 z m -1.2,25 c -7,-2.4 -12.1,-3.4 -19.9,-4.4 l 1.2,-2.2 c 7.5,1 12.1,2 19.7,4.4 l -1,2.2 z m -13.9,-24.4 c 0,0 0,0 -0.2,0.2 0,0.2 -0.2,0.4 -0.4,0.4 2.2,2.4 3.2,3.2 5.6,5 2.8,-2 4,-3 6,-5.8 l -11.1,0 0.1,0.2 0,0 z m 10.9,18 c -4,-1.6 -6.2,-2.4 -11.1,-3.6 l 1.2,-2.2 c 4.8,1.2 6.8,2 10.9,3.4 l -1,2.4 z"
       id="path3363"
       inkscape:connector-curvature="0"
       style="fill:#3f403f" /><path
       d="m 151.4,486.7 c -1.6,0 -2.2,0 -3.4,0.2 l 0,-3.2 c 1.2,0.2 1.8,0.2 3.6,0.2 l 3.4,0 c 1.4,0 2.4,0 3.6,-0.2 -0.2,1.4 -0.2,2.6 -0.2,5 l 0,15.7 c 3.2,-2 3.8,-2.4 6,-4 l 0.2,3.2 c -1.6,1.2 -1.6,1.2 -8.9,5.6 l -1.6,-2.8 c 0.8,-0.6 1,-1 1,-2 l 0,-17.7 -3.7,0 0,0 z m 2,-17.3 c 3,2.2 4.8,3.8 7.5,6.6 l -2.2,2.4 c -2.2,-2.8 -4.4,-4.6 -7.3,-6.8 l 2,-2.2 z m 13.7,10.2 c -1.8,0 -3,0 -4.2,0.2 l 0,-3.2 c 1.2,0.2 2.6,0.2 4.6,0.2 l 7.9,0 c -1.2,-3.4 -2,-4.8 -3.2,-6.6 l 2.6,-1.2 c 1.4,2.2 2.6,4.4 3.4,6.6 l -2.2,1 9.3,0 c 2,0 3.4,0 4.6,-0.2 l 0,3.2 c -1.4,-0.2 -2.6,-0.2 -4.6,-0.2 l -11.7,0 c 0,5.6 0,5.6 -0.2,7 l 10.1,0 c 1.6,0 2.4,0 3.4,-0.2 0,1.2 0,1.2 0,4.4 0,7 -0.6,13.1 -1.2,15.9 -0.6,2.4 -1.8,3.4 -4.8,3.4 -1.2,0 -2.6,0 -4.8,-0.4 0,-1.2 -0.2,-1.8 -0.6,-3 2.4,0.4 3.8,0.6 5.2,0.6 2,0 2.4,-0.4 2.8,-4 0.4,-3 0.6,-7.5 0.6,-14.1 l -10.5,0 c -0.4,4.4 -1,8.1 -1.8,11.1 -1.4,4.2 -3.2,7.3 -6.8,11.3 -0.6,-1.2 -1.2,-1.8 -2.2,-2.4 3.8,-3.6 6,-7.5 7,-13.1 0.4,-2.4 0.8,-6.6 1,-10.5 0,-0.6 0,-0.6 0,-5.8 l -3.7,0 0,0 z"
       id="path3365"
       inkscape:connector-curvature="0"
       style="fill:#3f403f" /><path
       d="m 201.1,478.6 c -0.2,1.6 -0.2,2.6 -0.2,5.2 l 0,22.2 c 0,2.8 0,4 0.2,5.4 l -3.6,0 c 0.2,-1.8 0.2,-3 0.2,-5.4 l 0,-22.2 c 0,-2.6 0,-3.6 -0.2,-5.2 l 3.6,0 0,0 z m 0.6,-9.6 c 3,3.2 3.8,4.2 7.3,8.9 l -2.6,1.6 c -2.4,-4 -2.8,-4.4 -6.8,-9.1 l 2.1,-1.4 z m 21.8,16.1 c 1.4,0 2.4,0 3.4,-0.2 0,1 -0.2,1.8 -0.2,2.8 l 0,10.7 c 0,1.2 0,1.8 0.2,2.8 -1.2,0 -1.8,-0.2 -3,-0.2 l -12.7,0 c -1,0 -3.2,0 -3.8,0.2 0,-1.4 0.2,-2 0.2,-3.8 l 0,-9.7 c 0,-1 0,-1.8 -0.2,-3 1.2,0 2,0.2 3.2,0.2 l 12.9,0 0,0.2 0,0 z M 214.8,474 c -2,0 -3,0 -4.2,0.2 l 0,-3.2 c 1.2,0.2 2.2,0.2 4,0.2 l 17.7,0 c 2,0 2.8,0 3.8,-0.2 -0.2,1.2 -0.2,2.2 -0.2,4.2 l 0,32.4 c 0,1.6 -0.6,2.6 -1.8,3 -0.6,0.2 -2.2,0.4 -4.4,0.4 -0.4,0 -1.8,0 -4.4,-0.2 -0.2,-1.8 -0.4,-2.4 -0.8,-3.4 2.6,0.4 3.8,0.6 5.6,0.6 2.4,0 2.8,-0.2 2.8,-1.2 l 0,-32.8 -18.1,0 0,0 z m -4.2,24.6 13.3,0 0,-10.9 -13.3,0 0,10.9 z"
       id="path3367"
       inkscape:connector-curvature="0"
       style="fill:#3f403f" /><path
       d="m 256.7,476.4 c 2.4,0 3.6,0 4,-0.2 0,1.2 -0.2,2.4 -0.2,4 l 0,23.8 c 0,2 0,3.6 0.2,4.8 l -3,0 0,-3 -9.1,0 0,4 -3,0 c 0.2,-1.2 0.2,-3 0.2,-5.6 l 0,-23.6 c 0,-2.2 0,-3.2 -0.2,-4.4 1,0 1.8,0.2 4.2,0.2 l 1,0 c 1,-2.2 1.6,-4.6 2,-7 l 3.2,0.6 c -0.8,2.4 -1.6,4.8 -2.4,6.4 l 3.1,0 z m -7.9,12.9 9.1,0 0,-10.5 -9.1,0 0,10.5 0,0 z m 0,13.9 9.1,0 0,-11.3 -9.1,0 0,11.3 0,0 z m 32.3,-26.8 c 1.8,0 3.2,0 4,-0.2 -0.2,0.8 -0.2,1.2 -0.2,3 -0.4,18.5 -1,24.8 -2.6,28.4 -1,2.2 -2.4,3 -5.2,3 -1.6,0 -3,0 -5.8,-0.4 0,-1.4 -0.2,-2.2 -0.8,-3.2 2.8,0.6 5,0.8 6.6,0.8 1.8,0 2.4,-0.4 3,-1.8 0.8,-2.2 1.4,-6.6 1.8,-12.9 0.2,-3.8 0.2,-6.8 0.4,-13.7 l -13.5,0 c -1.6,3.2 -3,5.4 -5.4,8.5 -0.6,-0.8 -1.4,-1.6 -2.2,-2 2.8,-3 5,-7 6.8,-11.7 0.6,-1.8 1.2,-3.4 1.2,-4.4 l 3.2,0.6 c -0.2,0.2 -0.4,1 -0.6,1.8 -0.6,1.6 -1,2.8 -1.8,4.8 l 11.1,0 0,-0.6 z m -7.5,22 c -2.6,-5.6 -4.4,-8.5 -7,-11.9 l 2.4,-1.4 c 3,3.6 4.8,6.6 7.5,11.7 l -2.9,1.6 z"
       id="path3369"
       inkscape:connector-curvature="0"
       style="fill:#3f403f" /><path
       d="m 314.7,486.9 c -0.2,1 -0.2,1.8 -0.4,3.4 -0.2,5.4 -0.4,7.5 -1.4,10.1 -1.8,4.4 -5.4,7.7 -11.1,9.3 -2.2,0.6 -3.6,0.8 -8.7,1.4 -0.4,-1.2 -0.8,-1.8 -1.6,-3 5.8,0 10.1,-0.8 13.5,-2.8 3,-1.8 4.4,-3.8 5.4,-6.8 0.6,-1.8 0.8,-4.6 0.8,-7.5 0,-1.8 0,-2.8 -0.4,-4 l 3.9,-0.1 0,0 z m -6.3,-6.5 c 1,-1.4 2.4,-4.4 3,-6.2 l -13.4,0 c -2.2,0 -3.8,0 -5,0.2 l 0,-3 c 1.2,0.2 2.8,0.2 5,0.2 l 30,0 c 2.4,0 4,0 5.2,-0.2 l 0,3 c -1.2,-0.2 -2.8,-0.2 -5.2,-0.2 l -13.5,0 c -1,2.4 -1.8,4.2 -3,6.2 l 11.3,0 c 2.4,0 3.8,0 5.2,-0.2 -0.2,1.2 -0.2,2.4 -0.2,4.6 l 0,12.5 c 0,2.6 0,4 0.2,5.2 l -3.6,0 c 0.2,-1.4 0.4,-3 0.4,-5.2 l 0,-14.3 -23.8,0 0,14.3 c 0,2 0,4 0.2,5.2 l -3.4,0 c 0.2,-1.4 0.4,-3 0.4,-5.2 l 0,-12.1 c 0,-2.4 0,-3.6 -0.2,-5 1.4,0.2 2.8,0.2 5.2,0.2 l 5.2,0 z m 23,31.1 c -4.4,-2.8 -8.3,-4.6 -15.9,-7.9 l 1.4,-2.2 c 8.1,3.2 11.7,5 16.1,7.5 l -1.6,2.6 z"
       id="path3371"
       inkscape:connector-curvature="0"
       style="fill:#3f403f" /><path
       d="m 374.5,480.2 c 2.4,0 4,0 5.6,-0.2 -0.2,1.8 -0.2,3.2 -0.2,5.8 l 0,20.2 c 0,2.6 0,4.2 0.2,5.6 l -3.2,0 0,-2.6 -31.6,0 0,2.6 -3.2,0 c 0.2,-1.6 0.2,-2.8 0.2,-5.6 l 0,-20.1 c 0,-2.4 0,-4 -0.2,-5.8 1.6,0.2 3,0.2 5.4,0.2 l 8.7,0 c 0,-0.2 0.2,-0.4 0.2,-0.4 1,-1.8 1.8,-3.6 2.4,-6.2 l -13.5,0 c -2,0 -3.4,0 -5,0.2 l 0,-3.2 c 1.4,0.2 2.8,0.2 4.8,0.2 l 31.2,0 c 2,0 3.4,0 5,-0.2 l 0,3.2 c -1.4,-0.2 -3,-0.2 -5,-0.2 l -14.5,0 c -0.8,2.6 -1.4,4.4 -2.6,6.6 l 15.3,0 0,-0.1 z m -29.2,2.7 0,23.6 7.7,0 0,-23.6 -7.7,0 z m 10.5,6 10.2,0 0,-6 -10.3,0 0.1,6 0,0 z m 0,8.5 10.2,0 0,-6 -10.3,0 0.1,6 0,0 z m 10.2,2.6 -10.3,0 0,6.4 10.3,0 0,-6.4 z m 2.9,6.4 7.9,0 0,-23.6 -7.9,0 0,23.6 z"
       id="path3373"
       inkscape:connector-curvature="0"
       style="fill:#3f403f" /><path
       d="m 423.6,485.1 c 2.2,0 3.8,0 5,-0.2 l 0,3.4 c -1.2,-0.2 -2.6,-0.2 -5,-0.2 l -11.3,0 0,17.9 c 0,1.4 0.6,1.6 5,1.6 6,0 7.7,-0.2 8.3,-1 0.6,-0.8 1,-3.4 1.2,-7.5 1.2,0.6 1.8,1 2.8,1.2 -0.2,4.2 -0.6,6.2 -1.2,7.9 -0.8,2 -2.8,2.4 -10.7,2.4 -4,0 -6,-0.2 -7.3,-0.8 -0.8,-0.4 -1,-1.2 -1,-2.8 l 0,-18.7 -1.6,0 c -1.2,5.4 -2.4,8.9 -4.8,12.3 -2.8,4.2 -6.4,7.3 -13.1,10.7 -0.6,-1.2 -1.2,-1.8 -2.2,-2.8 6.2,-2.6 10.7,-6 13.5,-10.7 1.8,-2.8 2.8,-5.6 3.6,-9.5 l -10.3,0 c -2,0 -3.6,0 -5,0.2 l 0,-3.4 c 1.2,0.2 2.6,0.2 5,0.2 l 10.9,0 c 0.6,-3.4 0.6,-5.4 0.6,-10.7 l -9.9,0 c -2,0 -3.6,0 -5,0.2 l 0,-3.4 c 1.2,0.2 2.6,0.2 5,0.2 l 26,0 c 2.2,0 3.8,0 5.2,-0.2 l 0,3.4 c -1.2,-0.2 -2.6,-0.2 -5,-0.2 l -13.1,0 c -0.2,5.4 -0.2,7 -0.8,10.7 l 15.1,0 0.1,-0.2 0,0 z"
       id="path3375"
       inkscape:connector-curvature="0"
       style="fill:#3f403f" /><path
       d="m 437.5,480.8 c 3,1.8 4.6,3 8.1,5.8 l -1.8,2.6 C 441,486.4 439,485 435.9,483 l 1.6,-2.2 z m 8.3,15.3 c -2,5 -3.4,7.9 -6,12.5 -0.2,0.4 -0.6,1 -1,1.8 l -2.6,-2.4 c 1,-1 1.6,-2 2.8,-4 1.8,-3.4 2.8,-5.4 4.4,-9.7 l 2.4,1.8 z m -5.4,-26.3 c 3,2 4.8,3.4 7.5,6 l -1.8,2.4 c -2.4,-2.6 -4.4,-4.4 -7.5,-6.4 l 1.8,-2 z m 7.6,36.8 c 1,-0.2 1.4,-0.4 2,-1.2 2.6,-3.8 4.8,-7.9 7.9,-14.3 l -6.2,0 c -1.8,0 -3.2,0 -4.6,0.2 l 0,-3.2 c 1.2,0.2 2.6,0.2 4.6,0.2 l 8.7,0 0,-8.5 -6.6,0 c -1.6,0 -3.2,0 -4.4,0.2 l 0,-3.2 c 1.2,0.2 2.6,0.2 4.6,0.2 l 6.4,0 0,-3.2 c 0,-2.2 0,-3.6 -0.2,-4.6 l 3.6,0 c -0.2,1.4 -0.2,2.6 -0.2,4.6 l 0,3.2 8.9,0 c 1.8,0 3,0 4.2,-0.2 l 0,3.2 c -1.2,-0.2 -2.4,-0.2 -4.2,-0.2 l -8.9,0 0,8.5 10.4,0 c 1.8,0 3,0 4.2,-0.2 l 0,3.2 c -1.2,-0.2 -2.6,-0.2 -4.2,-0.2 l -12.5,0 c -2.2,4.2 -2.4,4.6 -4.4,8.3 -1.8,3 -2.2,3.8 -4.2,6.8 0.4,0 0.4,0 1.2,0 1.6,0 9.5,-0.8 12.3,-1.2 1.2,-0.2 1.2,-0.2 5.2,-0.8 -1.8,-3.2 -3.2,-4.8 -5.8,-8.3 l 2.4,-1.4 c 4,5 6.4,8.5 9.9,14.7 l -2.8,1.6 c -1.2,-2.6 -1.8,-3.4 -2.2,-4.4 -2.2,0.4 -4.4,0.6 -6.6,1 L 453,509 c -1.8,0.2 -2.8,0.4 -3.8,0.6 l -1.2,-3 z"
       id="path3377"
       inkscape:connector-curvature="0"
       style="fill:#3f403f" /><path
       d="m 493.7,489.9 c 1.6,-0.6 2.4,-1.2 5.4,-2.6 l 0,3 c -2.4,1.2 -3,1.6 -5.4,2.6 l 0,14.7 c 0,2.4 -1.2,3.2 -5,3.2 -1,0 -1.8,0 -3.2,-0.2 0,-1.2 -0.2,-1.8 -0.6,-3 1.8,0.2 3,0.2 4.2,0.2 1.6,0 1.8,-0.2 1.8,-1.2 l 0,-12.7 c -1.2,0.6 -2.4,1 -3.6,1.6 -1.2,0.6 -1.4,0.6 -2.4,1 l -1,-3.2 c 1.8,-0.4 2.6,-0.6 6.8,-2.4 l 0,-10.3 -2.6,0 c -1.4,0 -2.6,0 -3.8,0.2 l 0,-3.2 c 1.2,0.2 2.2,0.2 4,0.2 l 2.6,0 0,-4.4 c 0,-1.8 0,-3.4 -0.4,-4.8 l 3.4,0 c -0.2,1.4 -0.4,2.8 -0.4,4.6 l 0,4.4 1.8,0 c 1.4,0 2.6,0 3.8,-0.2 l 0,3.2 c -1.2,-0.2 -2.6,-0.2 -4,-0.2 l -1.6,0 0,9.5 0.2,0 0,0 z m 17.1,-5.4 c 0.4,5 1,8.1 2.2,11.9 2.6,-3 4.6,-6.6 5.2,-9.3 l 3,1.6 c -0.6,0.8 -0.6,0.8 -2,3.4 -1.6,2.6 -3.2,5 -5,7.3 1.2,2.6 2.2,4.4 3.6,6 1.4,1.6 2.4,2.4 3,2.4 0.6,0 1,-0.6 1.6,-2 0.6,-1.6 0.8,-2.6 1.2,-4.8 1,1 1.8,1.4 2.8,1.8 -1.4,5.8 -2.8,8.1 -5,8.1 -2.8,0 -6.2,-3.4 -9.3,-9.5 -4.2,4 -7.9,6.4 -13.3,9.1 -0.6,-1 -1.2,-1.8 -2.2,-2.6 5.8,-2.2 10.3,-5 14.3,-9.1 -1.6,-4.6 -2,-7.5 -2.8,-13.9 l -4,0.4 c -1.4,0.2 -2.6,0.4 -3.8,0.6 l -0.2,-3.2 c 0.4,0 0.4,0 0.6,0 0.6,0 1.8,0 3.2,-0.2 l 4,-0.4 c -0.2,-4 -0.2,-4 -0.4,-10.1 0,-1 0,-1.8 -0.2,-2.6 l 3.4,0 c -0.2,1 -0.2,2 -0.2,4.4 0,2.4 0,4.8 0.2,7.9 l 10.5,-1.2 c 1.2,-0.2 2,-0.2 3.8,-0.6 l 0.2,3 c -0.2,0 -0.4,0 -0.6,0 -0.6,0 -1.8,0 -3.2,0.2 l -10.6,1.4 z m 4.9,-14.1 c 2.8,2.6 4.2,4.2 6.2,7 l -2.2,1.8 c -2,-3 -3.2,-4.6 -6.2,-7.3 l 2.2,-1.5 z"
       id="path3379"
       inkscape:connector-curvature="0"
       style="fill:#3f403f" /><path
       d="m 552.1,493.3 c 1.8,0 3,0 4.2,-0.2 l 0,3 c -1.2,-0.2 -2.4,-0.2 -4,-0.2 l -5.8,0 0,7.9 c 4.4,-1 6.6,-1.4 10.5,-2.4 l 0,2.8 c -7,1.8 -11.3,2.8 -17.5,4 -4,0.8 -4,0.8 -6.2,1.2 l -0.6,-3.4 c 1.6,0 3,-0.2 6.6,-0.8 0.8,-0.2 1.8,-0.4 2.8,-0.4 0.8,-0.2 1.2,-0.2 1.8,-0.4 l 0,-8.5 -5,0 c -1.6,0 -3,0 -4.2,0.2 l 0,-3.2 c 1.2,0.2 2.6,0.2 4.2,0.2 l 5,0 0,-1.6 c 0,-1.6 0,-2.6 -0.2,-3.8 l 3.2,0 c -0.2,1 -0.2,2.2 -0.2,3.8 l 0,1.8 5.4,0 z m -18.3,-8.8 c 1.2,0 1.4,-0.2 2,-1 2,-2.4 3.8,-5.2 5.6,-9.1 l -4,0 c -1.8,0 -3.2,0 -4.6,0.2 l 0,-3.2 c 1.2,0.2 2.6,0.2 4.6,0.2 l 14.7,0 c 2.2,0 3.6,0 4.8,-0.2 l 0,3.2 c -1.4,-0.2 -2.6,-0.2 -4.6,-0.2 l -8.1,0 c -0.2,0.6 -0.2,0.6 -0.8,1.4 -1.6,2.8 -3.6,6.2 -5.4,8.5 6.4,-0.4 11.3,-1 13.7,-1.4 -1.2,-1.8 -2.2,-3 -4,-5 l 2.4,-1.2 c 3.4,3.8 4.6,5.6 7.5,10.1 l -2.4,1.8 c -1,-1.8 -1.4,-2.6 -1.8,-3.2 -2.4,0.4 -3,0.4 -6.2,0.8 -1.2,0.2 -3,0.2 -5,0.6 -2.4,0.2 -4.2,0.4 -5.2,0.6 -1.6,0.2 -2,0.2 -2.6,0.2 l -0.6,-3.1 z M 563,472.6 c -0.2,1.2 -0.2,2.4 -0.2,5 l 0,18.3 c 0,3 0,4 0.2,5.2 l -3.4,0 c 0.2,-1.2 0.2,-2.2 0.2,-5.2 l 0,-18.3 c 0,-2.8 0,-3.8 -0.2,-5 l 3.4,0 z m 9.7,-2.6 c -0.2,1.2 -0.2,3 -0.2,5.6 l 0,30.8 c 0,3.4 -1,4.2 -5.2,4.2 -1.8,0 -3.2,0 -5,-0.2 -0.2,-1.2 -0.4,-2 -0.8,-3 2.4,0.4 3.8,0.6 6,0.6 1.8,0 2.2,-0.2 2.2,-1.4 l 0,-31.2 c 0,-2.4 0,-4 -0.4,-5.4 l 3.4,0 z"
       id="path3381"
       inkscape:connector-curvature="0"
       style="fill:#3f403f" /></g></svg>