<svg id="Layer_1" data-name="Layer 1" xmlns="http://www.w3.org/2000/svg" viewBox="0 0 28 28"><defs><style>.cls-1{fill:#7f90a5;}</style></defs><title>Hybris_Interface-Icons-2</title><path class="cls-1" d="M14,18a.5.5,0,0,1-.25-.07l-3.13-1.8a.5.5,0,0,1-.25-.43V12.32a.5.5,0,0,1,.25-.43l3.13-1.81a.5.5,0,0,1,.5,0l3.13,1.81a.5.5,0,0,1,.25.43V15.7a.5.5,0,0,1-.25.43l-3.13,1.8A.5.5,0,0,1,14,18Zm-2.63-2.59L14,16.92l2.63-1.52V12.61L14,11.09l-2.63,1.52Z"/><path class="cls-1" d="M17.14,12.82a.5.5,0,0,1-.26-.93l3.35-2.07a.5.5,0,1,1,.53.85l-3.35,2.07A.51.51,0,0,1,17.14,12.82Z"/><path class="cls-1" d="M9.29,9.72A.5.5,0,0,1,9,8.79l4.71-2.72a.5.5,0,0,1,.5,0L16,7.1a.5.5,0,1,1-.5.87L14,7.08,9.54,9.65A.5.5,0,0,1,9.29,9.72Z"/><path class="cls-1" d="M14,22a.5.5,0,0,1-.25-.07L12,20.9a.5.5,0,1,1,.5-.87l1.54.89L15.54,20a.5.5,0,1,1,.5.87l-1.79,1A.5.5,0,0,1,14,22Z"/><path class="cls-1" d="M14,22a.5.5,0,0,1-.5-.5v-4a.5.5,0,0,1,1,0v4A.5.5,0,0,1,14,22Z"/><path class="cls-1" d="M21,10.25a.5.5,0,0,0-.25-.43L16,7.1a.5.5,0,1,0-.5.87L20,10.54v6.92L15.54,20a.5.5,0,1,0,.5.87l4.71-2.72a.5.5,0,0,0,.25-.43Z"/><path class="cls-1" d="M10.89,12.82a.5.5,0,0,1-.26-.07L7.24,10.68a.5.5,0,1,1,.52-.85l3.38,2.07a.5.5,0,0,1-.26.93Z"/><path class="cls-1" d="M12.46,20l-4.3-2.58L8,10.54l1.54-.89A.5.5,0,0,0,9,8.79l-1.79,1a.5.5,0,0,0-.25.43l.16,7.5c0,.18-.06.34.1.43L12,20.9a.5.5,0,0,0,.5-.87Z"/></svg>