<svg id="Layer_1" data-name="Layer 1" xmlns="http://www.w3.org/2000/svg" viewBox="0 0 28 28"><defs><style>.cls-1{fill:none;stroke:#7f90a5;stroke-linecap:round;stroke-linejoin:round;}</style></defs><title>Hybris_Interface-Icons-2</title><polygon class="cls-1" points="10.3 12.9 6.6 15.1 6.6 19.4 10.3 21.5 14 19.4 14 15.1 10.3 12.9"/><line class="cls-1" x1="14" y1="15.1" x2="10.3" y2="17.2"/><line class="cls-1" x1="6.6" y1="15.1" x2="10.3" y2="17.2"/><line class="cls-1" x1="10.3" y1="21.5" x2="10.3" y2="17.2"/><polygon class="cls-1" points="17.7 12.9 14 15.1 14 19.4 17.7 21.5 21.4 19.4 21.4 15.1 17.7 12.9"/><line class="cls-1" x1="21.4" y1="15.1" x2="17.7" y2="17.2"/><line class="cls-1" x1="14" y1="15.1" x2="17.7" y2="17.2"/><line class="cls-1" x1="17.7" y1="21.5" x2="17.7" y2="17.2"/><polygon class="cls-1" points="14 6.5 10.3 8.6 10.3 12.9 14 15.1 17.7 12.9 17.7 8.6 14 6.5"/><line class="cls-1" x1="17.7" y1="8.6" x2="14" y2="10.8"/><line class="cls-1" x1="10.3" y1="8.6" x2="14" y2="10.8"/><line class="cls-1" x1="14" y1="15.1" x2="14" y2="10.8"/></svg>