<?xml version="1.0" encoding="utf-8"?>
<!-- Generator: Adobe Illustrator 20.1.0, SVG Export Plug-In . SVG Version: 6.00 Build 0)  -->
<svg version="1.1" id="Ebene_1" xmlns="http://www.w3.org/2000/svg" xmlns:xlink="http://www.w3.org/1999/xlink" x="0px" y="0px"
	 viewBox="0 0 16 16" style="enable-background:new 0 0 16 16;" xml:space="preserve">
<style type="text/css">
	.st0{fill:#FFFFFF;}
</style>
<title>Hybris_Interface-Icons-2</title>
<path class="st0" d="M3.9,4.7L1.7,8.3c0,1.2,1,2.2,2.2,2.2S6,9.4,6,8.3L3.9,4.7z M2.4,8.3l1.4-2.9l1.4,2.9H2.4z"/>
<path class="st0" d="M11.1,4.7L8.9,8.3c0,1.2,1,2.2,2.2,2.2s2.2-1,2.2-2.2L11.1,4.7z M9.6,8.3l1.4-2.9l1.4,2.9H9.6z"/>
<path class="st0" d="M8.7,4h3.1V3.2H8.9c0-0.8-0.6-1.4-1.4-1.4S6,2.4,6,3.2H3.2V4h3.1c0.1,0.2,0.3,0.4,0.5,0.5v7.5
	c-0.8,0.2-1.4,0.7-1.4,1.3h4.3c0-0.6-0.6-1.1-1.4-1.3V4.5C8.4,4.3,8.6,4.2,8.7,4z M7.5,2.5c0.4,0,0.7,0.3,0.7,0.7S7.9,4,7.5,4
	C7.1,4,6.7,3.6,6.7,3.2S7.1,2.5,7.5,2.5z"/>
</svg>
