<svg xmlns="http://www.w3.org/2000/svg" width="16" height="16" viewBox="-0.5 -0.5 16 16" enable-background="new -0.5 -0.5 16 16"><title>Hybris_Interface-Icons-2</title><path fill="#fff" d="M12.57 4.756l-.031-.115-.016-.04-.002-.009-.123-.115v-.001l-4.731-2.711c-.111-.064-.25-.064-.361 0l-4.624 2.666c-.091.028-.17.091-.216.182l-.037.149-.007.025v5.402c0 .129.069.248.18.311l4.731 2.734.015.004.167.046.181-.056.064-.03 4.638-2.698c.109-.062.18-.182.18-.311v-5.402l-.008-.031zm-5.054-2.262l3.99 2.302-1.733 1.069-2.077-1.2c-.111-.065-.25-.065-.362 0l-2.076 1.2-1.753-1.074 4.011-2.297zm0 7.118l-1.902-1.092v-2.025l1.902-1.1 1.902 1.1v2.018l-1.902 1.099zm-4.371-4.197l1.745 1.065v2.248c.001.129.069.248.181.311l2.083 1.197v2.045l-4.009-2.279v-4.587zm4.733 6.896v-2.073l2.083-1.196c.109-.063.178-.183.182-.312v-2.24l1.713-1.059v4.571l-3.978 2.309z"/></svg>