<svg version="1" xmlns="http://www.w3.org/2000/svg" width="16" height="16" viewBox="4.5 4.5 16 16" enable-background="new 4.5 4.5 16 16"><title>Hybris_Interface-Icons-2</title><path fill="#fff" d="M10.557 15.088c0 .358-.29.648-.647.648-.357 0-.647-.29-.647-.648v-3.235c0-.357.29-.647.647-.647.358 0 .647.29.647.647v3.235zm.648-5.824c0-.357.291-.647.648-.647s.647.289.647.647v5.824c0 .358-.29.648-.647.648s-.648-.29-.648-.648v-5.824zm3.237 5.824c0 .358-.289.648-.646.648-.358 0-.648-.29-.648-.648v-1.294c0-.358.29-.648.648-.648.357 0 .646.29.646.648v1.294zm1.944 0c0 .358-.29.648-.647.648-.358 0-.648-.29-.648-.648v-3.883c0-.357.29-.647.648-.647.357 0 .647.29.647.647v3.883zm-7.772 1.294h8.419c.357 0 .647.29.647.647s-.29.648-.647.648h-8.419c-.715 0-1.295-.58-1.295-1.295v-8.412c0-.357.29-.647.647-.647.358 0 .647.29.647.647v8.412z"/></svg>