<svg xmlns="http://www.w3.org/2000/svg" width="16" height="16" viewBox="-0.5 -0.5 16 16" enable-background="new -0.5 -0.5 16 16"><title>Hybris_Interface-Icons-2</title><path fill="#fff" d="M7.507 1.709c-.68-.021-1.248.51-1.269 1.189-.02.57.356 1.078.906 1.227v1.302c0 .201.163.363.363.363s.362-.162.362-.363v-1.303c.654-.176 1.043-.852.863-1.506-.148-.552-.655-.928-1.225-.909zm0 1.75c-.284 0-.514-.23-.514-.514 0-.284.23-.514.514-.514.283 0 .514.23.514.514 0 .284-.231.514-.514.514zm.362 7.406v-1.302c0-.198-.163-.362-.362-.362s-.363.164-.363.362v1.309c-.651.2-1.02.89-.82 1.544.2.652.891 1.021 1.544.82.653-.2 1.019-.891.819-1.543-.119-.394-.428-.701-.819-.82l.001-.008zm-.362 1.693c-.284 0-.514-.229-.514-.515 0-.282.23-.513.514-.513.283 0 .514.23.514.513 0 .285-.231.515-.514.515zm-1.613-6.409l-1.128-.649c.122-.527-.112-1.073-.578-1.346-.6-.341-1.362-.132-1.704.468-.342.597-.132 1.36.467 1.701.467.267 1.053.2 1.447-.167l1.128.65c.173.102.395.043.494-.132.101-.174.041-.396-.134-.495l.008-.03zm-2.582-.483c-.245-.142-.329-.457-.188-.702.141-.247.457-.33.702-.188.249.137.339.448.203.697l-.016.027c-.148.236-.461.311-.701.166zm8.75 3.027c-.467-.262-1.053-.195-1.447.169l-1.135-.643c-.173-.1-.395-.04-.496.134-.098.174-.039.395.136.495l1.127.65c-.147.662.269 1.32.931 1.469.663.147 1.32-.27 1.469-.932.117-.525-.119-1.064-.584-1.334v-.008zm-.173 1.333c-.141.245-.454.33-.701.187-.246-.14-.33-.453-.188-.699.139-.246.455-.332.7-.189.118.068.205.178.239.312.037.131.018.271-.05.389zm-2.59-3.204l.181-.051 1.127-.65c.395.365.98.433 1.447.167.594-.337.801-1.092.465-1.687-.338-.594-1.094-.801-1.688-.465-.477.271-.717.822-.594 1.355l-1.125.652c-.173.102-.228.323-.128.496.066.108.181.175.309.175l.006.008zm1.896-2.046c.075-.047.164-.071.254-.072.283-.002.514.227.516.511l-.018.133c-.035.131-.119.244-.238.31-.246.142-.562.058-.701-.188-.141-.247-.059-.56.188-.701v.007zm-5.662 3.443l-1.129.65c-.502-.457-1.279-.422-1.738.079-.457.501-.421 1.278.08 1.738.395.36.978.425 1.441.157.466-.272.7-.817.578-1.344l1.128-.652c.175-.1.234-.32.135-.494-.1-.175-.322-.234-.495-.134zm-1.707 1.995c-.256.123-.564.016-.686-.239-.052-.105-.063-.226-.037-.338.058-.225.26-.382.491-.384.284.002.513.233.512.516-.002.181-.098.347-.252.44l-.028.005zm3.681-1.452c.221 0 .438-.059.629-.166.606-.348.818-1.12.474-1.729-.349-.605-1.122-.817-1.728-.471-.607.346-.818 1.12-.473 1.728.224.392.644.638 1.098.638z"/></svg>