<svg version="1" xmlns="http://www.w3.org/2000/svg" width="28" height="28" viewBox="0 0 28 28"><path fill="#d1e8ff" d="M11.2 10.5h-4.67c-.64 0-1.16.52-1.16 1.16v4.671c-.006.642.509 1.165 1.15 1.17h4.68c.646 0 1.169-.522 1.169-1.17v-4.66c.001-.648-.523-1.171-1.169-1.171zm.17 5.83c-.005.092-.079.164-.17.17h-4.67c-.09-.006-.16-.079-.16-.17v-4.66c0-.091.07-.165.16-.17h4.67c.091.005.165.078.17.17v4.66zM14.13 11.5h8.001c.276 0 .499-.224.499-.5s-.223-.5-.499-.5h-8.001c-.276 0-.5.224-.5.5s.224.5.5.5zM22.131 12.5h-8.001c-.276 0-.5.223-.5.499s.223.5.5.5h8.001c.276 0 .499-.224.499-.5 0-.275-.223-.499-.499-.499zM22.131 14.5h-8.001c-.276 0-.5.224-.5.5s.223.5.5.5h8.001c.276 0 .499-.224.499-.5s-.223-.5-.499-.5zM22.131 16.5h-8.001c-.276 0-.5.224-.5.499 0 .276.223.501.5.501h8.001c.276 0 .499-.225.499-.501 0-.275-.223-.499-.499-.499z"/></svg>