<?xml version="1.0" encoding="utf-8"?>
<!-- Generator: Adobe Illustrator 16.0.4, SVG Export Plug-In . SVG Version: 6.00 Build 0)  -->
<!DOCTYPE svg PUBLIC "-//W3C//DTD SVG 1.1//EN" "http://www.w3.org/Graphics/SVG/1.1/DTD/svg11.dtd">
<svg version="1.1" id="Ebene_1" xmlns="http://www.w3.org/2000/svg" xmlns:xlink="http://www.w3.org/1999/xlink" x="0px" y="0px"
	 width="96px" height="48px" viewBox="0 0 96 48" enable-background="new 0 0 96 48" xml:space="preserve">
<g>
	<path fill="#818EA2" d="M22.298,36.063c-0.385,0-0.697,0.997-0.697,1.375v2.75c0,0.373,0.324,1.375,0.697,1.375
		c0.383,0,0.695-0.997,0.695-1.375v-2.75C22.993,37.065,22.671,36.063,22.298,36.063 M19.554,36.063
		c-0.385,0-0.696,0.997-0.696,1.375v2.75c0,0.373,0.323,1.375,0.696,1.375c0.385,0,0.697-0.997,0.697-1.375v-2.75
		C20.251,37.065,19.927,36.063,19.554,36.063 M25.821,35.376c0-3.221-0.697-3.438-1.393-3.438c-0.696,0,0.029,1.375-0.696,1.375
		s-0.05-2.654-1.443-2.654s-2.04-0.152-2.04,1.279s0,1.375-0.695,1.375c-0.696,0-0.01-2.654-1.393-2.654
		c-1.006,0-1.626,0.204-1.888,0.66c-0.103,0.189-0.153,0.403-0.146,0.619c0,0.895-0.207,1.375-0.752,1.375
		c-0.544,0,0-2.75-0.697-4.812c-0.696-2.062-0.696-3.438-2.176-3.438s-0.725,4.163,0,6.133c0.725,1.967,1.269,5.368,0.543,5.725
		c-0.724,0.358-1.457-1.969-2.545-3.041c-1.086-1.073-2.422-0.623-2.785,0.809c-0.362,1.432,1.699,3.711,2.785,5.5
		c1.088,1.789,4.178,4.125,4.178,4.125h4.179c0,0,0.487-1.375,1.394-1.375c0.905,0,1.291,1.375,2.038,1.375
		c0.746,0,0.746-1.375,0.746-1.375l2.091-2.75C26.212,38.756,25.821,38.596,25.821,35.376 M27.259,37.239
		c0.065,1.645,0.049,2.367-1.021,3.775l-1.838,2.42c-0.16,1.35-0.985,2.254-2.11,2.254c-0.99,0-1.602-0.695-1.968-1.111
		c-0.013-0.014-0.026-0.029-0.038-0.043c-0.047,0.086-0.09,0.172-0.109,0.233l-0.328,0.921h-5.64l-0.374-0.283
		c-0.337-0.256-3.336-2.554-4.525-4.509c-0.266-0.437-0.592-0.901-0.924-1.378c-1.2-1.719-2.44-3.496-2.02-5.163
		c0.302-1.187,1.102-2.063,2.141-2.347c1.031-0.28,2.119,0.047,2.982,0.9c0.04,0.037,0.078,0.079,0.116,0.118
		c-0.114-0.465-0.25-0.93-0.41-1.36c-0.018-0.052-1.809-5.082-0.377-7.101c0.383-0.552,1.014-0.88,1.686-0.878
		c2.223,0,2.738,1.794,3.15,3.234c0.101,0.348,0.21,0.73,0.349,1.144c0.165,0.49,0.272,1.002,0.342,1.503
		c0.721-0.285,1.477-0.285,1.818-0.285c0.664,0,1.139,0.227,1.48,0.559c0.664-0.579,1.496-0.573,2.297-0.562l0.35,0.004
		c1.104,0,1.686,0.605,2.004,1.285c0.045-0.004,0.091-0.006,0.137-0.006c2.785,0,2.785,3.25,2.785,4.812
		C27.214,36.163,27.239,36.762,27.259,37.239 M16.769,41.563c-0.373,0-0.697-1.002-0.697-1.375v-2.75
		c0-0.378,0.312-1.375,0.697-1.375c0.373,0,0.695,1.002,0.695,1.375v2.75C17.464,40.566,17.152,41.563,16.769,41.563"/>
	<path fill="#818EA2" d="M2.96,2.312C1.432,2.319,0.197,3.562,0.2,5.09v30.821c-0.003,1.527,1.232,2.77,2.76,2.777h3.496
		c-0.347-0.464-0.689-0.939-1.006-1.389H2.96c-0.761,0-1.38-0.622-1.38-1.389V5.09c0-0.767,0.619-1.389,1.38-1.389h21.276
		l9.065,8.769v23.44c0,0.767-0.617,1.389-1.379,1.389H28.86v1.389h3.062c1.527-0.007,2.763-1.25,2.76-2.777v-23.44L24.236,2.312
		H2.96z"/>
	<path fill="#818EA2" d="M23.28,3.688h1v9h-1V3.688z"/>
	<path fill="#818EA2" d="M33.28,11.688v1h-10v-1H33.28z"/>
</g>
<path fill="#818EA2" d="M95.464,23.253l-7.461-6.527c-0.412-0.361-1.037-0.32-1.397,0.091c-0.157,0.181-0.246,0.413-0.246,0.654
	v3.985H68.188c-0.963,0-1.742,0.781-1.742,1.744v1.491c0,0.964,0.779,1.743,1.742,1.743h18.172v4.092
	c0,0.547,0.44,0.991,0.988,0.993c0.24,0.001,0.476-0.087,0.655-0.246l7.459-6.53c0.412-0.36,0.453-0.986,0.093-1.398
	c-0.029-0.032-0.06-0.062-0.093-0.092"/>
</svg>
